<?xml version="1.0" standalone="no"?>
<!DOCTYPE svg PUBLIC "-//W3C//DTD SVG 20010904//EN"
 "http://www.w3.org/TR/2001/REC-SVG-20010904/DTD/svg10.dtd">
<svg version="1.0" xmlns="http://www.w3.org/2000/svg"
 width="1200.000000pt" height="1600.000000pt" viewBox="0 0 1200.000000 1600.000000"
 preserveAspectRatio="xMidYMid meet">

<g transform="translate(0.000000,1600.000000) scale(0.100000,-0.100000)"
fill="#000000" stroke="none">
<path d="M6115 14370 c-33 -4 -105 -14 -160 -23 -93 -15 -153 -21 -465 -47
-63 -6 -122 -12 -130 -13 -44 -10 -76 -22 -118 -42 -26 -12 -63 -26 -82 -30
-19 -4 -57 -22 -85 -40 -27 -18 -68 -42 -90 -53 -128 -64 -218 -112 -232 -124
-9 -7 -51 -31 -94 -53 -42 -22 -135 -86 -206 -143 -70 -57 -144 -115 -163
-130 -19 -15 -46 -40 -60 -56 -45 -52 -104 -107 -132 -121 -15 -8 -31 -21 -35
-28 -4 -8 -35 -32 -68 -54 -75 -50 -274 -251 -316 -319 -17 -27 -41 -60 -54
-74 -13 -14 -35 -47 -50 -75 -15 -27 -44 -72 -64 -99 -90 -123 -161 -248 -161
-286 0 -10 -6 -25 -14 -33 -20 -20 -46 -84 -46 -114 0 -13 -4 -22 -9 -19 -13
9 -64 -190 -81 -315 -4 -32 -19 -81 -33 -110 -30 -64 -59 -147 -85 -249 -47
-178 -57 -330 -28 -438 15 -56 71 -186 94 -216 5 -6 17 -33 27 -61 10 -27 24
-54 31 -60 7 -5 21 -48 33 -94 11 -46 26 -90 33 -99 15 -17 48 -118 48 -147 0
-29 33 -135 42 -135 4 0 8 -15 8 -34 0 -29 -3 -33 -19 -29 -16 4 -19 1 -14
-16 3 -11 1 -34 -5 -50 -8 -23 -7 -33 6 -48 19 -20 44 -84 37 -92 -3 -2 -6 -2
-7 0 -2 2 -20 36 -40 74 -43 82 -74 99 -130 72 -75 -36 -91 -112 -93 -422 0
-49 3 -117 7 -150 4 -33 4 -51 1 -40 -3 11 -8 22 -12 25 -4 3 -17 25 -30 50
-72 140 -133 235 -157 244 -8 3 -32 -1 -55 -9 -42 -15 -64 -15 -88 -1 -12 8
-13 -10 -9 -109 4 -76 10 -120 18 -125 9 -6 9 -12 0 -27 -10 -16 -9 -80 4
-314 10 -162 19 -301 21 -309 3 -8 7 -84 10 -169 6 -171 11 -201 31 -201 8 0
65 16 127 36 112 37 112 37 239 30 l127 -6 13 42 c6 24 15 45 18 48 4 3 15 19
25 37 23 39 55 50 62 22 3 -10 9 -19 13 -19 4 0 5 -21 3 -47 -2 -27 -5 -62 -5
-79 -1 -23 -9 -35 -30 -47 -15 -9 -28 -21 -28 -26 0 -19 70 -63 110 -68 24 -4
40 -11 40 -19 0 -8 5 -14 10 -14 13 0 13 6 -1 32 -9 16 -8 19 3 15 7 -2 12
-10 11 -16 -2 -6 1 -11 5 -11 4 0 9 -27 10 -61 2 -43 -1 -59 -9 -54 -6 4 -9
19 -6 35 3 15 1 32 -6 39 -17 17 -26 13 -20 -7 3 -14 -9 -27 -47 -52 -29 -18
-57 -39 -64 -45 -6 -7 -50 -27 -96 -44 -47 -18 -103 -40 -125 -49 -30 -12 -80
-16 -205 -16 l-165 -1 -3 -29 c-2 -16 2 -106 8 -200 7 -94 14 -220 16 -281 7
-223 35 -774 46 -915 22 -292 24 -393 10 -407 -22 -21 -73 -45 -86 -40 -9 4
-14 30 -15 79 -1 40 -8 159 -16 263 -20 271 -33 472 -45 690 -6 105 -15 264
-20 355 -6 91 -15 251 -20 355 -6 105 -17 267 -25 360 -8 94 -17 231 -21 304
-4 74 -11 146 -15 160 -8 22 -8 21 -5 -9 5 -41 22 -385 36 -730 6 -135 17
-373 25 -530 8 -157 17 -401 19 -542 3 -142 8 -273 11 -291 4 -22 3 -37 -5
-42 -17 -10 -3 -389 16 -440 8 -19 -46 -32 -161 -39 -195 -10 -389 -45 -650
-116 -121 -32 -155 -36 -155 -17 -1 42 -22 167 -32 190 -9 24 -15 28 -37 22
-14 -3 -51 -11 -81 -16 -30 -6 -59 -14 -65 -20 -6 -6 1 -7 21 -3 28 5 30 4 29
-23 -1 -23 -6 -28 -32 -31 -18 -2 -35 3 -43 12 -19 24 -56 19 -78 -9 -20 -26
-42 -33 -42 -15 0 7 -6 7 -20 0 -20 -11 -60 1 -60 18 0 10 56 52 68 52 18 0
33 50 21 72 -17 31 7 44 107 58 46 7 86 16 89 20 2 4 26 8 52 8 65 2 77 18 69
102 -4 36 -10 112 -15 170 -11 129 -28 197 -53 203 -10 3 -18 13 -18 24 1 17
1 17 14 1 20 -27 26 -22 26 21 0 35 -12 57 -32 61 -23 4 -76 31 -88 45 -22 26
0 37 51 26 75 -18 72 -21 65 77 -4 48 -7 101 -7 117 -1 59 -72 1043 -95 1318
-16 185 -19 198 -38 202 -12 2 -70 6 -130 9 -87 4 -115 9 -136 24 -19 15 -31
17 -44 10 -33 -19 -183 6 -212 35 -8 8 47 56 64 57 7 0 39 27 70 60 l57 59 99
10 c88 9 106 8 155 -9 61 -20 73 -15 69 30 -3 23 -7 25 -53 25 -47 0 -50 2
-53 27 -2 19 3 30 17 38 12 6 21 15 21 19 0 17 -181 112 -201 106 -23 -7 -25
-30 -4 -39 19 -7 19 -21 -1 -40 -20 -20 -38 -20 -58 0 -12 12 -13 20 -6 35 10
17 7 20 -19 25 -39 8 -58 30 -66 77 -6 29 -4 37 8 37 19 0 27 21 34 88 6 59
-6 68 -34 25 -46 -71 -59 -76 -96 -39 -24 24 -90 49 -101 39 -3 -3 -21 -2 -41
1 -54 10 -61 37 -32 112 34 87 21 101 -86 89 -100 -12 -120 -58 -52 -120 18
-16 45 -56 59 -88 14 -32 41 -76 60 -99 51 -59 97 -165 116 -268 5 -25 12 -57
16 -73 6 -24 3 -28 -24 -33 -31 -6 -71 -54 -92 -109 -9 -23 -14 -25 -77 -25
-38 0 -84 5 -104 10 l-36 10 -6 86 c-6 103 -1 122 40 168 l32 35 -53 15 c-38
11 -55 22 -59 36 -13 50 -56 6 -54 -55 1 -25 0 -45 -3 -45 -3 0 -21 -14 -40
-30 -19 -16 -40 -30 -46 -30 -20 0 -38 -31 -39 -64 0 -30 -1 -31 -45 -29 -94
4 -130 13 -130 33 0 10 -5 22 -10 25 -6 3 -10 14 -10 25 0 10 -11 42 -25 72
-14 29 -25 65 -25 79 0 14 -7 34 -15 45 -17 23 -19 58 -5 85 11 20 10 22 -42
81 -16 17 -28 35 -28 41 0 5 16 27 34 48 43 47 60 106 51 176 -6 51 -6 53 18
53 13 0 37 -4 53 -9 16 -5 71 -19 122 -31 86 -20 94 -21 117 -6 13 9 31 16 39
16 18 0 100 41 104 52 2 4 10 8 18 8 8 0 14 4 14 9 0 5 11 12 25 15 31 8 32
26 0 75 -57 91 -117 141 -168 141 -43 0 -48 20 -21 75 14 28 27 67 29 88 4 38
26 77 64 111 30 27 27 67 -7 99 -28 27 -29 27 -178 27 -82 0 -154 -4 -161 -8
-31 -19 -43 -118 -21 -167 9 -19 19 -25 45 -25 18 0 33 -5 33 -10 0 -6 12 -4
28 4 42 22 58 7 46 -41 -8 -35 -12 -38 -42 -38 -33 0 -34 0 -27 -35 14 -72 10
-123 -10 -134 -11 -6 -30 -23 -44 -38 -14 -16 -31 -28 -37 -28 -6 0 -19 35
-29 78 -10 42 -30 102 -46 132 -15 30 -31 67 -35 82 -5 24 -90 108 -108 108
-3 0 -6 -214 -6 -475 0 -397 2 -475 14 -475 24 0 58 -121 58 -207 -1 -26 3
-65 8 -86 5 -22 4 -39 -2 -43 -5 -3 -7 -13 -4 -20 3 -8 -12 -43 -34 -78 l-40
-63 0 -758 c0 -417 3 -755 7 -751 4 4 6 34 5 66 -2 40 2 71 13 95 10 19 14 42
11 51 -4 9 -4 31 0 49 5 31 7 32 39 25 43 -10 62 9 70 70 9 66 34 128 53 134
10 3 33 1 52 -4 49 -14 50 -14 50 25 0 33 -7 40 -37 36 -20 -3 -66 25 -98 58
-27 29 -28 33 -15 55 24 39 90 106 104 106 18 0 118 -49 141 -70 11 -10 45
-21 75 -24 l55 -7 3 56 c2 43 -1 61 -16 80 -20 25 -19 69 2 83 10 6 230 22
351 24 28 1 97 -2 155 -7 96 -8 107 -11 132 -36 25 -24 34 -27 80 -24 29 2 77
10 107 18 36 10 63 12 78 6 30 -11 40 -52 19 -84 -9 -13 -15 -32 -14 -42 0
-10 0 -25 0 -35 -3 -22 -100 -52 -151 -45 -44 6 -56 0 -65 -29 -5 -17 1 -24
34 -40 22 -10 40 -25 40 -31 0 -7 6 -13 14 -13 8 0 16 -10 18 -22 2 -13 13
-27 25 -33 13 -5 23 -18 23 -27 0 -10 5 -18 10 -18 6 0 10 -5 10 -11 0 -21 53
-79 71 -79 27 0 38 -37 29 -95 -4 -28 -5 -104 -1 -170 8 -135 22 -171 69 -173
15 -1 41 -6 57 -11 26 -8 27 -9 7 -10 -13 -1 -36 -8 -53 -16 -16 -9 -33 -13
-38 -10 -11 6 -41 -38 -41 -59 0 -16 70 -91 92 -99 7 -3 -3 -5 -22 -5 -42 -1
-168 -18 -228 -32 -24 -6 -59 -22 -78 -36 -19 -15 -34 -25 -35 -23 0 2 -2 13
-4 23 -8 40 -14 41 -185 20 -184 -21 -329 -31 -571 -38 -193 -6 -218 -5 -233
10 -15 15 -19 15 -41 0 -15 -10 -46 -16 -84 -16 -33 0 -66 -3 -75 -6 -14 -6
-16 -68 -16 -601 l0 -596 73 8 c39 4 176 9 302 11 127 2 239 5 250 6 11 2 24
16 31 33 6 17 14 37 18 46 14 32 -17 47 -81 38 -63 -9 -84 0 -63 26 9 11 29
15 64 15 71 -2 128 5 153 19 32 17 61 13 73 -8 13 -26 13 -61 -1 -61 -10 0 -9
-27 3 -84 6 -25 20 -28 176 -33 102 -4 132 -8 132 -18 0 -8 -31 -47 -69 -87
-38 -40 -89 -97 -113 -125 -24 -29 -64 -67 -89 -84 -103 -72 -198 -196 -255
-333 l-35 -84 -75 -36 c-89 -42 -145 -80 -226 -152 -34 -30 -107 -87 -164
-127 l-104 -72 0 -2477 0 -2478 6000 0 6000 0 0 2351 0 2350 -31 27 c-43 35
-346 261 -461 342 -93 66 -205 136 -335 209 -77 44 -95 61 -66 61 39 0 186
-59 478 -191 11 -5 42 -27 69 -48 27 -22 61 -45 75 -53 14 -7 28 -16 31 -19 3
-3 30 -22 60 -42 30 -20 81 -54 114 -76 32 -23 60 -41 62 -41 2 0 4 87 4 193
l0 193 -31 32 c-26 27 -358 202 -382 202 -8 0 -75 33 -342 169 -194 98 -326
136 -530 151 -126 10 -162 14 -345 45 -47 8 -124 16 -171 19 -86 5 -86 5 -179
66 -100 68 -204 118 -308 151 -95 30 -197 86 -283 154 -41 33 -76 62 -79 65
-3 3 -22 14 -42 23 -20 10 -40 21 -42 26 -3 5 -17 12 -31 15 -30 8 -289 134
-360 176 -27 16 -99 56 -160 88 -60 33 -123 67 -140 76 -16 9 -95 44 -175 77
-80 34 -157 68 -171 76 -38 22 -54 56 -83 168 -15 55 -33 124 -41 154 -14 52
-14 57 10 125 14 39 42 121 62 181 19 61 44 133 54 160 10 28 34 104 54 170
19 66 47 156 60 200 24 77 41 142 52 195 2 14 18 41 33 59 27 31 29 37 25 104
-2 39 1 79 6 90 7 12 7 28 0 48 -9 25 -5 45 18 115 21 65 24 84 13 79 -12 -4
-13 3 -7 42 8 59 27 104 40 100 18 -7 100 58 117 94 22 42 23 112 3 129 -8 7
-15 18 -15 26 0 7 -9 18 -20 24 -23 12 -25 35 -7 73 8 18 17 25 27 21 28 -11
403 -23 422 -13 19 10 22 26 12 54 -6 14 -31 16 -217 14 -143 -1 -212 2 -215
9 -4 13 53 243 69 281 6 15 13 21 17 14 4 -6 48 -13 97 -17 157 -11 196 -17
202 -32 7 -19 23 -18 23 2 0 13 3 14 15 4 8 -7 12 -16 9 -21 -3 -5 0 -9 5 -9
6 0 11 6 11 13 0 8 9 22 20 32 11 10 20 29 20 42 l0 23 -193 0 c-126 0 -197
-4 -204 -11 -18 -18 -22 2 -12 61 23 140 29 218 29 385 0 119 -5 202 -14 245
-37 166 -61 209 -131 229 -70 20 -78 31 -64 87 13 54 53 146 102 239 61 116
67 131 84 220 9 50 21 93 25 96 5 3 15 52 24 110 8 57 19 118 24 134 5 17 19
77 30 135 11 58 28 127 36 155 14 47 37 206 35 250 -2 67 -24 158 -68 285
-101 290 -100 288 -124 295 -10 3 -21 19 -24 36 -4 16 -19 37 -33 47 -36 22
-113 105 -109 116 4 11 -40 56 -54 56 -6 0 -5 -8 1 -21 7 -11 10 -22 8 -25 -9
-8 -48 28 -48 44 0 9 -14 31 -32 49 -18 18 -28 34 -22 34 43 6 74 2 107 -14
45 -21 62 -16 20 6 -75 40 -118 57 -133 52 -10 -3 -20 0 -23 8 -4 10 -24 15
-63 16 -73 1 -93 7 -126 38 -16 15 -31 22 -39 18 -9 -6 -8 -11 5 -20 14 -11
14 -13 2 -18 -19 -8 -85 3 -92 14 -3 5 -14 9 -25 9 -25 0 -24 21 1 43 26 22
26 40 -1 32 -11 -4 -37 -8 -58 -10 -22 -1 -45 -6 -52 -10 -7 -5 -3 7 9 27 26
42 30 74 5 43 l-16 -20 9 20 c5 11 8 49 7 85 -1 35 2 67 8 70 6 4 6 25 -2 59
-6 29 -8 55 -5 58 3 4 6 0 6 -8 0 -12 2 -11 11 1 8 11 9 5 5 -25 -4 -27 -2
-35 4 -25 11 18 12 67 1 95 -8 19 -8 19 -19 0 -10 -18 -11 -16 -11 15 0 19 3
29 6 22 9 -24 23 0 23 41 0 46 -38 175 -70 237 -11 22 -20 42 -20 45 0 16 19
-1 50 -45 19 -28 38 -50 43 -50 13 0 7 25 -13 50 -11 14 -20 30 -20 36 0 6
-23 31 -52 55 -110 94 -146 126 -225 201 -46 43 -87 78 -93 78 -6 0 -42 20
-80 45 -38 25 -71 45 -74 45 -3 0 -31 12 -63 26 -32 15 -76 35 -98 45 -44 20
-213 70 -321 95 -55 13 -139 17 -404 19 -184 2 -362 0 -395 -5z m540 -42 c17
-7 16 -8 -5 -3 -14 2 -45 5 -70 5 -30 0 -40 3 -31 9 15 10 73 4 106 -11z m123
-23 c-7 -7 -67 8 -63 16 3 4 19 3 36 -3 16 -6 29 -12 27 -13z m267 -17 c39
-11 105 -38 147 -59 76 -38 168 -113 155 -126 -4 -3 -24 -1 -44 5 -21 6 -49
13 -63 16 -14 3 -43 21 -65 41 -22 19 -44 35 -48 35 -5 0 -22 9 -38 20 -15 12
-53 29 -83 40 -72 24 -98 39 -91 51 7 10 26 7 130 -23z m470 -248 c22 -21 36
-42 32 -47 -10 -10 -38 8 -51 33 -6 10 -17 23 -23 27 -14 9 -18 27 -5 27 4 -1
25 -19 47 -40z m-75 -36 c0 -8 -4 -12 -10 -9 -5 3 -10 10 -10 16 0 5 5 9 10 9
6 0 10 -7 10 -16z m170 -104 c0 -13 7 -20 19 -20 11 0 23 -4 26 -10 8 -13 -25
-61 -37 -54 -5 3 -15 0 -23 -6 -23 -19 -31 15 -11 45 10 15 12 26 6 30 -15 10
-12 35 5 35 8 0 15 -9 15 -20z m80 0 c0 -5 -2 -10 -4 -10 -3 0 -8 5 -11 10 -3
6 -1 10 4 10 6 0 11 -4 11 -10z m320 -867 c-1 -16 -39 -53 -64 -63 -39 -14
-33 9 11 43 36 27 53 34 53 20z m335 -154 c3 -4 -9 -9 -25 -11 -17 -3 -30 -1
-30 3 0 4 -8 10 -17 12 -10 3 1 4 25 4 24 0 45 -4 47 -8z m23 -47 c18 -2 32
-10 32 -18 0 -20 -30 -17 -67 6 -35 21 -45 37 -15 25 9 -5 32 -10 50 -13z
m120 -140 c3 -9 -2 -13 -14 -10 -9 1 -19 9 -22 16 -3 9 2 13 14 10 9 -1 19 -9
22 -16z m-3023 -172 c-3 -5 -12 -10 -18 -10 -7 0 -6 4 3 10 19 12 23 12 15 0z
m55 -20 c0 -5 -4 -10 -10 -10 -5 0 -10 5 -10 10 0 6 5 10 10 10 6 0 10 -4 10
-10z m3150 -41 c0 -5 -7 -6 -15 -3 -8 4 -15 13 -15 21 0 13 3 13 15 3 8 -7 15
-16 15 -21z m-3393 -1 c-3 -8 -6 -5 -6 6 -1 11 2 17 5 13 3 -3 4 -12 1 -19z
m-155 -20 c-7 -7 -12 -8 -12 -2 0 14 12 26 19 19 2 -3 -1 -11 -7 -17z m224
-35 c10 -7 12 -13 4 -18 -13 -8 -76 5 -63 14 6 3 16 17 24 31 12 23 13 24 17
5 2 -11 10 -25 18 -32z m848 21 c-46 -25 -49 -25 -61 -7 -12 16 -11 19 9 25
13 3 41 6 62 7 l39 1 -49 -26z m1066 -14 c0 -5 -4 -10 -10 -10 -5 0 -10 5 -10
10 0 6 5 10 10 10 6 0 10 -4 10 -10z m-1750 -24 c0 -2 -7 -6 -15 -10 -8 -3
-15 -1 -15 4 0 6 7 10 15 10 8 0 15 -2 15 -4z m568 -33 c5 22 51 23 112 0 25
-9 47 -18 50 -21 3 -2 6 -25 6 -50 1 -26 4 -54 5 -62 6 -25 -15 -27 -26 -2 -7
15 -18 22 -37 22 -26 0 -28 3 -28 40 0 28 -4 40 -14 40 -8 0 -16 -6 -19 -14
-5 -13 -44 -25 -96 -29 -29 -2 -37 15 -16 36 19 20 19 27 0 27 -8 0 -15 9 -15
19 0 14 5 18 20 14 13 -3 20 0 20 8 1 8 8 1 17 -16 14 -24 18 -26 21 -12z
m-342 16 c10 -17 -13 -36 -27 -22 -12 12 -4 33 11 33 5 0 12 -5 16 -11z m1602
-17 c3 -9 -2 -13 -14 -10 -9 1 -19 9 -22 16 -3 9 2 13 14 10 9 -1 19 -9 22
-16z m-2158 -12 c0 -11 5 -20 10 -20 6 0 10 -4 10 -10 0 -14 -29 -12 -45 3 -9
9 -10 19 -3 30 12 23 28 21 28 -3z m560 -30 c0 -5 -2 -10 -4 -10 -3 0 -8 5
-11 10 -3 6 -1 10 4 10 6 0 11 -4 11 -10z m86 -16 c8 -29 -7 -49 -30 -41 -10
4 -16 18 -16 37 0 40 36 43 46 4z m154 -9 c0 -27 9 -45 36 -75 28 -30 37 -49
38 -78 2 -39 28 -78 44 -68 11 6 3 67 -10 84 -8 9 -4 12 13 12 22 0 22 0 3 15
-19 14 -19 14 3 15 12 0 28 3 37 6 12 5 16 0 16 -18 0 -13 -4 -28 -9 -33 -5
-6 -11 -33 -15 -62 l-7 -52 33 -3 c28 -3 33 -7 35 -32 3 -44 10 -56 32 -56 11
0 27 -10 35 -22 15 -21 17 -21 33 -6 15 16 17 15 35 -8 11 -13 29 -24 41 -24
12 0 37 -16 56 -35 19 -19 38 -35 44 -35 5 0 7 -11 5 -24 -4 -18 -1 -23 10
-19 12 5 12 3 1 -14 -17 -28 -5 -55 23 -51 18 2 23 9 23 31 -1 15 5 27 12 27
17 0 17 26 -1 33 -7 3 -16 15 -19 26 -4 16 0 21 14 21 10 0 19 -7 19 -15 0 -8
7 -15 15 -15 11 0 12 -5 5 -24 -9 -25 3 -46 26 -46 17 0 23 21 13 48 -6 16 -5
22 6 22 8 0 15 -6 15 -14 0 -8 6 -17 13 -20 10 -5 10 -7 0 -12 -20 -9 -16 -28
14 -74 22 -33 29 -38 38 -27 9 12 12 12 24 0 9 -10 25 -13 45 -10 17 3 38 -1
46 -8 8 -7 31 -15 50 -19 19 -3 30 -3 24 2 -6 4 -14 18 -18 32 -3 14 -3 19 0
13 3 -7 12 -13 19 -13 7 0 15 -4 17 -10 4 -13 93 -18 93 -5 0 6 -10 10 -22 10
-13 -1 -23 3 -23 7 0 4 -9 8 -21 8 -18 0 -20 5 -18 53 3 47 1 52 -19 55 -19 3
-22 9 -22 53 0 37 4 49 15 49 8 0 15 2 15 4 0 2 3 11 6 20 5 13 -3 16 -46 16
-48 0 -51 2 -48 23 2 16 11 23 31 25 34 4 35 21 2 46 -14 10 -25 27 -25 37 0
25 21 24 27 -1 3 -11 9 -20 14 -20 5 0 9 -7 9 -15 0 -10 10 -15 28 -15 l27 1
-27 24 c-16 13 -28 31 -28 40 0 8 -4 15 -10 15 -15 0 -11 42 5 64 17 22 20 40
6 31 -17 -10 -21 12 -8 36 8 17 22 25 45 27 36 2 39 -3 16 -29 -19 -21 -11
-38 15 -36 12 1 17 7 14 18 -3 10 3 18 17 22 12 3 19 10 16 16 -4 6 -13 8 -21
4 -11 -4 -15 2 -15 21 0 14 5 26 10 26 6 0 10 -4 10 -10 0 -5 8 -10 18 -10 35
0 44 -14 27 -46 -8 -16 -15 -35 -15 -41 0 -7 -4 -13 -10 -13 -5 0 -10 -5 -10
-12 0 -6 8 -4 20 7 11 10 26 15 36 11 9 -3 27 3 42 14 18 14 28 17 32 9 6 -8
9 -8 14 0 10 15 41 14 54 -2 6 -7 29 -13 51 -12 48 1 68 15 22 15 -37 0 -39
23 -3 28 42 6 22 22 -28 22 -27 0 -50 5 -50 10 0 11 12 13 47 11 12 -1 26 6
31 16 10 16 12 15 37 -11 19 -21 32 -26 49 -22 21 5 23 3 18 -17 -3 -12 -12
-27 -20 -33 -8 -6 -12 -16 -8 -22 3 -6 2 -13 -4 -17 -30 -19 3 -46 59 -49 17
-1 27 -8 30 -24 4 -13 9 -23 14 -23 27 3 33 -1 32 -21 -1 -12 -7 -24 -13 -26
-19 -6 -14 -18 13 -30 21 -10 24 -16 20 -48 -5 -33 -3 -36 15 -31 21 5 65 -38
54 -54 -3 -5 9 -9 25 -9 40 0 71 -31 77 -77 4 -31 0 -41 -23 -60 -16 -12 -22
-22 -15 -23 16 0 6 -20 -10 -20 -7 0 -9 24 -5 73 3 39 3 61 0 47 -3 -14 -11
-32 -19 -41 -9 -10 -12 -27 -8 -46 3 -18 1 -33 -5 -37 -12 -8 -15 -53 -3 -58
14 -6 54 -70 47 -76 -3 -4 -10 0 -14 7 -6 10 -10 10 -16 1 -5 -8 -11 -7 -23 4
-10 8 -43 16 -75 19 -31 2 -60 7 -64 10 -3 4 -12 2 -18 -3 -7 -6 -23 -8 -36
-6 -13 3 -29 5 -35 5 -7 1 -14 9 -16 19 -4 15 -18 18 -81 21 -76 2 -89 -3 -65
-27 21 -21 -7 -30 -78 -27 -50 2 -64 0 -64 -11 0 -13 -42 -20 -92 -15 -12 2
-18 -5 -18 -20 0 -18 -4 -20 -27 -14 -16 4 -64 8 -109 9 -53 1 -87 6 -98 15
-13 11 -20 11 -28 3 -9 -9 -15 -9 -25 0 -19 15 -30 1 -16 -21 14 -22 5 -35
-12 -21 -15 13 -45 3 -45 -15 0 -7 -8 -19 -17 -26 -15 -12 -16 -12 -10 5 6 15
4 17 -10 11 -33 -12 -38 -10 -41 18 -4 34 -20 35 -28 2 -3 -14 -12 -25 -18
-25 -7 0 -19 -11 -26 -25 -17 -31 -27 -32 -41 -1 -11 24 -45 41 -51 25 -2 -4
-20 -4 -40 0 -49 11 -74 -5 -64 -42 4 -19 1 -32 -11 -45 -10 -9 -32 -35 -50
-56 -38 -47 -66 -45 -56 5 6 29 5 31 -18 23 -13 -4 -36 -7 -51 -6 -24 2 -28
-2 -28 -23 0 -22 -4 -25 -38 -25 -34 0 -39 3 -51 35 -7 19 -24 41 -38 49 l-26
13 33 7 c21 4 36 2 40 -5 4 -6 10 -2 13 11 4 16 11 20 26 15 13 -4 23 0 30 12
10 17 10 17 11 1 0 -19 32 -24 64 -12 25 10 18 27 -21 52 -33 21 -37 22 -59 7
-36 -23 -86 -19 -107 10 -18 25 -18 25 11 25 15 0 37 7 48 15 10 8 27 15 37
15 22 0 68 50 62 68 -2 6 2 12 10 12 23 0 18 16 -15 43 -35 30 -37 37 -9 37
27 0 59 18 59 33 0 7 -25 21 -55 32 -59 19 -64 25 -40 45 13 10 15 9 15 -9 0
-17 6 -21 36 -21 32 0 35 2 28 23 -4 12 -8 33 -9 45 -2 38 -49 58 -58 25 -3
-10 -5 1 -6 25 -1 33 -5 42 -18 42 -15 1 -15 3 5 19 12 11 22 24 22 29 0 6 6
13 13 16 10 5 10 7 0 12 -7 3 -13 13 -13 22 1 15 2 15 15 -1 7 -10 21 -17 30
-15 14 3 14 5 -1 27 -9 12 -31 29 -48 37 -17 7 -23 13 -14 14 17 0 35 51 24
69 -4 5 2 11 11 14 15 3 13 6 -9 17 -19 9 -28 21 -28 37 0 12 -4 23 -10 23 -5
0 -10 18 -10 40 0 22 5 40 10 40 6 0 10 -16 10 -35z m1220 20 c0 -2 -7 -5 -15
-9 -9 -3 -15 0 -15 9 0 9 6 12 15 9 8 -4 15 -7 15 -9z m-1328 -37 c-9 -9 -12
-7 -12 12 0 19 3 21 12 12 9 -9 9 -15 0 -24z m1563 2 c3 -5 -1 -10 -9 -10 -9
0 -16 5 -16 10 0 6 4 10 9 10 6 0 13 -4 16 -10z m-275 -10 c0 -5 -4 -10 -10
-10 -5 0 -10 5 -10 10 0 6 5 10 10 10 6 0 10 -4 10 -10z m-1585 -10 c3 -5 1
-10 -4 -10 -6 0 -11 5 -11 10 0 6 2 10 4 10 3 0 8 -4 11 -10z m3175 -41 c0
-16 -19 -9 -30 10 -17 33 -11 48 10 22 11 -13 20 -27 20 -32z m-1630 25 c0 -8
-32 -33 -42 -34 -5 0 -8 9 -8 20 0 15 7 20 25 20 14 0 25 -3 25 -6z m-1200
-34 c0 -5 -4 -10 -10 -10 -5 0 -10 5 -10 10 0 6 5 10 10 10 6 0 10 -4 10 -10z
m2820 -73 c0 -5 -7 -4 -15 3 -8 7 -15 20 -15 29 1 13 3 13 15 -3 8 -11 15 -24
15 -29z m-2534 -18 c16 -17 16 -22 4 -29 -21 -14 -27 -12 -34 8 -3 9 -9 23
-12 30 -9 20 21 14 42 -9z m2639 -61 c10 -59 -7 -69 -22 -13 -7 28 -13 61 -12
75 l0 25 14 -25 c7 -14 17 -42 20 -62z m-2979 35 c-11 -11 -17 4 -9 23 7 18 8
18 11 1 2 -10 1 -21 -2 -24z m1804 27 c0 -5 -7 -10 -16 -10 -8 0 -12 5 -9 10
3 6 10 10 16 10 5 0 9 -4 9 -10z m-1830 -20 c0 -5 -4 -10 -10 -10 -5 0 -10 -9
-10 -20 0 -25 35 -27 60 -5 15 14 18 14 30 0 11 -13 10 -19 -5 -35 -13 -15
-21 -17 -26 -9 -4 7 -14 9 -25 4 -18 -8 -18 -8 0 -13 14 -3 16 -6 6 -12 -14
-8 -40 10 -40 28 0 5 -7 15 -15 22 -8 7 -15 19 -15 26 0 8 7 14 15 14 8 0 15
5 15 10 0 6 5 10 10 10 6 0 10 -4 10 -10z m595 -10 c-3 -5 -14 -10 -23 -9 -14
0 -13 2 3 9 27 11 27 11 20 0z m-1825 -50 c0 -5 -10 -12 -21 -15 -15 -5 -18
-10 -9 -15 8 -5 5 -9 -9 -13 -27 -7 -36 8 -16 25 9 7 21 18 28 24 13 12 27 9
27 -6z m3046 -19 c8 7 14 7 14 1 0 -12 -26 -23 -34 -15 -3 4 -5 13 -5 22 1 12
2 12 6 -2 4 -14 8 -16 19 -6z m-2409 -153 c-2 -13 -4 -3 -4 22 0 25 2 35 4 23
2 -13 2 -33 0 -45z m3600 -54 c-7 -101 -15 -131 -28 -98 -15 37 -10 161 7 178
8 9 18 16 21 16 3 0 3 -43 0 -96z m-3887 76 c0 -5 -4 -10 -9 -10 -6 0 -13 5
-16 10 -3 6 1 10 9 10 9 0 16 -4 16 -10z m390 0 c0 -5 -4 -10 -10 -10 -5 0
-10 5 -10 10 0 6 5 10 10 10 6 0 10 -4 10 -10z m2330 0 c0 -5 -4 -10 -10 -10
-5 0 -10 5 -10 10 0 6 5 10 10 10 6 0 10 -4 10 -10z m-1200 -22 c0 -19 -2 -20
-10 -8 -13 19 -13 30 0 30 6 0 10 -10 10 -22z m267 -2 c4 -8 19 -16 33 -19 16
-3 10 -5 -17 -6 -37 -1 -43 2 -43 19 0 23 15 26 27 6z m-1816 -16 c12 0 19 -7
19 -19 0 -31 -17 -33 -39 -5 l-20 26 2 -81 c1 -57 6 -81 15 -81 7 0 12 15 12
40 0 33 3 40 19 40 11 0 21 4 23 9 2 5 12 3 23 -5 19 -14 19 -15 -3 -20 -32
-9 -27 -19 11 -19 25 0 31 4 29 18 -2 14 6 17 50 18 l53 1 -42 11 c-40 9 -59
27 -30 27 6 0 19 5 27 10 13 9 13 11 0 20 -11 7 -3 9 28 8 50 -2 77 -28 88
-84 6 -31 10 -34 40 -34 18 0 35 -4 39 -10 3 -5 12 -7 20 -3 9 3 21 0 29 -6 7
-6 21 -9 30 -5 12 5 18 -1 22 -25 4 -18 15 -36 25 -42 11 -5 19 -19 19 -29 0
-14 7 -20 21 -20 27 0 79 -56 78 -84 -2 -20 -2 -20 -6 2 -2 12 -11 22 -20 22
-12 0 -13 -8 -8 -40 6 -35 4 -40 -12 -40 -11 0 -25 -6 -32 -12 -11 -11 -12 -9
-6 10 6 22 5 23 -14 13 -11 -6 -33 -8 -47 -5 -18 5 -25 3 -20 -4 8 -13 -41 -9
-56 6 -11 11 -48 4 -48 -9 0 -11 -154 0 -158 12 -6 16 -52 10 -52 -6 0 -8 -8
-15 -17 -15 -14 0 -15 2 -4 9 9 6 10 11 2 15 -6 4 -25 -3 -43 -15 -17 -13 -33
-19 -35 -13 -12 35 -20 37 -62 21 -45 -19 -101 -13 -101 10 0 8 -5 11 -10 8
-6 -4 -8 -11 -5 -16 4 -5 1 -9 -4 -9 -6 0 -11 7 -11 16 0 12 -7 14 -32 8 -55
-12 -108 -8 -108 7 0 6 12 10 28 9 60 -4 70 7 25 28 -18 8 -30 9 -37 2 -5 -5
-18 -10 -28 -10 -9 0 -25 -8 -35 -18 -12 -12 -36 -19 -73 -21 -30 -1 -59 -6
-64 -12 -15 -14 -37 -11 -51 7 -13 19 -55 11 -55 -11 0 -7 -11 -16 -25 -19
-14 -4 -25 -12 -25 -19 0 -16 -36 -47 -54 -47 -7 0 -25 -9 -39 -20 -14 -11
-30 -20 -36 -20 -6 0 -16 -9 -23 -20 -7 -11 -18 -20 -25 -20 -7 0 -13 -9 -13
-20 0 -11 -16 -30 -37 -45 -21 -14 -35 -25 -31 -25 3 0 -27 -32 -68 -72 -73
-70 -91 -97 -56 -83 22 9 91 17 73 9 -7 -4 -21 -13 -30 -21 -9 -8 -31 -25 -49
-38 l-32 -22 47 -13 c48 -13 113 -49 113 -62 0 -5 -15 -8 -32 -8 -30 -1 -31
-2 -15 -14 17 -13 16 -14 -3 -19 -26 -7 -26 -37 0 -44 11 -3 20 -11 20 -18 0
-7 6 -15 13 -18 6 -2 8 -8 4 -13 -4 -4 -17 -3 -27 4 -27 17 -32 15 -28 -10 2
-15 11 -24 24 -26 16 -2 20 -8 17 -23 -3 -10 -11 -19 -19 -19 -19 0 -29 -21
-14 -30 15 -9 41 -2 52 14 4 6 9 4 14 -7 3 -9 16 -17 28 -18 17 0 16 -3 -8
-11 -22 -8 -31 -8 -34 1 -6 17 -22 13 -22 -7 0 -9 -12 -30 -26 -45 -27 -29
-26 -61 1 -51 10 4 15 0 15 -15 0 -31 -3 -36 -22 -34 -10 2 -18 -1 -18 -6 0
-6 -9 -13 -20 -16 -24 -8 -28 -55 -5 -55 21 0 19 -9 -7 -30 l-22 -17 25 -31
c13 -17 29 -31 36 -31 6 -1 24 -11 40 -24 36 -30 111 -62 143 -62 20 0 26 -6
28 -27 2 -19 9 -28 20 -27 11 0 12 3 5 6 -7 2 -13 12 -13 20 0 10 6 13 16 9 9
-3 27 -6 40 -6 19 0 24 -5 24 -25 0 -15 -6 -25 -15 -25 -12 0 -13 -4 -3 -25 6
-14 19 -25 29 -25 12 0 21 -10 25 -25 8 -32 33 -46 57 -33 10 5 31 6 45 3 43
-12 96 -11 109 2 7 6 18 13 25 16 9 3 7 9 -7 21 -19 15 -19 15 16 16 23 0 39
-5 42 -14 4 -10 1 -13 -9 -9 -25 9 -15 -12 14 -29 15 -9 47 -17 72 -17 72 -2
89 -5 84 -13 -3 -4 9 -8 25 -8 21 0 31 -5 31 -15 0 -19 1 -19 54 7 32 15 43
25 36 33 -7 8 2 16 30 25 22 7 40 19 40 27 0 7 5 13 11 13 7 0 8 -11 4 -30 -4
-19 -3 -30 4 -30 6 0 11 -4 11 -10 0 -5 -8 -10 -17 -10 -30 0 -93 -26 -111
-45 -15 -15 -15 -17 -1 -12 9 3 42 8 74 12 44 6 69 16 102 41 44 34 70 44 57
23 -4 -7 -1 -10 7 -7 8 3 14 13 14 24 0 12 8 20 20 21 69 9 87 16 82 34 -3 12
0 16 9 12 9 -3 14 2 14 12 0 13 6 16 22 12 16 -5 30 3 55 31 31 33 35 35 44
20 13 -24 22 -23 51 7 l26 25 16 -25 c10 -15 12 -25 5 -25 -7 0 -9 -13 -4 -39
7 -42 -6 -55 -55 -56 -41 0 -38 -20 3 -23 42 -4 47 -26 6 -29 -13 0 -32 -1
-41 -2 -11 -1 -15 -6 -12 -16 4 -8 10 -12 15 -9 5 3 9 -2 9 -11 0 -10 7 -33
16 -52 15 -30 21 -34 42 -28 58 15 104 70 73 89 -12 8 2 59 17 64 7 2 12 -2
12 -8 0 -10 3 -10 15 0 11 9 12 17 5 30 -15 27 -12 50 5 50 8 0 15 -7 15 -15
0 -18 12 -19 28 -3 17 17 16 -25 0 -52 -10 -15 -10 -22 0 -32 6 -6 12 -20 12
-30 0 -16 5 -18 37 -12 45 9 56 19 72 67 13 37 24 46 36 27 10 -16 38 18 31
37 -6 14 -8 14 -27 -2 -18 -18 -21 -18 -36 -2 -16 16 -16 18 -1 34 14 13 20
14 32 3 13 -10 16 -10 16 4 0 9 -4 16 -10 16 -5 0 -10 5 -10 11 0 13 39 2 61
-17 16 -14 51 -19 62 -8 3 4 -1 16 -9 29 -13 20 -13 23 1 28 8 4 15 16 15 27
0 32 18 60 35 54 8 -4 23 -3 33 1 51 22 84 -1 45 -31 -17 -13 -17 -13 2 -15
11 -1 28 0 39 1 20 2 66 -36 66 -55 0 -23 32 -76 55 -91 12 -8 25 -28 29 -44
3 -19 15 -35 31 -42 17 -7 29 -24 35 -50 6 -21 15 -38 20 -38 15 0 12 -44 -5
-66 -21 -28 -19 -33 25 -50 21 -9 42 -24 45 -33 3 -9 20 -32 39 -50 l34 -33
-16 -43 c-9 -24 -26 -49 -39 -56 -15 -8 -23 -22 -23 -38 0 -25 -34 -51 -66
-51 -7 0 -14 6 -17 13 -3 9 -13 7 -38 -7 -19 -11 -37 -24 -41 -30 -4 -6 -12
-5 -22 3 -12 10 -19 11 -30 2 -7 -6 -20 -9 -29 -5 -10 3 -17 -2 -21 -14 -8
-25 -42 -38 -85 -34 -26 3 -31 6 -20 13 9 6 -6 8 -46 7 -33 -1 -70 4 -82 10
-12 7 -49 12 -82 12 -33 0 -63 5 -66 10 -10 16 -38 11 -65 -10 -14 -11 -34
-20 -46 -20 -12 0 -31 -9 -44 -20 -13 -11 -27 -20 -32 -20 -5 0 -19 -10 -31
-23 -37 -38 -135 -107 -152 -107 -9 0 -28 -11 -43 -25 -15 -14 -30 -25 -34
-25 -9 0 -22 79 -19 120 6 89 100 219 186 259 17 7 38 17 47 22 10 5 29 9 44
9 14 0 32 7 40 15 12 11 20 12 35 5 20 -11 22 -9 46 67 10 29 9 31 -11 30 -49
-2 -86 4 -86 14 0 5 4 8 9 5 10 -7 21 16 21 43 0 10 -11 24 -26 31 -23 13 -27
12 -49 -16 -13 -16 -24 -31 -25 -34 0 -6 -55 -35 -82 -44 -12 -4 -18 -16 -18
-38 0 -34 -8 -42 -102 -93 -21 -11 -39 -24 -40 -30 -2 -5 -11 -9 -21 -8 -22 3
-33 -22 -18 -41 13 -15 5 -26 -21 -26 -12 0 -18 -7 -18 -21 0 -11 -4 -17 -10
-14 -15 9 -40 -14 -40 -36 0 -11 -6 -19 -14 -19 -9 0 -12 7 -9 20 3 11 1 20
-5 20 -16 0 -20 -23 -9 -48 14 -30 -5 -51 -28 -32 -10 8 -15 9 -15 1 0 -6 5
-11 10 -11 19 0 10 -18 -12 -23 -19 -5 -20 -8 -7 -23 11 -13 11 -18 2 -21 -7
-3 -13 -11 -13 -19 0 -11 9 -14 38 -9 20 3 30 2 22 -2 -8 -3 -24 -18 -35 -32
-11 -14 -28 -34 -37 -43 -10 -10 -13 -20 -8 -23 4 -3 11 1 13 7 4 9 6 7 6 -3
1 -9 -8 -28 -19 -42 -24 -30 -26 -67 -5 -67 8 0 15 -4 15 -10 0 -5 -11 -10
-25 -10 -16 0 -25 -6 -25 -16 0 -11 -6 -15 -20 -11 -13 3 -21 -1 -26 -15 -8
-26 3 -35 26 -20 11 6 26 9 34 6 9 -3 20 3 28 15 7 12 22 21 34 21 12 0 25 7
28 16 7 19 31 13 31 -7 1 -41 37 -52 56 -17 10 18 9 20 -5 15 -22 -9 -20 -4
13 32 18 20 35 29 45 25 26 -10 58 -71 51 -95 -6 -19 -4 -20 24 -14 29 6 36 1
33 -26 -1 -3 14 -6 31 -6 60 0 159 -20 169 -34 7 -11 11 -11 15 -1 7 17 60 15
67 -3 3 -8 17 -15 31 -15 18 0 25 -5 25 -20 0 -11 -5 -20 -10 -20 -6 0 -15
-11 -20 -25 -12 -32 -26 -32 -44 3 l-15 27 -1 -26 c0 -14 5 -30 11 -36 12 -12
-20 -52 -58 -71 -17 -9 -22 -9 -27 3 -4 11 2 15 19 15 18 0 25 5 25 20 0 11 5
20 12 20 9 0 9 3 1 11 -8 8 -17 7 -33 -4 -12 -9 -28 -13 -35 -11 -7 3 -17 -7
-23 -24 -8 -23 -19 -32 -44 -37 -41 -9 -58 -22 -58 -46 0 -11 -4 -19 -10 -19
-5 0 -10 5 -10 11 0 6 -18 -8 -40 -31 -22 -23 -40 -37 -40 -31 0 23 -56 -3
-89 -41 -28 -32 -36 -36 -49 -26 -12 10 -16 10 -19 1 -3 -7 -11 -13 -19 -13
-8 0 -28 -7 -45 -15 -32 -17 -69 -7 -69 20 0 7 -6 15 -12 18 -10 3 -10 9 0 26
7 12 10 26 6 32 -3 5 0 16 6 24 7 8 10 23 8 33 -3 12 2 24 14 31 16 10 17 15
7 27 -8 10 -15 11 -24 4 -6 -5 -15 -7 -18 -3 -13 12 -7 23 13 23 11 0 20 6 20
14 0 24 -16 27 -35 6 -10 -11 -26 -20 -35 -20 -10 0 -24 -10 -33 -22 -11 -17
-18 -20 -26 -12 -12 11 -5 44 9 44 4 0 17 9 30 20 l23 20 -23 25 c-13 14 -20
31 -17 40 9 23 57 37 100 31 22 -4 37 -2 37 4 0 5 6 10 13 10 8 0 19 12 26 27
10 21 9 29 -3 41 -18 18 -84 8 -93 -15 -5 -11 -16 -14 -47 -9 -29 3 -35 2 -21
-4 20 -9 20 -9 -2 -15 -12 -4 -33 -25 -47 -46 -26 -38 -40 -47 -50 -31 -3 5
-20 7 -38 5 -24 -3 -29 -2 -19 6 12 8 10 11 -12 16 -20 5 -27 13 -27 31 0 25
-22 32 -48 16 -9 -6 -5 -12 14 -21 21 -9 24 -14 14 -26 -7 -8 -9 -15 -4 -15 4
0 -5 -13 -21 -30 -21 -22 -32 -27 -45 -20 -13 7 -22 5 -30 -5 -17 -21 -42 0
-34 29 5 20 2 21 -41 18 -39 -4 -45 -2 -45 16 0 11 8 22 20 25 12 3 20 14 20
26 0 16 6 21 25 21 23 0 25 -4 25 -40 0 -29 4 -40 15 -40 11 0 15 11 15 39 0
33 4 40 23 44 12 2 3 5 -20 6 -31 1 -43 5 -43 16 0 11 -11 15 -40 15 -38 0
-40 1 -40 33 0 22 -3 28 -9 18 -5 -7 -6 -21 -4 -31 3 -10 -1 -21 -7 -25 -16
-10 -101 15 -107 32 -7 18 -33 17 -33 -2 0 -25 -24 -17 -53 17 l-28 31 -24
-50 c-14 -27 -31 -56 -40 -63 -8 -7 -15 -19 -15 -27 0 -8 -4 -11 -10 -8 -6 3
-10 -5 -10 -18 0 -17 -7 -26 -22 -30 -31 -8 -33 -2 -9 22 30 30 26 40 -15 38
-40 -3 -53 -18 -55 -62 0 -17 -3 -23 -6 -15 -3 8 -12 19 -19 23 -8 4 -14 18
-14 30 -1 21 -1 21 -14 4 -9 -12 -16 -14 -21 -8 -10 17 -25 13 -25 -6 0 -10 7
-31 15 -47 22 -42 19 -51 -22 -65 -21 -8 -46 -20 -55 -29 -10 -8 -18 -11 -19
-6 -1 5 -2 18 -3 28 0 12 -9 20 -23 21 -13 1 -26 5 -29 8 -4 3 -16 1 -27 -4
-18 -10 -19 -9 -14 18 3 16 2 35 -4 43 -7 12 -9 10 -9 -9 0 -17 -4 -22 -16
-17 -9 3 -21 3 -27 -1 -7 -4 -19 -8 -27 -8 -11 0 -15 -12 -15 -44 0 -51 -21
-68 -30 -24 -3 15 -10 42 -15 58 -5 17 -14 59 -20 95 -7 35 -16 73 -22 84 -8
15 -8 21 0 24 9 3 9 9 1 23 -5 11 -12 39 -15 62 -3 23 -13 98 -23 167 -15 106
-17 158 -10 340 4 118 10 247 13 285 20 259 38 459 47 515 5 36 12 85 14 110
4 37 16 97 38 185 1 6 5 15 8 20 3 6 12 39 19 75 8 36 20 71 27 78 7 7 13 26
13 41 0 16 7 34 15 41 8 7 15 19 15 26 0 23 54 124 66 124 6 0 14 12 17 28 11
49 44 92 72 92 22 0 26 4 24 28 -4 50 0 64 16 58 21 -8 45 3 45 20 0 8 4 14 8
14 5 0 14 11 20 25 6 14 18 25 26 25 8 0 36 21 60 46 29 29 51 44 61 40 8 -3
15 -1 15 4 0 15 44 54 83 72 35 17 67 15 67 -3 0 -15 89 -10 122 7 25 13 32
14 40 2 8 -10 9 -10 5 2 -3 9 1 29 7 45 l13 30 17 -32 c19 -38 36 -43 36 -11
0 20 1 20 18 5 24 -22 39 -21 54 3 7 11 21 20 30 20 16 0 23 11 19 33 0 4 3 7
8 7 5 0 11 -14 15 -32 5 -27 18 -35 18 -11 0 20 21 32 50 26 20 -4 33 -1 38 8
6 9 31 14 79 14 67 0 71 1 71 23 0 17 -6 22 -27 23 l-28 1 28 10 c26 9 38 38
16 38 -8 0 -7 5 2 16 17 21 -5 36 -43 30 -16 -3 -28 -1 -28 4 0 9 74 19 98 13
8 -2 22 -3 33 -3z m989 -7 c-1 -26 -35 -67 -49 -59 -18 12 -13 37 10 43 12 3
18 11 15 19 -3 8 1 14 9 14 8 0 15 -8 15 -17z m-880 -3 c0 -5 -2 -10 -4 -10
-3 0 -8 5 -11 10 -3 6 -1 10 4 10 6 0 11 -4 11 -10z m183 -4 c6 -15 -1 -26
-15 -26 -4 0 -8 9 -8 20 0 23 15 27 23 6z m617 10 c0 -2 -7 -9 -15 -16 -12
-10 -15 -10 -15 4 0 9 7 16 15 16 8 0 15 -2 15 -4z m-1025 -46 c3 -5 2 -10 -4
-10 -5 0 -13 5 -16 10 -3 6 -2 10 4 10 5 0 13 -4 16 -10z m1105 -50 c0 -17 7
-20 40 -20 29 0 40 -4 40 -15 0 -10 -10 -15 -32 -15 -18 0 -43 -3 -55 -6 -21
-6 -23 -3 -23 35 0 30 4 41 15 41 8 0 15 -9 15 -20z m-1150 -8 c0 -13 -12 -22
-22 -16 -10 6 -1 24 13 24 5 0 9 -4 9 -8z m-123 -44 c-3 -8 -6 -5 -6 6 -1 11
2 17 5 13 3 -3 4 -12 1 -19z m968 2 c3 -5 1 -10 -4 -10 -6 0 -11 5 -11 10 0 6
2 10 4 10 3 0 8 -4 11 -10z m5 -75 c10 -12 10 -15 -4 -15 -9 0 -16 7 -16 15 0
8 2 15 4 15 2 0 9 -7 16 -15z m140 0 c0 -9 -9 -15 -21 -15 -18 0 -19 2 -9 15
7 8 16 15 21 15 5 0 9 -7 9 -15z m175 -5 c3 -5 1 -10 -4 -10 -6 0 -11 5 -11
10 0 6 2 10 4 10 3 0 8 -4 11 -10z m65 0 c0 -5 -5 -10 -11 -10 -5 0 -7 5 -4
10 3 6 8 10 11 10 2 0 4 -4 4 -10z m-320 -60 c0 -37 4 -50 14 -50 8 0 18 5 21
10 3 6 24 10 46 10 l41 0 -7 40 c-7 44 7 54 31 23 12 -16 13 -17 14 -1 0 15 3
15 40 1 31 -12 40 -21 40 -40 0 -20 -5 -23 -40 -23 -22 0 -40 -4 -40 -10 0 -5
-18 -10 -40 -10 -27 0 -40 -4 -40 -14 0 -7 -10 -16 -22 -19 -13 -2 -31 -8 -40
-12 -14 -5 -18 -2 -18 15 0 12 -10 30 -22 40 -20 16 -21 20 -8 35 11 13 11 21
2 36 -11 16 -9 19 8 19 17 0 20 -7 20 -50z m350 -280 c0 -5 -2 -10 -4 -10 -3
0 -8 5 -11 10 -3 6 -1 10 4 10 6 0 11 -4 11 -10z m-2065 -180 c-9 -14 -45 -32
-45 -23 0 7 24 22 48 32 2 0 0 -3 -3 -9z m15 -105 c0 -2 -10 -10 -22 -16 -21
-11 -22 -11 -9 4 13 16 31 23 31 12z m531 -65 c19 -11 27 -40 10 -40 -23 0
-41 14 -41 31 0 22 4 23 31 9z m154 -30 c3 -5 28 -10 55 -10 26 0 55 -3 64 -6
23 -9 20 -51 -4 -59 -11 -4 -18 -10 -15 -15 7 -12 -60 -3 -86 11 -12 6 -27 8
-34 5 -8 -3 -17 0 -21 5 -3 6 -15 9 -25 6 -19 -5 -44 15 -32 26 3 4 20 7 36 7
20 0 30 6 34 20 6 22 18 26 28 10z m195 0 c0 -5 -7 -10 -16 -10 -8 0 -12 5 -9
10 3 6 10 10 16 10 5 0 9 -4 9 -10z m16 -97 c-2 -14 -12 -18 -39 -18 -29 0
-37 4 -37 18 0 13 9 17 39 17 32 0 39 -3 37 -17z m49 6 c12 -19 -5 -23 -22 -6
-16 16 -16 17 -1 17 9 0 20 -5 23 -11z m-155 -29 c0 -4 -13 -10 -30 -12 -27
-4 -37 1 -26 13 8 8 56 7 56 -1z m-90 -9 c0 -5 -9 -11 -20 -14 -22 -6 -28 8
-7 16 19 8 27 8 27 -2z m1289 -22 c19 -11 43 -18 54 -15 11 2 27 -2 35 -11 11
-10 17 -12 20 -4 7 22 22 10 38 -29 9 -22 23 -40 31 -40 8 0 11 -5 7 -12 -4
-7 -8 -22 -9 -33 0 -12 -8 -30 -18 -39 -17 -18 -21 -28 -18 -58 1 -10 -4 -18
-13 -18 -9 0 -16 -9 -16 -20 0 -23 -2 -23 -50 -6 -32 12 -36 11 -45 -7 -16
-32 -64 -54 -105 -47 l-35 5 -3 68 c-2 55 -6 66 -16 58 -8 -7 -23 -7 -44 -1
-24 6 -36 5 -46 -6 -15 -14 -36 -19 -36 -8 0 4 8 13 18 21 11 9 13 16 6 19
-19 8 15 84 38 84 11 0 18 7 18 19 0 11 5 23 10 26 6 3 10 14 10 24 0 11 11
23 28 29 67 26 99 27 141 1z m-149 -244 c0 -8 -7 -15 -15 -15 -9 0 -12 6 -9
15 4 8 10 15 15 15 5 0 9 -7 9 -15z m-276 -11 c18 -7 12 -24 -10 -24 -8 0 -14
7 -14 15 0 17 2 18 24 9z m164 -31 c6 -15 12 -33 12 -40 0 -7 8 -13 18 -13 10
0 13 -3 6 -8 -6 -4 -17 -20 -25 -37 -12 -24 -22 -31 -56 -36 -24 -3 -47 -1
-53 5 -13 13 -13 63 0 71 6 3 10 17 10 31 0 19 5 24 25 24 14 0 28 7 31 15 9
22 17 18 32 -12z m-204 -99 c-10 -19 -23 -34 -29 -34 -6 0 -16 -13 -22 -30 -6
-17 -23 -34 -37 -40 -14 -5 -26 -14 -26 -20 0 -13 -37 -13 -45 0 -4 6 7 13 25
16 20 5 30 12 29 23 -4 29 13 51 37 51 17 0 27 8 33 24 5 13 17 26 25 29 9 4
16 14 17 24 0 12 2 14 6 5 3 -8 -3 -29 -13 -48z m469 39 c-7 -2 -19 -2 -25 0
-7 3 -2 5 12 5 14 0 19 -2 13 -5z m-5548 -33 c3 -5 -1 -25 -9 -45 -17 -40 -51
-48 -61 -14 -11 35 52 89 70 59z m5559 1 c3 -5 -1 -14 -9 -21 -12 -10 -18 -10
-30 0 -18 15 -11 30 15 30 10 0 21 -4 24 -9z m586 -36 c0 -14 8 -29 19 -34 23
-13 35 -51 15 -51 -8 0 -14 9 -14 20 0 11 -6 20 -14 20 -22 0 -35 23 -29 52 6
33 23 27 23 -7z m1495 25 c3 -5 24 -10 46 -10 49 0 71 -17 55 -42 -8 -13 -8
-23 2 -38 7 -12 8 -20 2 -20 -5 0 -10 -5 -10 -10 0 -7 6 -7 19 0 17 9 20 5 26
-30 4 -25 12 -40 21 -40 8 0 14 -10 14 -26 0 -22 2 -24 15 -14 12 10 16 9 21
-4 3 -9 3 -23 0 -32 -3 -8 -1 -24 4 -35 8 -15 15 -17 28 -10 11 6 24 6 32 1
12 -7 12 -10 -3 -16 -11 -4 -17 -17 -17 -41 l0 -35 47 3 c39 3 48 0 51 -14 3
-12 -3 -17 -22 -17 -14 0 -26 6 -26 13 0 8 -3 9 -8 1 -4 -6 -22 -11 -40 -12
-17 0 -44 -10 -58 -21 -19 -15 -41 -21 -75 -21 -27 0 -49 -4 -49 -10 0 -5 5
-10 10 -10 13 0 13 -46 0 -71 -8 -14 -6 -25 7 -46 13 -19 14 -28 5 -31 -6 -2
-12 -10 -12 -18 0 -8 -7 -14 -15 -14 -9 0 -20 -11 -25 -25 -5 -14 -14 -25 -20
-25 -16 0 -12 47 5 54 8 3 15 12 15 21 0 8 7 15 15 15 17 0 18 2 9 24 -3 9
-13 16 -21 16 -9 0 -13 -6 -9 -15 7 -20 1 -19 -20 2 -13 13 -19 14 -22 5 -2
-6 -14 -12 -27 -12 -36 0 -40 -18 -10 -42 18 -14 23 -24 16 -31 -7 -7 -15 -6
-26 3 -13 10 -15 9 -15 -9 0 -13 6 -21 16 -21 9 0 18 -9 21 -20 6 -23 14 -25
31 -8 9 9 12 8 12 -5 0 -9 -7 -17 -16 -17 -13 0 -15 -7 -11 -29 5 -25 1 -34
-24 -55 l-30 -26 27 -23 c15 -14 23 -26 17 -30 -5 -3 -21 4 -33 16 -17 15 -22
16 -18 5 6 -15 -8 -38 -24 -38 -4 0 -11 18 -14 40 -4 24 -12 40 -20 40 -14 0
-18 12 -15 38 2 14 -15 16 -24 3 -3 -6 -25 -9 -48 -7 -23 1 -53 -1 -67 -5 -20
-6 -17 -7 18 -8 23 -1 42 -6 42 -12 0 -6 10 -19 23 -30 17 -14 19 -21 9 -27
-7 -5 -14 -30 -15 -56 -2 -43 -17 -61 -32 -36 -3 6 -1 10 4 10 6 0 11 8 11 18
-1 13 -8 9 -30 -17 -15 -18 -33 -30 -39 -27 -6 4 -11 2 -11 -3 0 -15 -34 -48
-57 -55 -19 -6 -43 30 -43 65 0 13 -10 19 -32 21 -33 4 -33 4 10 12 31 7 42
13 42 27 0 19 -7 21 -77 23 -11 1 -25 4 -29 9 -4 4 -14 7 -22 7 -11 0 -13 -8
-8 -35 6 -28 4 -35 -9 -35 -8 0 -15 7 -15 15 0 8 -7 15 -15 15 -8 0 -15 8 -15
19 0 10 -7 24 -15 31 -10 9 -15 9 -15 1 0 -6 -7 -11 -15 -11 -11 0 -15 -11
-14 -42 1 -37 2 -39 9 -18 8 24 8 24 9 -7 1 -35 15 -50 34 -36 21 16 87 3 87
-16 0 -6 -16 -18 -36 -27 -26 -13 -38 -14 -47 -5 -18 18 -28 13 -21 -14 4 -18
1 -27 -10 -31 -9 -3 -16 -16 -17 -28 0 -20 -1 -20 -10 2 -9 23 -29 22 -29 -1
0 -7 -9 -18 -20 -25 -23 -14 -26 -42 -7 -61 10 -11 9 -13 -5 -8 -12 4 -15 2
-12 -8 4 -9 -4 -15 -23 -17 -28 -3 -30 -8 -19 -57 1 -8 11 -20 22 -25 22 -13
34 -27 33 -41 0 -5 -3 -4 -6 3 -3 7 -24 12 -53 12 -33 0 -52 5 -57 15 -11 19
-107 26 -108 7 0 -7 -7 -17 -15 -22 -13 -9 -13 -11 0 -20 8 -5 23 -10 33 -10
9 0 17 -4 17 -9 0 -5 9 -11 20 -13 31 -5 28 -22 -6 -32 -53 -15 -59 -22 -62
-65 -2 -30 -8 -41 -19 -41 -15 0 -14 -2 0 -18 20 -22 23 -62 5 -62 -7 0 -23
-18 -36 -40 -22 -39 -44 -50 -58 -29 -3 6 -17 9 -31 6 -37 -7 -110 33 -98 54
3 3 -13 12 -35 19 -30 10 -40 19 -42 39 -3 27 -5 28 -51 17 -23 -5 -29 -2 -37
19 -6 17 -14 23 -25 19 -23 -9 -65 34 -65 65 0 23 6 28 48 38 26 6 79 10 117
8 130 -4 178 45 176 181 -1 57 -6 80 -26 115 -41 71 -42 73 -54 102 -6 16 -16
25 -22 21 -8 -5 -8 -1 0 14 13 25 15 64 2 43 -6 -9 -10 -3 -14 20 -5 38 1 58
13 39 4 -7 13 -9 19 -6 18 12 12 36 -11 46 -18 7 -19 9 -5 9 12 1 17 9 17 30
0 17 -4 33 -10 36 -5 3 -10 2 -10 -3 0 -11 -39 -21 -58 -14 -7 2 -12 10 -12
18 0 8 -7 14 -15 14 -10 0 -15 10 -15 30 0 21 -4 30 -14 28 -15 -3 -66 50 -66
69 0 6 5 15 10 18 6 3 10 -3 10 -14 0 -18 6 -21 40 -21 22 0 40 -5 40 -10 0
-6 11 -3 25 6 14 9 25 26 25 38 0 11 7 34 15 50 19 36 19 46 0 46 -11 0 -15
11 -15 40 0 33 -3 40 -20 40 -17 0 -20 7 -20 40 0 38 2 40 29 40 48 0 83 -52
46 -67 -14 -5 -14 -8 1 -24 23 -25 36 -24 32 4 -2 14 2 22 12 22 19 0 26 -51
10 -70 -7 -8 -15 -14 -18 -13 -24 3 -19 -7 22 -47 26 -25 44 -49 41 -55 -3 -6
7 -18 24 -28 20 -11 31 -25 31 -39 0 -19 6 -23 29 -23 21 0 32 -6 36 -20 9
-29 29 -25 59 11 22 25 24 34 14 46 -10 13 -13 13 -24 -1 -19 -27 -25 32 -9
93 8 32 9 51 3 51 -5 0 -12 -8 -15 -19 -3 -13 -11 -17 -24 -14 -24 7 -25 20
-1 26 9 3 -5 4 -33 3 -31 0 -54 -7 -62 -16 -10 -13 -14 -13 -25 -1 -10 11 -10
14 0 18 6 3 12 11 12 19 0 23 28 28 56 9 22 -14 41 -16 122 -10 54 4 105 11
114 16 10 6 19 5 23 -1 8 -13 67 -8 72 7 2 6 -10 18 -26 26 -25 13 -32 13 -41
2 -18 -21 -40 -6 -40 26 0 27 3 29 40 29 22 0 40 -4 40 -10 0 -5 7 -10 15 -10
42 0 -2 37 -60 51 -28 6 -27 7 11 8 33 1 43 5 47 21 3 13 13 20 29 19 12 0 43
5 67 12 35 10 45 9 51 -1 10 -16 49 -16 118 0 43 11 62 23 110 71 31 32 64 59
72 59 8 0 22 18 31 39 12 28 29 46 58 60 23 12 41 26 41 31 0 6 9 10 20 10 11
0 23 7 27 16 3 8 12 13 19 10 7 -3 16 -1 19 4 8 13 22 13 30 0z m-2315 -39 c0
-13 -26 -32 -33 -24 -14 13 -6 33 13 33 11 0 20 -4 20 -9z m2690 -6 c0 -8 -4
-15 -10 -15 -5 0 -7 7 -4 15 4 8 8 15 10 15 2 0 4 -7 4 -15z m-2760 -16 c0
-11 -4 -18 -10 -14 -5 3 -7 12 -3 20 7 21 13 19 13 -6z m2786 -64 c-4 -14 0
-47 8 -73 9 -26 20 -101 27 -167 6 -66 15 -143 20 -171 6 -29 10 -71 10 -95 0
-24 2 -91 4 -149 2 -71 1 -94 -5 -70 -5 19 -6 38 -3 43 6 10 -17 89 -28 97
-12 8 -27 194 -18 204 5 6 8 21 8 35 -1 18 -3 21 -6 8 -4 -14 -8 -16 -19 -6
-17 14 -18 36 -3 41 9 3 9 9 0 25 -15 28 -15 133 0 133 8 0 8 4 2 13 -13 15
-24 108 -16 136 3 11 10 21 15 21 6 0 7 -11 4 -25z m-3516 5 c0 -5 -4 -10 -10
-10 -5 0 -10 5 -10 10 0 6 5 10 10 10 6 0 10 -4 10 -10z m3290 -12 c0 -13 -5
-30 -10 -38 -7 -11 -10 -5 -10 23 0 20 5 37 10 37 6 0 10 -10 10 -22z m-3405
-48 c-27 -12 -35 -12 -35 0 0 6 12 10 28 9 24 0 25 -1 7 -9z m773 -14 c-10
-10 -17 -11 -31 -2 -16 10 -16 11 5 17 30 8 41 1 26 -15z m58 -42 c-9 -8 -16
-20 -16 -25 0 -18 -28 -9 -33 12 -4 14 1 23 18 31 13 6 27 20 31 32 6 19 7 19
11 -7 3 -16 -2 -33 -11 -43z m-5506 40 c0 -8 -5 -12 -10 -9 -6 4 -8 11 -5 16
9 14 15 11 15 -7z m4410 -38 c-13 -13 -35 7 -25 24 5 8 11 8 21 -1 10 -8 12
-15 4 -23z m-90 -6 c0 -5 -18 -10 -40 -10 -22 0 -40 5 -40 10 0 6 18 10 40 10
22 0 40 -4 40 -10z m2197 -22 c-3 -7 -5 -2 -5 12 0 14 2 19 5 13 2 -7 2 -19 0
-25z m-2053 -15 c6 -15 8 -15 16 -3 8 12 10 11 10 -6 0 -26 -24 -38 -51 -24
-16 9 -17 14 -6 30 15 25 23 25 31 3z m2143 11 c-3 -3 -12 -4 -19 -1 -8 3 -5
6 6 6 11 1 17 -2 13 -5z m-2312 -13 c7 -12 -12 -24 -25 -16 -11 7 -4 25 10 25
5 0 11 -4 15 -9z m585 -7 c0 -9 -5 -14 -12 -12 -18 6 -21 28 -4 28 9 0 16 -7
16 -16z m1680 -4 c0 -11 -4 -20 -10 -20 -5 0 -10 9 -10 20 0 11 5 20 10 20 6
0 10 -9 10 -20z m1720 -11 c0 -17 -4 -28 -10 -24 -5 3 -10 -1 -10 -9 0 -9 -4
-16 -10 -16 -5 0 -10 18 -10 40 0 33 3 40 20 40 16 0 20 -7 20 -31z m-4065 12
c7 -12 -12 -24 -25 -16 -11 7 -4 25 10 25 5 0 11 -4 15 -9z m1275 -7 c11 -12
10 -18 -3 -32 -16 -15 -18 -15 -34 0 -13 14 -14 20 -3 32 7 9 16 16 20 16 4 0
13 -7 20 -16z m-2275 -38 c-7 -33 -11 -85 -13 -180 -3 -98 -14 -63 -28 90 -5
51 -3 80 7 102 18 40 44 32 34 -12z m3442 0 c-4 -9 -16 -16 -27 -16 -12 0 -20
-7 -20 -16 0 -9 -5 -14 -12 -12 -16 6 -22 28 -8 28 7 0 21 12 32 26 22 27 46
20 35 -10z m-1958 -10 c-12 -10 -59 -15 -59 -6 0 5 14 10 32 10 17 0 29 -2 27
-4z m585 -22 c3 -9 6 -23 5 -32 0 -14 -2 -13 -9 3 -7 18 -8 18 -15 -7 -11 -41
-25 -34 -25 12 0 33 4 40 19 40 10 0 22 -7 25 -16z m2872 -141 c-10 -10 -19 5
-10 18 6 11 8 11 12 0 2 -7 1 -15 -2 -18z m-1246 -62 c0 -9 -41 -23 -48 -16
-2 2 -1 8 3 14 8 13 45 15 45 2z m47 -17 c-3 -3 -12 -4 -19 -1 -8 3 -5 6 6 6
11 1 17 -2 13 -5z m-37 -19 c0 -8 -4 -15 -9 -15 -5 0 -14 7 -21 15 -10 13 -9
15 9 15 12 0 21 -6 21 -15z m-3940 -114 c0 -14 3 -43 6 -63 6 -33 4 -38 -13
-38 -11 0 -31 16 -47 38 -26 37 -26 37 -7 53 11 9 23 29 27 44 7 26 8 27 20
10 8 -11 14 -30 14 -44z m5030 -31 c10 -6 12 -12 5 -19 -7 -7 -14 -4 -23 9
-13 21 -6 25 18 10z m-1557 -25 c15 -13 27 -31 27 -40 0 -17 21 -20 36 -5 6 6
18 8 26 5 20 -8 48 -64 41 -82 -3 -7 0 -13 6 -13 8 0 9 -5 1 -19 -5 -11 -10
-28 -10 -39 0 -14 -9 -21 -31 -26 -48 -9 -69 -7 -69 7 0 7 -22 20 -48 29 -31
11 -53 27 -62 44 -8 14 -22 30 -32 35 -10 5 -18 16 -18 24 0 8 -6 15 -12 16
-10 0 -10 2 0 6 6 2 12 11 12 19 0 8 16 22 35 30 19 8 35 19 35 24 0 18 35 10
63 -15z m1494 -32 c-3 -3 -11 -2 -17 2 -8 5 -7 11 2 22 12 15 13 14 16 -1 2
-10 1 -20 -1 -23z m-6965 -165 c-9 -9 -15 -9 -24 0 -9 9 -7 12 12 12 19 0 21
-3 12 -12z m6832 -3 c4 -10 -1 -15 -14 -15 -13 0 -18 5 -14 15 4 8 10 15 14
15 4 0 10 -7 14 -15z m-30 -46 c-10 -16 -24 -9 -24 12 0 18 2 19 15 9 8 -7 12
-16 9 -21z m-304 -3 c0 -20 -26 -40 -35 -26 -10 16 2 40 20 40 8 0 15 -6 15
-14z m-20 -50 c0 -3 -4 -8 -10 -11 -5 -3 -10 -1 -10 4 0 6 5 11 10 11 6 0 10
-2 10 -4z m-144 -73 c-10 -10 -19 5 -10 18 6 11 8 11 12 0 2 -7 1 -15 -2 -18z
m-6885 -82 l24 -19 -27 -7 c-16 -4 -40 -4 -55 0 -16 4 -38 9 -50 10 -11 2 -32
7 -45 11 -18 7 -11 10 37 15 33 3 67 6 76 7 9 1 27 -7 40 -17z m5227 -21 c7
-12 17 -18 21 -15 5 2 11 -2 15 -10 3 -8 12 -15 21 -15 8 0 15 -7 15 -15 0 -9
6 -15 13 -14 6 1 24 -4 40 -11 35 -17 36 -54 2 -76 -14 -9 -25 -23 -25 -31 0
-8 -4 -11 -10 -8 -5 3 -10 -1 -10 -9 0 -26 -15 -18 -27 15 -7 17 -17 28 -22
24 -16 -9 -13 -51 4 -65 16 -13 21 -40 8 -40 -20 1 -38 22 -48 57 -10 37 -40
57 -54 35 -3 -6 -15 -12 -26 -14 -15 -2 -21 3 -23 25 -2 15 -7 27 -12 27 -14
0 10 58 27 64 13 5 11 11 -11 31 -15 14 -33 25 -41 25 -8 0 -17 5 -20 10 -4 6
6 10 24 10 16 0 33 -4 36 -10 9 -15 19 -12 45 10 29 25 42 25 58 0z m-2438 -4
c9 -12 4 -19 -30 -36 -46 -23 -95 -24 -95 0 0 8 20 22 45 32 56 21 65 22 80 4z
m4003 -46 c16 -19 16 -20 -3 -20 -13 0 -20 7 -20 20 0 11 1 20 3 20 1 0 10 -9
20 -20z m-1220 -62 c38 -13 46 -25 52 -78 3 -21 0 -30 -10 -30 -8 0 -16 8 -16
18 -1 16 -2 16 -6 0 -2 -10 -9 -18 -14 -18 -20 0 -7 -31 21 -52 17 -12 30 -27
30 -33 0 -6 26 -23 58 -38 95 -46 126 -64 130 -76 6 -18 -25 -13 -71 11 -70
36 -73 37 -111 27 -20 -5 -51 -13 -70 -18 -18 -4 -46 -15 -62 -23 -72 -38 -77
-39 -134 -23 -162 47 -194 51 -225 31 -13 -9 -31 -16 -40 -16 -8 0 -15 -4 -15
-9 0 -5 -15 -15 -34 -21 -19 -6 -40 -18 -46 -26 -7 -7 -22 -14 -34 -14 -27 0
-46 -18 -46 -42 0 -10 -5 -18 -12 -18 -6 0 -20 -7 -30 -17 -16 -14 -18 -14
-18 0 0 8 7 22 15 31 8 8 15 18 15 23 0 11 37 43 43 37 3 -3 16 6 30 20 15 14
33 26 42 26 8 0 15 4 15 10 0 5 20 19 45 31 25 12 48 25 51 30 3 5 14 9 25 9
10 0 24 9 31 20 9 14 24 20 51 20 31 0 39 -4 47 -26 6 -14 19 -28 30 -31 11
-3 20 -9 20 -14 0 -5 24 -9 53 -9 65 0 148 37 164 73 10 21 9 26 -13 37 -16 9
-24 22 -24 41 0 15 -5 29 -11 31 -11 4 -19 92 -11 116 5 14 20 13 85 -10z
m-492 -91 c-13 -13 -26 -3 -16 12 3 6 11 8 17 5 6 -4 6 -10 -1 -17z m-976 -57
c-3 -5 -18 -10 -33 -10 -21 0 -24 2 -12 10 20 13 53 13 45 0z m102 -12 c-3 -8
-6 -5 -6 6 -1 11 2 17 5 13 3 -3 4 -12 1 -19z m977 -27 c-7 -9 -24 13 -24 32
0 21 1 21 13 -3 8 -14 12 -27 11 -29z m-1054 -6 c0 -13 -4 -14 -20 -5 -14 8
-26 8 -40 0 -12 -6 -20 -7 -20 -1 0 10 22 18 58 20 14 1 22 -5 22 -14z m73
-10 c1 -6 -13 -11 -30 -13 -24 -2 -33 1 -33 11 0 17 59 18 63 2z m-4679 -24
c9 -14 -4 -41 -20 -41 -8 0 -14 8 -14 18 0 29 22 43 34 23z m4528 -23 c-7 -7
-12 -8 -12 -2 0 14 12 26 19 19 2 -3 -1 -11 -7 -17z m133 -49 c10 -15 -1 -23
-20 -15 -9 3 -13 10 -10 16 8 13 22 13 30 -1z m-4166 -30 l31 -11 -25 -20
c-28 -22 -62 -25 -277 -30 -83 -2 -121 1 -129 10 -11 10 -10 12 2 12 9 0 31 8
50 17 24 13 69 20 149 24 63 3 127 6 141 7 14 1 40 -3 58 -9z m-462 -45 c-3
-3 -12 -4 -19 -1 -8 3 -5 6 6 6 11 1 17 -2 13 -5z m6880 -20 c-9 -9 -28 6 -21
18 4 6 10 6 17 -1 6 -6 8 -13 4 -17z m-3407 -43 c0 -17 -18 -21 -24 -6 -3 9 0
15 9 15 8 0 15 -4 15 -9z m1888 -373 c-2 -6 -10 -14 -16 -16 -7 -2 -10 2 -6
12 7 18 28 22 22 4z m640 3 c7 -4 31 -5 53 -1 32 6 39 4 39 -8 0 -13 3 -12 14
4 13 16 18 17 33 6 10 -6 25 -15 33 -19 52 -23 39 -65 -19 -61 -39 2 -61 -6
-61 -23 0 -6 -12 -23 -28 -40 -22 -24 -37 -30 -83 -33 -56 -4 -57 -4 -63 26
-15 77 2 144 39 151 11 2 22 5 25 5 3 1 11 -2 18 -7z m-202 -11 c7 -7 19 -8
37 -1 32 12 42 1 56 -59 10 -44 5 -96 -9 -105 -14 -9 -38 6 -43 26 -8 28 -27
23 -27 -7 0 -22 -2 -25 -15 -14 -8 7 -15 9 -16 4 0 -5 -4 1 -9 14 -10 23 -52
32 -47 10 3 -15 -28 -22 -51 -12 -9 4 -34 8 -56 10 -21 1 -52 12 -67 24 -16
11 -35 20 -42 18 -15 -3 -77 46 -77 61 0 5 8 10 18 11 118 5 211 4 228 -2 14
-4 34 0 55 11 41 22 52 24 65 11z m452 -18 c2 -14 -2 -22 -11 -22 -15 0 -29
34 -19 45 11 11 27 -2 30 -23z m-607 -572 c56 0 57 -1 63 -32 l7 -33 14 26
c11 21 20 25 43 21 16 -2 43 -16 59 -30 18 -17 41 -27 63 -28 19 -1 36 -6 38
-13 6 -19 43 -12 49 9 3 11 13 20 22 20 11 1 8 5 -9 15 l-25 13 28 7 c44 11
129 0 142 -19 14 -19 32 -21 38 -3 3 10 9 10 26 0 11 -7 28 -13 36 -13 8 0 15
-4 15 -10 0 -5 -18 -10 -40 -10 -29 0 -40 -4 -40 -15 0 -9 -9 -15 -24 -15 -13
0 -31 -11 -41 -24 -15 -20 -22 -23 -38 -14 -10 5 -28 8 -38 5 -10 -3 -19 -1
-19 4 0 5 -5 9 -11 9 -5 0 -8 -4 -4 -9 11 -19 -14 -21 -32 -3 -14 15 -33 19
-81 20 -34 0 -65 -4 -68 -9 -3 -5 -1 -9 4 -9 16 0 24 -50 11 -66 -16 -20 -32
-6 -24 23 5 22 4 23 -15 13 -14 -7 -20 -8 -20 0 0 7 -6 8 -19 0 -11 -5 -28
-10 -39 -10 -11 0 -25 -7 -32 -15 -7 -9 -21 -13 -31 -10 -15 5 -19 1 -19 -19
0 -16 -10 -32 -30 -46 -16 -12 -30 -28 -30 -36 0 -8 -9 -14 -20 -14 -14 0 -22
11 -31 39 -10 35 -9 42 11 71 20 28 21 34 9 58 -18 35 -30 43 -45 31 -8 -6
-14 -4 -18 7 -10 25 -7 34 9 28 8 -4 17 1 21 10 3 9 13 16 21 16 12 0 14 7 10
29 -7 34 0 44 28 37 11 -3 45 -6 76 -6z m289 -52 c0 -12 -22 -10 -53 5 -40 18
-33 26 13 14 22 -6 40 -15 40 -19z m370 2 c0 -5 -7 -10 -15 -10 -8 0 -15 5
-15 10 0 6 7 10 15 10 8 0 15 -4 15 -10z m-990 -43 c0 -37 -4 -46 -24 -55 -20
-9 -25 -8 -30 4 -3 9 -3 20 0 25 3 6 1 16 -6 24 -13 16 3 30 25 21 9 -3 15 1
15 9 0 8 5 15 10 15 6 0 10 -20 10 -43z m-80 -59 c0 -7 -8 -22 -17 -33 -14
-18 -15 -18 -9 -2 3 10 6 25 6 33 0 8 5 14 10 14 6 0 10 -6 10 -12z m270 -38
c0 -27 -4 -50 -10 -50 -5 0 -10 23 -10 50 0 28 5 50 10 50 6 0 10 -22 10 -50z
m-53 -12 c-3 -7 -5 -2 -5 12 0 14 2 19 5 13 2 -7 2 -19 0 -25z m210 -90 c-3
-8 -6 -5 -6 6 -1 11 2 17 5 13 3 -3 4 -12 1 -19z m-4610 -60 c-3 -7 -5 -2 -5
12 0 14 2 19 5 13 2 -7 2 -19 0 -25z m473 -28 c0 -13 -11 -13 -30 0 -12 8 -11
10 8 10 12 0 22 -4 22 -10z m2338 -49 c15 -35 10 -50 -29 -77 -34 -24 -82 -20
-87 8 -3 17 72 98 91 98 7 0 18 -13 25 -29z m-83 -111 c3 -5 -1 -10 -10 -10
-9 0 -13 5 -10 10 3 6 8 10 10 10 2 0 7 -4 10 -10z m-225 -95 c-14 -8 -47 -22
-75 -31 -27 -9 -54 -20 -60 -24 -5 -4 -23 -12 -40 -18 -16 -6 -68 -27 -115
-46 -94 -40 -103 -42 -122 -22 -8 8 -23 16 -34 19 -12 3 -7 5 14 6 18 0 35 7
38 15 7 17 56 36 95 36 15 0 30 4 33 9 6 8 18 12 101 31 22 5 67 16 100 24 77
18 96 19 65 1z m-442 -86 c21 -1 17 -4 -18 -13 -27 -8 -49 -9 -55 -4 -12 11
14 30 33 23 8 -3 26 -5 40 -6z m-2666 -100 c20 -11 20 -12 -8 -30 -41 -27 -95
-25 -122 4 -12 13 -19 27 -15 30 11 11 123 8 145 -4z m2778 -259 c0 -5 -5 -10
-11 -10 -5 0 -7 5 -4 10 3 6 8 10 11 10 2 0 4 -4 4 -10z m-2557 -24 c15 -23
13 -36 -5 -36 -4 0 -8 7 -8 15 0 11 -7 14 -22 10 -85 -19 -147 2 -66 22 69 16
85 15 101 -11z m737 8 c0 -2 -7 -4 -15 -4 -8 0 -15 4 -15 10 0 5 7 7 15 4 8
-4 15 -8 15 -10z m1785 -4 c-3 -5 -11 -10 -16 -10 -6 0 -7 5 -4 10 3 6 11 10
16 10 6 0 7 -4 4 -10z m55 -69 c0 -12 -20 -25 -27 -18 -7 7 6 27 18 27 5 0 9
-4 9 -9z m-155 -101 c-3 -5 -13 -10 -21 -10 -8 0 -12 5 -9 10 3 6 13 10 21 10
8 0 12 -4 9 -10z m-2798 -96 c-3 -3 -12 -4 -19 -1 -8 3 -5 6 6 6 11 1 17 -2
13 -5z m3454 -61 c-8 -15 -10 -15 -11 -2 0 17 10 32 18 25 2 -3 -1 -13 -7 -23z
m9 -57 c0 -7 -12 -22 -27 -31 -28 -18 -28 -18 -11 2 14 15 15 22 6 31 -9 9 -7
12 10 12 12 0 22 -6 22 -14z m0 -79 c0 -12 -46 -67 -56 -67 -7 0 5 20 24 43
13 14 13 17 1 17 -11 0 -11 2 1 10 20 13 30 12 30 -3z m-18 -98 c-19 -17 -36
-28 -40 -25 -9 9 40 56 57 56 11 0 5 -11 -17 -31z m4368 -15 c0 -8 -7 -14 -15
-14 -15 0 -21 21 -9 33 10 9 24 -2 24 -19z m-6596 8 c2 -4 -46 -33 -107 -65
-264 -136 -426 -221 -477 -251 -30 -18 -89 -50 -130 -71 -41 -21 -91 -48 -110
-60 -19 -12 -45 -25 -57 -29 -20 -6 -21 -5 -14 21 20 68 44 108 92 151 29 26
65 59 80 73 16 14 41 32 56 39 16 8 42 26 59 40 36 31 144 84 199 98 57 15
216 41 310 51 44 5 83 9 87 10 4 0 9 -2 12 -7z m7856 -2 c0 -5 -4 -10 -10 -10
-5 0 -10 5 -10 10 0 6 5 10 10 10 6 0 10 -4 10 -10z m-5610 -19 c0 -5 -11 -16
-25 -25 -29 -19 -33 -11 -8 16 17 19 33 24 33 9z m4320 -87 c0 -8 -5 -12 -10
-9 -6 4 -8 11 -5 16 9 14 15 11 15 -7z m-4300 -13 c0 -5 -7 -11 -15 -15 -8 -3
-15 -14 -15 -24 0 -23 -26 -59 -36 -49 -4 4 -2 13 4 19 7 7 12 21 12 33 0 12
5 26 12 33 14 14 38 16 38 3z m5 -111 c8 -12 -61 -87 -71 -77 -4 4 6 21 22 38
l29 31 -27 -7 c-17 -4 -28 -3 -28 3 0 9 19 16 57 21 6 0 15 -3 18 -9z m4310
-19 c3 -5 1 -12 -4 -15 -13 -8 -42 4 -35 15 7 12 31 12 39 0z m-4305 -65 c0
-8 -16 -23 -35 -35 -45 -26 -47 -4 -2 26 39 27 37 26 37 9z m4360 -45 c0 -6
-4 -13 -10 -16 -5 -3 -10 1 -10 9 0 9 5 16 10 16 6 0 10 -4 10 -9z m-4350 -28
c0 -9 -3 -13 -6 -10 -4 4 -19 -2 -34 -13 -33 -23 -40 -25 -40 -7 1 14 61 56
73 50 4 -2 7 -11 7 -20z m4258 -22 c3 -8 -1 -12 -9 -9 -7 2 -15 10 -17 17 -3
8 1 12 9 9 7 -2 15 -10 17 -17z m-4284 -52 c-20 -23 -44 -25 -44 -4 0 8 6 15
14 15 7 0 20 7 27 16 9 11 15 12 17 5 2 -7 -4 -21 -14 -32z m4336 -75 c0 -8
-4 -12 -10 -9 -5 3 -10 13 -10 21 0 8 5 12 10 9 6 -3 10 -13 10 -21z m-15 -53
l20 -24 -22 14 c-13 8 -23 20 -23 28 0 8 1 12 3 10 1 -2 11 -15 22 -28z m-49
-108 c-10 -10 -19 5 -10 18 6 11 8 11 12 0 2 -7 1 -15 -2 -18z m32 -28 c-3 -3
-9 2 -12 12 -6 14 -5 15 5 6 7 -7 10 -15 7 -18z m-30 -66 c-10 -5 -18 -17 -18
-25 0 -12 -3 -12 -20 -2 -11 7 -20 16 -20 19 0 4 9 5 20 2 11 -3 20 0 20 6 0
6 8 11 18 11 16 -1 16 -1 0 -11z m-4168 -23 c0 -3 -4 -8 -10 -11 -5 -3 -10 -1
-10 4 0 6 5 11 10 11 6 0 10 -2 10 -4z m-23 -95 c-2 -3 -10 -21 -17 -38 -14
-32 -30 -44 -30 -23 0 6 -9 10 -20 10 -19 0 -19 1 3 43 21 42 23 43 45 29 12
-8 21 -18 19 -21z m-97 -1 c0 -5 -5 -10 -11 -10 -5 0 -7 5 -4 10 3 6 8 10 11
10 2 0 4 -4 4 -10z m4144 -132 c6 -4 8 -9 6 -12 -10 -10 -42 23 -34 35 6 10 9
10 12 -1 3 -8 10 -18 16 -22z m-9 -38 c-3 -5 -11 -10 -16 -10 -6 0 -7 5 -4 10
3 6 11 10 16 10 6 0 7 -4 4 -10z m-83 -22 c-7 -7 -12 -8 -12 -2 0 14 12 26 19
19 2 -3 -1 -11 -7 -17z m-306 -490 c-31 -26 -36 -22 -34 22 1 31 5 40 22 42
31 4 39 -41 12 -64z m-3439 -474 c7 -18 -17 -38 -31 -24 -11 11 -1 40 14 40 6
0 13 -7 17 -16z m-4 -94 c20 0 20 -1 -6 -28 -15 -15 -30 -42 -33 -60 l-7 -33
-26 25 c-15 14 -37 26 -49 26 -28 0 -28 5 3 42 14 16 25 37 25 47 0 30 12 31
42 6 16 -14 39 -25 51 -25z m-143 -5 c0 -8 -7 -15 -15 -15 -8 0 -15 7 -15 15
0 8 7 15 15 15 8 0 15 -7 15 -15z m0 -134 c0 -5 -6 -14 -14 -20 -16 -13 -32 2
-21 19 8 12 35 13 35 1z m1830 -91 c0 -5 -5 -10 -11 -10 -5 0 -7 5 -4 10 3 6
8 10 11 10 2 0 4 -4 4 -10z m1212 -314 c-2 -18 3 -47 12 -64 21 -41 21 -42
-19 -42 -22 0 -43 -8 -55 -20 -26 -26 -27 -26 -22 14 2 18 -3 47 -12 64 -21
41 -21 42 17 42 20 0 41 8 53 19 27 28 31 26 26 -13z m118 -56 c0 -11 -7 -20
-15 -20 -8 0 -15 9 -15 20 0 11 7 20 15 20 8 0 15 -9 15 -20z m-2980 -20 c0
-6 7 -5 19 2 15 9 29 9 62 -1 44 -13 103 -66 93 -82 -3 -5 1 -9 9 -9 9 0 18
-20 26 -54 10 -45 9 -61 -5 -102 -26 -78 -74 -143 -106 -144 -9 0 -20 -4 -23
-10 -3 -5 -15 -10 -26 -10 -11 0 -22 -7 -25 -15 -6 -16 -54 -21 -54 -6 0 5 -9
11 -21 14 -11 3 -23 14 -26 25 -3 14 -11 18 -24 15 -21 -6 -27 13 -6 20 6 2 9
8 5 12 -4 4 -14 3 -21 -3 -19 -16 -28 -4 -20 26 4 17 2 23 -6 18 -17 -11 -36
4 -20 15 11 8 10 12 -5 20 -15 9 -16 13 -5 20 11 6 11 11 2 20 -8 8 -9 18 -2
31 5 10 7 23 4 28 -3 5 -1 11 5 15 5 3 10 15 10 25 0 20 17 36 27 26 4 -4 1
-12 -5 -18 -7 -7 -12 -19 -12 -27 1 -13 4 -12 16 4 8 11 13 29 10 40 -7 26 28
69 74 94 42 22 50 24 50 11z m2725 -21 c0 -7 -8 -15 -17 -17 -18 -3 -25 18
-11 32 10 10 28 1 28 -15z m163 -66 c-4 -22 -22 -20 -26 1 -2 10 3 16 13 16
10 0 15 -7 13 -17z m-2554 -369 c22 -21 22 -94 0 -94 -11 0 -14 5 -9 18 12 28
11 45 -2 49 -8 3 -15 -10 -19 -37 -6 -35 -26 -60 -48 -60 -32 0 -51 102 -21
114 13 4 14 -1 9 -34 -8 -46 12 -57 22 -12 15 71 36 89 68 56z m-171 -105 c2
-53 2 -54 -28 -57 -37 -5 -55 -19 -55 -43 0 -15 8 -19 33 -20 96 -3 109 -31
37 -84 -28 -21 -49 -42 -47 -49 5 -14 56 -9 84 10 26 17 29 13 38 -53 6 -44 4
-54 -14 -72 -12 -12 -34 -21 -52 -21 -35 0 -49 25 -70 128 -12 58 -12 65 4 73
9 6 17 19 17 30 0 15 -5 18 -24 13 -21 -5 -24 -2 -30 43 -4 30 -2 49 4 51 6 2
17 11 26 19 21 21 3 39 -24 24 -16 -8 -21 -7 -26 5 -13 33 -6 44 27 44 17 0
43 6 57 14 34 17 40 9 43 -55z m2440 43 c23 -20 22 -64 -3 -112 l-20 -40 -31
35 c-34 38 -56 44 -66 19 -7 -19 42 -63 71 -64 18 0 19 -10 2 -51 -5 -12 2
-20 24 -29 61 -25 154 -92 214 -154 205 -212 287 -566 195 -847 -85 -260 -261
-434 -503 -496 -90 -23 -250 -13 -347 22 -41 15 -81 29 -89 31 -11 4 -22 -10
-37 -46 l-22 -52 -36 37 c-38 37 -67 43 -73 12 -2 -11 8 -24 27 -35 47 -26 58
-55 38 -96 -21 -45 -49 -53 -87 -26 -36 26 -60 20 -60 -13 0 -34 17 -45 61
-40 l40 6 -11 -28 c-16 -43 -21 -47 -36 -34 -16 13 -44 5 -44 -12 0 -6 9 -13
20 -16 24 -6 25 -12 5 -40 l-15 -22 -32 30 c-18 16 -37 29 -43 29 -5 0 -16 4
-24 9 -11 7 -10 13 5 36 16 25 19 26 30 10 7 -9 17 -14 23 -10 16 10 13 45 -4
45 -22 0 -19 14 16 75 31 55 49 75 49 56 0 -6 17 -22 37 -35 37 -26 63 -22 63
9 0 14 -62 65 -79 65 -17 0 -14 8 30 89 l42 75 -27 23 c-37 31 -44 29 -56 -14
-5 -21 -24 -62 -40 -91 -25 -42 -35 -52 -50 -47 -27 8 -47 -30 -23 -43 15 -9
15 -13 -5 -55 -21 -44 -46 -65 -57 -47 -11 18 -35 10 -35 -10 0 -13 7 -20 20
-20 23 0 25 -17 5 -44 -14 -18 -16 -18 -50 13 -20 17 -42 31 -50 31 -23 0 -18
21 15 73 31 50 55 60 65 27 7 -23 60 -29 68 -7 5 15 -16 59 -37 76 -20 17 -21
60 -1 67 8 3 34 1 59 -4 36 -7 48 -6 57 4 7 8 10 16 8 17 -2 1 -18 12 -36 25
-18 12 -37 22 -43 22 -27 0 7 68 51 103 l31 24 -23 42 c-26 44 -42 51 -58 24
-8 -14 -13 -15 -19 -5 -10 15 -42 5 -42 -14 0 -7 7 -17 16 -22 11 -6 13 -16 9
-35 -8 -29 -19 -34 -32 -14 -13 21 -67 55 -80 50 -18 -6 -16 8 3 36 12 16 19
20 27 12 19 -19 36 -13 29 12 -3 12 -9 25 -15 28 -5 4 -4 16 4 30 l13 24 9
-32 c9 -30 14 -33 48 -33 22 0 39 4 39 10 0 5 -11 33 -24 62 -58 124 -71 192
-71 358 1 130 5 168 24 235 28 101 91 219 156 295 179 211 406 280 695 214
l25 -6 -28 26 c-15 14 -35 26 -43 26 -20 0 -18 10 20 93 44 96 69 111 119 69z
m-2631 -39 c7 -27 -2 -43 -24 -43 -28 0 -17 -24 14 -28 22 -3 26 -10 35 -60
12 -66 10 -72 -22 -72 -37 0 -75 -18 -75 -35 0 -30 28 -30 103 0 13 6 17 2 17
-16 0 -22 -5 -24 -60 -27 -64 -3 -80 9 -80 61 0 30 17 45 59 53 41 8 50 30 24
56 -20 20 -20 20 -56 -18 l-36 -38 -7 28 c-5 23 -2 32 16 46 13 10 20 22 16
29 -6 9 -11 9 -22 0 -17 -14 -23 -10 -26 20 -3 20 4 25 45 36 26 6 50 15 54
18 11 12 21 8 25 -10z m398 -52 c0 -20 -8 -34 -25 -45 -31 -20 -24 -36 15 -36
26 0 40 -15 40 -44 0 -6 -21 -17 -47 -24 -74 -19 -78 -19 -81 6 -3 18 1 22 25
22 32 0 60 15 46 23 -5 3 -24 4 -41 2 -48 -6 -50 14 -6 51 46 39 43 49 -8 24
-31 -15 -38 -15 -42 -3 -3 7 0 15 7 17 6 2 31 9 55 15 23 7 42 16 42 22 0 6 5
7 10 4 6 -3 10 -19 10 -34z m37 -223 c-7 -4 -18 -8 -24 -8 -7 0 -13 -4 -13
-10 0 -13 32 -28 48 -23 7 3 12 -5 12 -21 0 -24 -2 -25 -26 -14 -24 11 -29 10
-54 -20 -14 -18 -30 -29 -33 -25 -14 13 -6 49 13 61 29 18 25 33 -7 30 -24 -3
-28 1 -31 25 -2 19 1 27 10 26 23 -5 76 12 89 28 12 13 14 12 21 -13 5 -19 3
-31 -5 -36z m-364 -100 c2 -48 -25 -78 -70 -78 -29 0 -36 5 -48 33 -7 17 -15
45 -17 61 -3 27 -1 28 42 32 24 3 51 11 60 19 13 14 15 13 23 -7 4 -13 9 -40
10 -60z m217 -83 c12 -57 8 -75 -15 -75 -12 0 -12 5 -3 24 12 28 4 60 -15 53
-6 -2 -12 -12 -12 -23 0 -10 -8 -20 -17 -22 -13 -3 -16 1 -12 13 5 13 2 16
-11 14 -27 -6 -29 -25 -6 -48 27 -27 26 -31 -4 -31 -14 0 -25 6 -25 14 0 7 -3
34 -6 60 -6 44 -5 46 17 46 13 1 38 7 54 15 43 19 43 20 55 -40z m-192 -38 c3
-25 0 -27 -33 -27 -42 0 -75 -15 -75 -34 0 -28 64 -30 98 -3 10 8 16 7 23 -4
5 -8 9 -17 9 -20 0 -9 -118 -21 -130 -14 -17 11 -24 76 -9 90 16 16 88 44 104
40 6 -1 11 -14 13 -28z m218 -83 c5 -20 0 -32 -27 -60 -37 -39 -32 -57 11 -32
24 14 29 14 34 2 6 -16 4 -17 -59 -33 -58 -16 -65 -14 -65 14 0 16 13 37 33
56 31 30 31 30 7 26 -14 -2 -33 -8 -42 -12 -14 -5 -18 -2 -18 15 0 11 4 18 10
15 12 -8 90 15 90 27 0 19 20 6 26 -18z m-191 -68 c19 -28 16 -87 -3 -94 -10
-3 -12 6 -10 31 4 49 -15 51 -23 3 -14 -84 -81 -71 -83 17 -1 32 3 42 17 45
15 3 16 0 6 -22 -13 -27 -5 -61 11 -51 5 3 10 15 10 25 0 64 45 92 75 46z
m244 -183 c1 -7 -8 -13 -19 -13 -26 0 -90 -26 -90 -37 0 -4 4 -14 9 -21 8 -13
40 -9 94 13 13 5 17 2 17 -13 0 -16 -9 -21 -52 -26 -47 -7 -55 -5 -70 14 -32
40 -14 99 30 100 9 1 28 7 42 15 22 12 26 12 32 -3 4 -9 7 -23 7 -29z m31
-153 c0 -19 -9 -35 -25 -48 -32 -26 -32 -32 5 -32 19 0 33 -7 40 -19 18 -35
12 -48 -28 -54 -47 -8 -81 -31 -67 -46 6 -6 35 -14 65 -18 49 -7 55 -11 58
-33 2 -20 -6 -30 -43 -52 -30 -18 -45 -34 -45 -48 0 -23 11 -24 65 -5 46 16
50 13 59 -53 7 -50 -6 -76 -34 -67 -9 3 -28 -4 -43 -15 -33 -26 -37 -25 -37 5
0 18 7 28 25 35 14 5 25 16 25 25 0 17 -35 21 -45 5 -13 -21 -23 -8 -29 38
-11 74 -12 87 -2 89 15 2 24 24 19 44 -4 14 -9 16 -23 9 -15 -8 -19 -3 -29 35
-17 67 -15 72 29 79 54 8 51 26 -5 26 -58 0 -61 25 -7 59 42 28 28 40 -19 17
-40 -20 -39 -20 -39 8 0 19 4 22 23 19 12 -2 38 5 57 15 42 22 50 19 50 -18z
m4447 -164 c86 -15 126 -38 121 -69 -2 -18 -9 -22 -33 -20 -115 6 -179 4 -186
-9 -12 -18 -11 -41 1 -33 5 3 16 -8 25 -25 13 -25 21 -30 53 -30 21 0 61 -7
88 -15 59 -18 108 -77 119 -143 7 -41 5 -45 -38 -87 -39 -40 -49 -45 -89 -45
-25 0 -58 4 -74 9 -16 5 -55 17 -86 26 -56 15 -58 17 -58 50 0 18 5 37 10 40
6 4 36 -1 68 -11 76 -23 130 -28 148 -13 30 25 -19 104 -59 95 -37 -9 -128 13
-152 36 -14 13 -25 28 -25 34 0 6 -10 19 -21 30 -19 17 -21 26 -15 77 7 74 19
94 59 106 43 12 60 12 144 -3z m327 -62 c9 -3 16 -16 16 -29 0 -31 56 -165 80
-190 11 -12 18 -24 15 -27 -3 -3 1 -11 10 -18 12 -10 18 -6 33 31 10 24 29 77
41 116 27 85 41 100 79 87 21 -7 27 -16 28 -39 0 -17 8 -64 17 -105 20 -89 57
-308 57 -333 0 -15 -7 -18 -37 -15 -38 3 -38 3 -45 58 -19 142 -33 195 -52
195 -27 0 -48 -65 -50 -155 -1 -70 -2 -75 -24 -78 -32 -5 -49 12 -57 56 -6 34
-76 186 -94 205 -8 8 -21 -109 -21 -184 0 -28 -6 -42 -22 -53 -20 -14 -24 -14
-38 -1 -12 13 -14 45 -12 198 1 100 5 206 8 235 6 46 9 52 29 52 13 0 30 -3
39 -6z m1958 -74 c28 -30 54 -103 43 -120 -11 -18 -53 -11 -60 9 -3 11 -12 22
-20 25 -8 3 -15 12 -15 20 0 31 -74 25 -91 -6 -22 -42 23 -88 85 -88 13 0 34
-9 47 -21 13 -11 36 -27 51 -35 21 -11 28 -23 32 -56 6 -51 4 -197 -2 -177
-11 34 -24 40 -46 20 -28 -25 -105 -24 -135 3 -12 11 -31 24 -44 30 -30 16
-35 61 -7 76 17 9 26 7 50 -10 19 -14 41 -20 62 -18 27 2 34 8 36 30 5 38 -13
66 -54 83 -19 8 -38 14 -42 13 -17 -3 -61 23 -81 48 -14 18 -21 41 -21 71 0
50 11 75 49 116 24 26 29 27 81 22 43 -5 61 -13 82 -35z m-765 -22 c32 -15 43
-26 48 -51 4 -18 12 -38 18 -45 6 -7 10 -40 10 -73 0 -47 -4 -64 -21 -82 -28
-29 -27 -39 2 -74 28 -33 66 -106 66 -127 0 -32 -66 -35 -76 -3 -3 12 -26 43
-50 69 -24 26 -44 54 -44 62 0 19 -20 25 -47 13 -21 -9 -22 -14 -16 -83 6 -73
6 -73 -21 -80 -33 -8 -56 10 -56 45 0 14 -7 51 -15 81 -8 30 -15 78 -16 105 0
28 -9 79 -20 114 -10 35 -19 80 -19 101 0 37 1 39 43 48 59 13 164 3 214 -20z
m-725 -18 c4 -19 10 -56 13 -82 4 -28 11 -48 18 -48 22 1 87 67 98 99 9 27 16
32 38 29 41 -5 39 -45 -5 -127 l-37 -68 50 -64 c78 -102 105 -179 67 -193 -31
-12 -49 4 -103 94 -72 120 -87 138 -105 119 -11 -11 -12 -29 -4 -87 12 -88 8
-102 -31 -102 -24 0 -32 5 -35 23 -11 51 -38 418 -32 433 4 10 15 14 33 12 23
-2 29 -9 35 -38z m948 22 c0 -4 14 -16 30 -25 38 -23 38 -40 -1 -68 l-32 -22
-18 22 c-20 24 -23 41 -13 79 6 20 34 32 34 14z m228 -4 c15 -18 25 -83 17
-107 -10 -32 -84 -30 -113 4 -29 33 -28 44 7 83 31 33 70 42 89 20z m-5193
-178 c17 -11 38 -20 48 -20 16 0 16 -2 2 -31 -15 -28 -18 -29 -33 -16 -38 32
-45 30 -23 -6 28 -45 20 -61 -26 -52 -27 5 -34 3 -31 -7 2 -7 14 -17 26 -23
24 -11 26 -14 13 -33 -6 -10 -16 -6 -40 17 -18 17 -42 31 -52 31 -10 0 -19 6
-19 13 1 25 28 47 59 47 36 0 37 2 14 36 -15 24 -15 28 2 62 14 30 19 34 24
19 4 -10 20 -26 36 -37z m5225 -101 c0 -108 -15 -150 -59 -169 -45 -18 -140
-9 -158 16 -8 10 -17 18 -21 16 -9 -3 -21 61 -29 150 -6 74 5 90 46 69 16 -9
19 -18 14 -46 -7 -45 10 -86 49 -115 25 -18 36 -21 62 -13 l31 9 0 80 c0 43 3
84 7 90 4 6 19 9 33 6 24 -4 25 -6 25 -93z m-6326 -11 c20 -29 21 -98 2 -98
-11 0 -13 10 -9 41 5 33 3 41 -8 37 -8 -2 -15 -21 -17 -40 -5 -62 -65 -89 -77
-34 -11 45 -10 89 2 93 8 3 11 -8 10 -36 -3 -51 16 -58 24 -9 10 66 45 87 73
46z m970 -67 c3 -5 -5 -16 -19 -25 -14 -9 -25 -23 -25 -31 0 -22 13 -18 40 10
26 28 52 32 70 10 21 -25 -28 -129 -56 -118 -21 8 -17 18 11 33 14 7 25 22 25
32 0 25 -12 23 -40 -7 -53 -56 -93 3 -50 73 20 32 34 40 44 23z m-964 -101
c36 -9 38 -44 4 -67 -14 -10 -37 -28 -50 -40 l-24 -22 -6 26 c-5 18 -2 28 10
35 9 5 16 21 16 35 0 22 -3 24 -25 19 -20 -5 -25 -3 -25 13 0 17 5 19 38 14
20 -4 48 -9 62 -13z m4216 6 c23 -17 13 -30 -24 -31 -38 0 -36 -28 3 -35 22
-4 34 -14 45 -37 8 -18 18 -33 21 -33 8 0 19 53 19 91 0 33 5 35 26 14 12 -11
20 -12 35 -5 29 16 39 4 39 -51 0 -38 3 -49 16 -49 14 0 15 9 9 60 -6 55 -5
60 13 60 12 0 22 -9 25 -22 l6 -22 21 24 c17 20 23 22 30 10 6 -9 3 -24 -7
-40 -15 -26 -14 -29 16 -70 20 -28 28 -47 22 -53 -15 -15 -40 -1 -51 28 -13
35 -31 31 -28 -6 4 -43 -14 -47 -31 -7 -13 30 -14 31 -18 11 -7 -38 -22 -26
-38 32 -9 30 -19 55 -22 55 -3 0 -2 -22 2 -50 6 -42 4 -50 -9 -50 -11 0 -16 9
-16 33 0 17 -5 39 -11 47 -8 11 -9 4 -5 -28 5 -34 3 -44 -10 -49 -9 -3 -20 0
-25 8 -6 11 -11 11 -21 1 -6 -6 -27 -12 -45 -12 -40 0 -45 26 -8 40 36 14 31
28 -15 40 -38 10 -40 13 -40 50 0 54 35 75 76 46z m495 -70 c9 -19 8 -29 -6
-49 -12 -19 -15 -36 -10 -58 6 -27 5 -31 -9 -26 -9 4 -19 -1 -25 -11 -14 -25
-26 -6 -40 62 -19 102 -18 106 34 106 38 0 47 -4 56 -24z m107 -40 c31 -96 23
-200 -9 -111 -14 38 -32 41 -37 7 -6 -38 -22 -13 -22 34 0 53 24 117 42 112 7
-3 19 -21 26 -42z m87 19 c14 -13 25 -29 25 -35 0 -5 5 -10 10 -10 6 0 10 9
10 20 0 16 7 20 30 20 17 0 33 0 37 1 4 0 9 -4 11 -10 2 -6 -10 -16 -27 -22
-36 -13 -40 -26 -9 -31 30 -4 37 -38 9 -45 -23 -6 -29 -23 -7 -23 7 0 20 -8
27 -17 7 -10 9 -15 5 -11 -5 4 -15 3 -23 -3 -10 -9 -18 -6 -33 12 -10 13 -19
27 -20 32 0 15 -19 6 -25 -13 -8 -24 -44 -45 -56 -33 -10 10 -20 179 -11 188
10 10 23 5 47 -20z m1826 -1 c11 -13 9 -14 -14 -9 -25 7 -27 5 -27 -24 0 -21
-5 -31 -15 -31 -12 0 -13 5 -4 27 20 53 38 64 60 37z m-1613 -112 c8 -2 12 10
12 42 0 43 13 70 22 43 3 -10 3 -131 -1 -161 0 -5 -12 0 -24 13 -13 12 -31 19
-39 16 -20 -8 -41 110 -25 140 9 18 13 14 27 -34 8 -30 21 -56 28 -59z m1424
67 c14 -40 28 -36 28 6 0 19 5 35 10 35 6 0 10 -27 10 -60 0 -75 18 -79 22 -5
4 74 23 76 25 3 1 -44 -3 -63 -18 -80 l-19 -23 -20 24 c-12 14 -18 31 -15 42
4 11 2 19 -3 19 -5 0 -12 -13 -15 -30 -8 -37 -54 -71 -68 -49 -5 8 -7 20 -4
27 3 8 5 40 5 71 0 57 0 58 26 53 17 -3 29 -14 36 -33z m-1193 -71 c1 -48 -2
-59 -20 -69 -13 -7 -25 -7 -31 -1 -10 10 -40 143 -34 150 5 4 19 -46 31 -100
10 -50 25 -29 25 35 0 35 3 67 7 71 12 12 22 -25 22 -86z m62 62 c13 -36 29
-39 29 -5 0 15 6 25 14 25 13 0 36 -74 36 -115 0 -15 19 -22 21 -7 3 31 12 60
24 79 24 36 37 27 15 -9 -26 -43 -25 -55 5 -60 18 -4 25 -1 25 10 0 12 3 13
11 5 13 -13 18 -82 7 -89 -5 -3 -8 3 -8 13 0 20 -36 47 -50 38 -6 -4 -10 -15
-10 -26 0 -14 -4 -18 -12 -12 -7 4 -17 8 -23 8 -5 0 -14 14 -19 30 -17 58 -20
59 -26 10 l-6 -50 -13 28 c-18 34 -31 35 -31 2 0 -35 -16 -31 -24 6 -13 64 -4
149 16 149 5 0 14 -13 19 -30z m984 -34 c7 -65 12 -79 25 -71 5 3 8 35 7 70
-3 79 9 86 18 11 10 -77 5 -90 -31 -94 l-32 -3 -4 68 c-5 61 -2 90 7 81 2 -2
6 -30 10 -62z m-55 49 c0 -3 -8 -17 -17 -31 -15 -24 -15 -27 0 -54 23 -39 21
-61 -3 -30 -18 23 -20 23 -20 5 -1 -17 -3 -17 -12 5 -15 36 -20 90 -8 90 5 0
10 -8 10 -17 1 -13 5 -10 16 10 13 23 34 37 34 22z m-6280 -18 c0 -18 -21 -37
-39 -37 -9 0 -29 -7 -45 -15 -36 -19 -36 -19 -36 9 0 21 8 27 48 39 61 19 72
20 72 4z m5818 -38 c-22 -19 -22 -20 -4 -32 11 -7 28 -20 38 -30 21 -20 22
-18 35 51 4 24 12 44 17 45 5 1 15 -20 22 -46 7 -26 19 -59 28 -72 15 -22 22
-65 11 -65 -2 0 -16 12 -31 27 l-26 26 -18 -23 c-13 -17 -19 -19 -22 -9 -4 11
-9 10 -26 -4 -22 -20 -53 -20 -60 1 -2 7 6 12 22 12 39 0 32 26 -14 56 -32 21
-39 31 -34 48 10 35 43 57 65 45 19 -10 19 -11 -3 -30z m187 -21 c10 -54 4
-137 -8 -108 -8 20 -14 160 -7 160 3 0 10 -24 15 -52z m51 25 c-10 -10 -19 5
-10 18 6 11 8 11 12 0 2 -7 1 -15 -2 -18z m626 -28 c-11 -24 -52 -36 -52 -15
0 6 6 9 13 8 7 -2 13 8 14 22 0 14 1 29 2 35 1 5 9 2 18 -7 14 -14 15 -22 5
-43z m-1165 13 c-3 -7 -5 -2 -5 12 0 14 2 19 5 13 2 -7 2 -19 0 -25z m65 -2
c-3 -26 1 -37 16 -45 27 -14 47 9 38 45 -5 19 -3 25 6 22 9 -4 12 -22 10 -62
-3 -35 1 -62 8 -72 7 -8 10 -17 6 -21 -8 -8 -35 27 -36 45 0 18 -35 10 -36 -8
-2 -31 -5 -35 -14 -20 -12 19 -24 115 -16 135 10 28 22 15 18 -19z m490 -48
c3 -24 6 -47 9 -53 2 -5 0 -12 -5 -15 -13 -7 -34 59 -28 87 7 37 20 27 24 -19z
m45 10 c-3 -8 -6 -5 -6 6 -1 11 2 17 5 13 3 -3 4 -12 1 -19z m-6107 -17 c0
-13 -12 -22 -45 -31 -25 -7 -45 -17 -45 -21 0 -5 -4 -9 -10 -9 -5 0 -10 14
-10 30 0 26 4 30 28 31 15 0 36 4 47 9 30 13 35 12 35 -9z m925 9 c3 -5 3 -10
-2 -10 -4 0 -34 -24 -66 -54 -42 -40 -57 -61 -57 -81 0 -22 3 -25 20 -20 12 4
28 1 36 -6 19 -16 31 -4 72 72 25 46 28 57 16 65 -10 6 -11 14 -4 24 8 13 13
13 37 0 15 -9 33 -27 40 -40 7 -14 13 -21 13 -15 0 5 6 1 14 -10 19 -29 25
-73 11 -85 -17 -14 -7 -61 13 -58 24 5 27 -23 3 -29 -12 -3 -21 -13 -21 -24 0
-11 -4 -19 -9 -19 -5 0 -13 -10 -17 -22 -8 -25 -71 -88 -88 -88 -6 0 -23 -6
-37 -14 -29 -15 -115 -11 -125 6 -7 11 12 61 44 112 l25 40 -22 17 c-11 9 -21
26 -21 37 0 18 -3 19 -30 9 -23 -9 -31 -19 -35 -47 -9 -60 -20 -85 -38 -88
-14 -3 -17 5 -18 40 -1 24 0 48 1 53 2 6 5 24 8 40 6 34 25 68 61 108 15 17
20 27 11 27 -9 0 -8 5 5 20 10 11 22 17 26 14 5 -3 9 -1 9 4 0 20 114 40 125
22z m-915 -88 c0 -4 -7 -18 -16 -30 -15 -22 -38 -27 -68 -16 -21 8 -20 24 2
24 9 0 28 7 42 14 30 17 40 19 40 8z m1070 -97 c0 -8 -4 -15 -10 -15 -5 0 -10
7 -10 15 0 8 5 15 10 15 6 0 10 -7 10 -15z m320 -59 c0 -3 -4 -8 -10 -11 -5
-3 -10 -1 -10 4 0 6 5 11 10 11 6 0 10 -2 10 -4z"/>
<path d="M7318 12223 c6 -2 18 -2 25 0 6 3 1 5 -13 5 -14 0 -19 -2 -12 -5z"/>
<path d="M7103 12163 c9 -2 17 -13 17 -24 0 -21 -16 -26 -22 -8 -6 18 -58 21
-58 3 0 -10 7 -13 24 -8 17 4 27 1 34 -11 8 -15 12 -15 30 -4 18 12 19 14 5
36 -8 13 -23 22 -32 22 -14 -1 -13 -2 2 -6z"/>
<path d="M6893 12093 c-9 -3 -10 -10 -3 -23 13 -23 40 -15 40 11 0 19 -12 23
-37 12z"/>
<path d="M7030 12090 c0 -5 5 -10 11 -10 5 0 7 5 4 10 -3 6 -8 10 -11 10 -2 0
-4 -4 -4 -10z"/>
<path d="M7335 12040 c-3 -5 -1 -10 4 -10 6 0 11 5 11 10 0 6 -2 10 -4 10 -3
0 -8 -4 -11 -10z"/>
<path d="M7411 12029 c-1 -17 -10 -30 -26 -39 -23 -12 -36 -50 -17 -50 12 0
42 34 42 47 0 6 5 13 11 15 7 2 7 11 0 28 l-10 25 0 -26z"/>
<path d="M7366 12023 c-11 -11 -6 -23 9 -23 8 0 15 4 15 9 0 13 -16 22 -24 14z"/>
<path d="M6973 12003 c-9 -3 -9 -10 -1 -29 9 -19 9 -30 0 -45 -17 -27 -6 -24
12 4 17 25 9 77 -11 70z"/>
<path d="M7245 11989 c-10 -15 3 -25 16 -12 7 7 7 13 1 17 -6 3 -14 1 -17 -5z"/>
<path d="M7200 11980 c0 -5 7 -10 16 -10 8 0 12 5 9 10 -3 6 -10 10 -16 10 -5
0 -9 -4 -9 -10z"/>
<path d="M6080 11950 c0 -5 5 -10 11 -10 5 0 7 5 4 10 -3 6 -8 10 -11 10 -2 0
-4 -4 -4 -10z"/>
<path d="M6145 11950 c-3 -5 -1 -10 4 -10 6 0 11 5 11 10 0 6 -2 10 -4 10 -3
0 -8 -4 -11 -10z"/>
<path d="M6110 11930 c0 -5 5 -10 10 -10 6 0 10 5 10 10 0 6 -4 10 -10 10 -5
0 -10 -4 -10 -10z"/>
<path d="M7065 11900 c-3 -5 -1 -10 4 -10 6 0 11 5 11 10 0 6 -2 10 -4 10 -3
0 -8 -4 -11 -10z"/>
<path d="M7442 11865 c0 -16 2 -22 5 -12 2 9 2 23 0 30 -3 6 -5 -1 -5 -18z"/>
<path d="M6305 11850 c-3 -5 -1 -10 4 -10 6 0 11 5 11 10 0 6 -2 10 -4 10 -3
0 -8 -4 -11 -10z"/>
<path d="M6942 11811 c-11 -7 -11 -9 2 -14 10 -4 16 -1 16 8 0 17 -1 17 -18 6z"/>
<path d="M7156 11811 c-3 -5 5 -11 19 -13 14 -3 26 0 29 8 6 16 -39 20 -48 5z"/>
<path d="M6224 11729 c-3 -6 -1 -16 5 -22 8 -8 11 -5 11 11 0 24 -5 28 -16 11z"/>
<path d="M6335 11710 c4 -6 11 -8 16 -5 14 9 11 15 -7 15 -8 0 -12 -5 -9 -10z"/>
<path d="M6560 11699 c0 -5 5 -7 10 -4 6 3 10 8 10 11 0 2 -4 4 -10 4 -5 0
-10 -5 -10 -11z"/>
<path d="M6270 11690 c0 -5 5 -10 11 -10 5 0 7 5 4 10 -3 6 -8 10 -11 10 -2 0
-4 -4 -4 -10z"/>
<path d="M6132 11669 c2 -6 8 -10 13 -10 5 0 11 4 13 10 2 6 -4 11 -13 11 -9
0 -15 -5 -13 -11z"/>
<path d="M7140 11640 c0 -5 5 -10 11 -10 5 0 7 5 4 10 -3 6 -8 10 -11 10 -2 0
-4 -4 -4 -10z"/>
<path d="M6136 11623 c-11 -11 -6 -23 9 -23 8 0 15 4 15 9 0 13 -16 22 -24 14z"/>
<path d="M6968 11593 c7 -3 16 -2 19 1 4 3 -2 6 -13 5 -11 0 -14 -3 -6 -6z"/>
<path d="M7068 11593 c7 -3 16 -2 19 1 4 3 -2 6 -13 5 -11 0 -14 -3 -6 -6z"/>
<path d="M6160 11374 c0 -8 5 -12 10 -9 6 3 10 10 10 16 0 5 -4 9 -10 9 -5 0
-10 -7 -10 -16z"/>
<path d="M5958 11283 c6 -2 18 -2 25 0 6 3 1 5 -13 5 -14 0 -19 -2 -12 -5z"/>
<path d="M5135 11790 c-7 -12 2 -30 16 -30 5 0 9 9 9 20 0 21 -15 27 -25 10z"/>
<path d="M5250 11675 c7 -8 16 -15 21 -15 5 0 9 7 9 15 0 9 -9 15 -21 15 -18
0 -19 -2 -9 -15z"/>
<path d="M5290 11671 c0 -6 5 -13 10 -16 6 -3 10 1 10 9 0 9 -4 16 -10 16 -5
0 -10 -4 -10 -9z"/>
<path d="M5341 11654 c-2 -54 10 -94 28 -94 13 0 13 2 2 9 -8 5 -12 15 -9 22
2 8 -1 32 -8 54 -12 39 -12 40 -13 9z"/>
<path d="M4237 11509 c4 -13 8 -18 11 -10 2 7 -1 18 -6 23 -8 8 -9 4 -5 -13z"/>
<path d="M4940 11470 c0 -5 5 -10 10 -10 6 0 10 5 10 10 0 6 -4 10 -10 10 -5
0 -10 -4 -10 -10z"/>
<path d="M3840 10900 c0 -13 11 -13 30 0 12 8 11 10 -7 10 -13 0 -23 -4 -23
-10z"/>
<path d="M5385 10090 c-3 -5 1 -10 10 -10 9 0 13 5 10 10 -3 6 -8 10 -10 10
-2 0 -7 -4 -10 -10z"/>
<path d="M4607 9994 c-11 -11 3 -24 18 -18 8 4 12 10 9 15 -6 11 -18 12 -27 3z"/>
<path d="M5020 9950 c0 -5 4 -10 9 -10 6 0 13 5 16 10 3 6 -1 10 -9 10 -9 0
-16 -4 -16 -10z"/>
<path d="M4928 9913 c7 -3 16 -2 19 1 4 3 -2 6 -13 5 -11 0 -14 -3 -6 -6z"/>
<path d="M5220 9909 c0 -5 5 -7 10 -4 6 3 10 8 10 11 0 2 -4 4 -10 4 -5 0 -10
-5 -10 -11z"/>
<path d="M5310 9905 c0 -8 5 -15 10 -15 6 0 10 7 10 15 0 8 -4 15 -10 15 -5 0
-10 -7 -10 -15z"/>
<path d="M4880 9890 c0 -5 5 -10 10 -10 6 0 10 5 10 10 0 6 -4 10 -10 10 -5 0
-10 -4 -10 -10z"/>
<path d="M5520 9885 c0 -9 6 -12 15 -9 8 4 12 10 9 15 -8 14 -24 10 -24 -6z"/>
<path d="M4720 9854 c0 -8 5 -12 10 -9 6 3 10 10 10 16 0 5 -4 9 -10 9 -5 0
-10 -7 -10 -16z"/>
<path d="M4760 9850 c0 -5 5 -10 10 -10 6 0 10 5 10 10 0 6 -4 10 -10 10 -5 0
-10 -4 -10 -10z"/>
<path d="M5282 9815 c0 -16 2 -22 5 -12 2 9 2 23 0 30 -3 6 -5 -1 -5 -18z"/>
<path d="M4960 9821 c0 -4 11 -6 25 -3 14 2 25 6 25 8 0 2 -11 4 -25 4 -14 0
-25 -4 -25 -9z"/>
<path d="M3925 9210 c-3 -5 3 -10 14 -10 12 0 21 5 21 10 0 6 -6 10 -14 10 -8
0 -18 -4 -21 -10z"/>
<path d="M4370 9106 c0 -15 18 -31 26 -23 7 7 -7 37 -17 37 -5 0 -9 -6 -9 -14z"/>
<path d="M3881 9054 c0 -11 3 -14 6 -6 3 7 2 16 -1 19 -3 4 -6 -2 -5 -13z"/>
<path d="M3932 9050 c-16 -26 -15 -30 7 -30 21 0 31 17 23 38 -6 17 -15 15
-30 -8z"/>
<path d="M3920 8990 c0 -5 5 -10 10 -10 6 0 10 5 10 10 0 6 -4 10 -10 10 -5 0
-10 -4 -10 -10z"/>
<path d="M3557 8984 c-3 -5 -1 -27 3 -49 8 -41 10 -40 14 8 2 30 -8 55 -17 41z"/>
<path d="M4720 8916 c0 -9 5 -16 10 -16 6 0 10 4 10 9 0 6 -4 13 -10 16 -5 3
-10 -1 -10 -9z"/>
<path d="M4455 8890 c-3 -5 1 -10 9 -10 9 0 16 5 16 10 0 6 -4 10 -9 10 -6 0
-13 -4 -16 -10z"/>
<path d="M4898 8883 c-27 -7 -21 -23 7 -23 14 0 25 4 25 9 0 13 -12 18 -32 14z"/>
<path d="M4642 10858 c5 -14 64 -29 84 -21 11 4 11 8 -1 19 -17 18 -88 19 -83
2z"/>
<path d="M7365 9791 c-20 -4 -31 -13 -33 -28 -2 -13 -12 -23 -28 -26 -21 -4
-25 -1 -21 14 6 24 -9 34 -28 19 -12 -10 -18 -10 -31 1 -13 10 -17 10 -25 -2
-5 -8 -8 -21 -8 -29 1 -11 3 -10 6 3 6 22 16 22 39 -4 19 -21 18 -21 -9 -44
-29 -26 -36 -48 -13 -39 11 4 18 -6 26 -36 13 -50 8 -70 -20 -70 -11 0 -20 -5
-20 -11 0 -6 -6 -9 -13 -6 -6 2 -17 -1 -24 -8 -9 -10 -2 -11 33 -7 43 5 44 4
44 -25 0 -36 9 -46 27 -32 10 9 13 8 13 0 0 -8 8 -10 20 -6 11 3 29 0 41 -8
34 -25 59 -11 59 33 0 32 4 39 23 43 12 2 3 5 -20 6 -31 1 -43 5 -43 16 0 11
11 15 40 15 23 0 40 5 40 11 0 8 -18 10 -58 6 -50 -5 -60 -4 -75 14 -10 11
-22 17 -28 13 -7 -4 -9 9 -7 37 3 40 6 44 35 50 20 4 34 2 36 -5 2 -6 8 -8 12
-3 5 4 3 13 -3 19 -17 17 -15 25 8 31 11 3 20 14 20 24 0 10 5 24 12 31 7 7
10 11 8 11 -3 -1 -18 -4 -35 -8z m-37 -273 c3 -25 1 -27 -20 -19 -13 4 -24 18
-26 30 -3 19 1 22 20 19 17 -2 24 -10 26 -30z"/>
<path d="M6929 9682 c-28 -2 -38 -8 -43 -25 -9 -33 -7 -57 4 -57 6 0 10 7 10
15 0 8 7 15 15 15 8 0 15 -9 15 -19 0 -11 5 -23 11 -27 19 -11 30 12 27 57
l-3 44 -36 -3z"/>
<path d="M6800 9664 c0 -8 5 -12 10 -9 6 3 10 10 10 16 0 5 -4 9 -10 9 -5 0
-10 -7 -10 -16z"/>
<path d="M7325 9670 c-4 -6 -3 -16 3 -22 6 -6 12 -6 17 2 4 6 3 16 -3 22 -6 6
-12 6 -17 -2z"/>
<path d="M7378 9654 c-8 -7 3 -54 13 -54 12 0 12 47 0 54 -4 3 -10 3 -13 0z"/>
<path d="M8008 9593 c7 -3 16 -2 19 1 4 3 -2 6 -13 5 -11 0 -14 -3 -6 -6z"/>
<path d="M7870 9570 c0 -13 5 -20 13 -17 6 2 12 10 12 17 0 7 -6 15 -12 18 -8
2 -13 -5 -13 -18z"/>
<path d="M7567 9540 c-4 -15 0 -20 14 -20 10 0 19 -5 19 -11 0 -8 5 -7 15 1
14 12 13 15 -4 31 -26 24 -37 24 -44 -1z"/>
<path d="M7990 9540 c-8 -5 -11 -12 -8 -16 4 -3 14 1 23 10 18 17 9 21 -15 6z"/>
<path d="M7460 9509 c0 -5 5 -7 10 -4 6 3 10 8 10 11 0 2 -4 4 -10 4 -5 0 -10
-5 -10 -11z"/>
<path d="M7570 9491 c0 -5 5 -13 10 -16 6 -3 10 -2 10 4 0 5 -4 13 -10 16 -5
3 -10 2 -10 -4z"/>
<path d="M7740 9485 c0 -8 5 -15 10 -15 6 0 10 7 10 15 0 8 -4 15 -10 15 -5 0
-10 -7 -10 -15z"/>
<path d="M7193 9475 c-10 -10 -9 -16 2 -25 13 -10 15 -8 15 14 0 30 -1 30 -17
11z"/>
<path d="M6961 9424 c0 -11 3 -14 6 -6 3 7 2 16 -1 19 -3 4 -6 -2 -5 -13z"/>
<path d="M7385 9400 c-3 -11 -11 -20 -16 -20 -5 0 -9 -7 -9 -15 0 -9 -17 -20
-45 -27 -25 -7 -44 -16 -42 -22 4 -13 112 -14 137 -1 19 10 20 13 6 24 -11 10
-13 18 -6 31 10 19 4 50 -10 50 -5 0 -12 -9 -15 -20z"/>
<path d="M7325 9370 c-3 -5 1 -10 10 -10 9 0 13 5 10 10 -3 6 -8 10 -10 10 -2
0 -7 -4 -10 -10z"/>
<path d="M7235 9360 c3 -5 8 -10 11 -10 2 0 4 5 4 10 0 6 -5 10 -11 10 -5 0
-7 -4 -4 -10z"/>
<path d="M6970 9301 c0 -5 16 -19 35 -31 19 -12 35 -27 35 -33 0 -7 17 -13 41
-14 39 -1 40 0 34 25 -10 41 -24 52 -64 50 -20 0 -46 2 -58 6 -13 4 -23 3 -23
-3z"/>
<path d="M7220 9290 c0 -5 5 -10 11 -10 5 0 7 5 4 10 -3 6 -8 10 -11 10 -2 0
-4 -4 -4 -10z"/>
<path d="M7260 9244 c-24 -24 -24 -24 -3 -24 12 0 23 -6 26 -12 3 -9 7 -7 12
5 4 10 4 26 -1 36 -8 17 -11 17 -34 -5z"/>
<path d="M7345 9200 c3 -5 8 -10 11 -10 2 0 4 5 4 10 0 6 -5 10 -11 10 -5 0
-7 -4 -4 -10z"/>
<path d="M7202 9180 c0 -14 2 -19 5 -12 2 6 2 18 0 25 -3 6 -5 1 -5 -13z"/>
<path d="M8496 9781 c-4 -7 -5 -15 -2 -18 9 -9 19 4 14 18 -4 11 -6 11 -12 0z"/>
<path d="M5734 7426 c-8 -21 13 -46 32 -39 20 8 13 47 -9 51 -9 2 -20 -4 -23
-12z"/>
<path d="M4241 3058 c2 -61 13 -83 40 -80 13 1 30 3 37 4 18 2 15 16 -15 64
-34 54 -63 59 -62 12z"/>
<path d="M4300 2894 c-17 -9 -24 -21 -22 -36 8 -68 14 -88 27 -88 8 0 15 5 15
11 0 5 5 7 10 4 6 -4 10 6 10 22 0 15 3 45 6 66 7 41 -2 46 -46 21z"/>
<path d="M4360 2566 c0 -22 17 -28 24 -10 9 22 8 24 -9 24 -8 0 -15 -6 -15
-14z"/>
<path d="M4370 2414 c0 -8 5 -12 10 -9 6 3 10 10 10 16 0 5 -4 9 -10 9 -5 0
-10 -7 -10 -16z"/>
<path d="M4392 2273 c-27 -5 -41 -31 -22 -43 24 -15 80 10 80 36 0 14 -13 15
-58 7z"/>
<path d="M6760 2576 c0 -8 16 -23 35 -35 32 -19 36 -19 42 -4 4 10 -2 23 -16
35 -27 21 -61 24 -61 4z"/>
<path d="M6106 1605 c4 -8 7 -15 9 -15 2 0 5 7 9 15 3 9 0 15 -9 15 -9 0 -12
-6 -9 -15z"/>
<path d="M6170 1573 c0 -25 3 -44 6 -41 10 10 13 88 3 88 -5 0 -9 -21 -9 -47z"/>
<path d="M6255 1600 c-3 -5 -2 -10 4 -10 5 0 13 5 16 10 3 6 2 10 -4 10 -5 0
-13 -4 -16 -10z"/>
<path d="M6457 1593 c-4 -3 -7 -11 -7 -17 0 -6 5 -5 12 2 6 6 9 14 7 17 -3 3
-9 2 -12 -2z"/>
<path d="M6541 1574 c0 -11 3 -14 6 -6 3 7 2 16 -1 19 -3 4 -6 -2 -5 -13z"/>
<path d="M6304 1569 c-3 -6 -17 -8 -30 -5 -17 5 -24 2 -24 -8 0 -20 50 -14 62
7 10 19 3 24 -8 6z"/>
<path d="M6395 1561 c-3 -12 -11 -21 -16 -21 -5 0 -9 -4 -9 -10 0 -5 5 -10 10
-10 11 0 34 50 26 57 -2 3 -7 -5 -11 -16z"/>
<path d="M6633 1540 c0 -25 2 -35 4 -22 2 12 2 32 0 45 -2 12 -4 2 -4 -23z"/>
<path d="M6678 1545 c-2 -19 -1 -35 3 -35 4 0 9 16 11 35 2 19 1 35 -3 35 -4
0 -9 -16 -11 -35z"/>
<path d="M6762 1540 c0 -19 2 -27 5 -17 2 9 2 25 0 35 -3 9 -5 1 -5 -18z"/>
<path d="M6801 1532 l-1 -42 25 16 c14 9 25 23 25 32 0 13 -3 13 -19 -2 -19
-17 -20 -17 -24 11 -3 20 -4 17 -6 -15z"/>
<path d="M6450 1538 c0 -19 2 -20 10 -8 13 19 13 30 0 30 -5 0 -10 -10 -10
-22z"/>
<path d="M6577 1549 c-9 -5 -21 -8 -26 -5 -5 3 -11 -3 -14 -14 -5 -20 7 -28
18 -10 3 5 12 7 19 4 8 -3 16 4 19 15 3 12 4 21 4 21 -1 0 -10 -5 -20 -11z"/>
<path d="M6920 1550 c0 -5 5 -10 10 -10 6 0 10 5 10 10 0 6 -4 10 -10 10 -5 0
-10 -4 -10 -10z"/>
<path d="M7005 1550 c-3 -5 -2 -10 4 -10 5 0 13 5 16 10 3 6 2 10 -4 10 -5 0
-13 -4 -16 -10z"/>
<path d="M6907 1516 c-4 -10 -5 -21 -2 -24 9 -9 17 6 13 25 -3 17 -4 17 -11
-1z"/>
<path d="M7045 1480 c-3 -5 -1 -10 4 -10 6 0 11 5 11 10 0 6 -2 10 -4 10 -3 0
-8 -4 -11 -10z"/>
<path d="M6453 1360 c-3 -11 -9 -20 -14 -20 -5 0 -9 -9 -9 -20 0 -11 5 -20 10
-20 6 0 10 6 10 14 0 7 7 19 15 26 17 14 20 40 4 40 -6 0 -13 -9 -16 -20z"/>
<path d="M6607 1373 c-4 -3 -7 -27 -7 -51 0 -57 8 -51 14 11 4 49 4 51 -7 40z"/>
<path d="M6511 1358 c0 -9 -6 -18 -12 -20 -6 -2 -9 -15 -7 -28 l4 -25 13 29
c6 16 10 37 8 45 -4 14 -5 14 -6 -1z"/>
<path d="M6640 1330 c0 -5 5 -10 10 -10 6 0 10 5 10 10 0 6 -4 10 -10 10 -5 0
-10 -4 -10 -10z"/>
<path d="M6635 1290 c-3 -5 -2 -10 4 -10 5 0 13 5 16 10 3 6 2 10 -4 10 -5 0
-13 -4 -16 -10z"/>
<path d="M6745 1290 c-3 -5 -1 -10 4 -10 6 0 11 5 11 10 0 6 -2 10 -4 10 -3 0
-8 -4 -11 -10z"/>
<path d="M5996 1064 c-8 -22 -10 -20 28 -43 42 -26 56 -26 56 -1 0 12 -13 28
-32 40 -40 24 -44 24 -52 4z"/>
<path d="M6166 971 c-9 -14 3 -34 36 -60 29 -23 31 -24 44 -7 16 22 2 49 -33
65 -29 13 -40 14 -47 2z"/>
<path d="M5930 880 c0 -5 5 -10 10 -10 6 0 10 5 10 10 0 6 -4 10 -10 10 -5 0
-10 -4 -10 -10z"/>
<path d="M5835 760 c-8 -13 4 -32 16 -25 12 8 12 35 0 35 -6 0 -13 -4 -16 -10z"/>
<path d="M4211 2207 c-48 -17 -52 -37 -8 -37 36 0 72 24 62 41 -8 11 -11 11
-54 -4z"/>
<path d="M4597 1353 c-12 -11 -8 -23 8 -23 8 0 15 7 15 15 0 16 -12 20 -23 8z"/>
<path d="M4651 1191 c-15 -10 -8 -41 9 -41 15 0 25 29 14 40 -5 5 -15 5 -23 1z"/>
<path d="M10422 1228 c-16 -16 -15 -40 4 -121 15 -59 20 -68 38 -65 12 1 26 0
31 -4 17 -10 55 10 67 37 8 19 8 38 -1 81 -11 49 -17 57 -47 70 -41 17 -76 18
-92 2z"/>
<path d="M4705 789 c-10 -15 1 -23 20 -15 9 3 13 10 10 16 -8 13 -22 13 -30
-1z"/>
<path d="M9387 734 c-9 -10 4 -34 19 -34 8 0 14 9 14 20 0 19 -19 27 -33 14z"/>
<path d="M9520 675 c0 -8 5 -15 10 -15 6 0 10 7 10 15 0 8 -4 15 -10 15 -5 0
-10 -7 -10 -15z"/>
<path d="M9620 652 c0 -38 9 -64 21 -56 14 8 10 54 -6 70 -13 14 -15 12 -15
-14z"/>
<path d="M11230 647 c0 -59 6 -72 27 -56 17 15 16 69 -1 92 -21 27 -26 21 -26
-36z"/>
<path d="M10700 596 c-10 -20 -11 -29 -2 -38 18 -18 33 3 24 36 l-8 28 -14
-26z"/>
<path d="M10720 14021 c0 -5 8 -19 18 -31 16 -20 19 -20 31 -6 7 9 11 23 7 31
-6 16 -56 21 -56 6z"/>
<path d="M7987 13595 c9 -59 25 -91 18 -36 -3 24 -10 51 -15 60 -6 11 -7 3 -3
-24z"/>
<path d="M7969 13267 c-9 -12 -19 -35 -23 -52 -6 -26 -3 -24 19 14 28 47 30
73 4 38z"/>
<path d="M8075 13000 c3 -5 12 -10 20 -10 8 0 17 5 20 10 4 6 -5 10 -20 10
-15 0 -24 -4 -20 -10z"/>
<path d="M8645 12780 c3 -5 11 -10 16 -10 6 0 7 5 4 10 -3 6 -11 10 -16 10 -6
0 -7 -4 -4 -10z"/>
<path d="M8697 12719 c7 -7 15 -10 18 -7 3 3 -2 9 -12 12 -14 6 -15 5 -6 -5z"/>
<path d="M10989 12106 c-2 -3 -54 -8 -114 -11 -61 -4 -113 -9 -117 -11 -4 -3
-52 -5 -108 -5 -55 -1 -103 -5 -106 -11 -3 -5 -20 -9 -38 -8 -54 3 -63 1 -43
-11 10 -6 30 -8 45 -4 65 17 533 36 550 22 9 -7 11 -27 8 -66 -7 -77 -33 -360
-51 -566 -17 -184 -30 -318 -45 -460 -5 -49 -12 -126 -15 -170 -3 -44 -12
-129 -20 -190 -8 -60 -14 -119 -14 -130 1 -11 -4 -58 -10 -105 -6 -47 -18
-159 -27 -250 -8 -91 -19 -169 -24 -173 -10 -11 -172 -10 -365 3 -83 5 -175 9
-205 9 -51 -1 -53 -2 -20 -9 19 -5 85 -11 145 -15 61 -3 133 -8 160 -11 28 -2
101 -9 164 -14 62 -5 115 -11 118 -13 6 -6 -21 -291 -62 -645 -4 -34 -1 -44
15 -54 11 -7 20 -21 20 -31 0 -19 -28 -87 -40 -97 -6 -5 -14 -33 -50 -165 -34
-126 -76 -209 -113 -226 -40 -17 -48 -53 -17 -69 18 -9 21 -18 16 -41 -3 -16
-1 -29 4 -29 6 0 10 6 10 13 0 18 27 72 43 85 6 5 56 25 110 43 84 28 101 31
119 20 17 -10 22 -10 34 6 7 10 14 27 15 38 6 64 4 102 -6 120 -23 38 -26 80
-11 126 14 42 15 127 1 149 -3 5 -16 10 -29 10 -13 0 -30 8 -39 18 -17 19 -18
7 12 327 11 121 28 308 36 415 8 107 17 211 20 230 5 35 50 533 60 665 3 39
10 133 17 210 6 77 11 159 10 183 -1 24 1 48 4 54 8 13 15 82 16 178 1 41 5
77 9 80 4 3 9 28 9 55 1 28 8 93 16 145 12 86 34 328 34 373 0 14 -10 17 -63
17 -35 0 -66 -2 -68 -4z m38 -818 c-3 -8 -6 -5 -6 6 -1 11 2 17 5 13 3 -3 4
-12 1 -19z m3 -104 c0 -8 -4 -12 -10 -9 -5 3 -10 10 -10 16 0 5 5 9 10 9 6 0
10 -7 10 -16z m-290 -2409 c0 -19 -2 -35 -4 -35 -2 0 -11 -3 -20 -6 -20 -7
-21 12 -3 49 17 37 27 34 27 -8z"/>
<path d="M9763 12003 c9 -2 23 -2 30 0 6 3 -1 5 -18 5 -16 0 -22 -2 -12 -5z"/>
<path d="M1056 11240 c-11 -57 26 -103 70 -86 12 4 10 12 -7 43 -11 21 -29 46
-38 56 -18 18 -18 18 -25 -13z"/>
<path d="M1466 10590 c-3 -18 0 -44 9 -63 14 -31 14 -31 9 27 -5 70 -9 78 -18
36z"/>
<path d="M861 10492 c-20 -3 -22 -8 -16 -30 4 -15 8 -42 10 -61 2 -28 9 -38
38 -55 63 -36 73 -87 28 -130 -16 -16 -32 -39 -35 -52 -4 -13 -10 -24 -15 -24
-5 0 -4 14 2 30 10 27 9 32 -10 45 -13 9 -20 22 -17 30 10 25 -25 30 -47 7
-22 -24 -24 -54 -8 -118 17 -65 47 -80 150 -76 33 2 37 6 58 55 50 113 63 137
90 166 16 17 36 31 45 31 21 0 11 23 -17 36 -120 59 -186 98 -197 119 -15 27
-25 32 -59 27z"/>
<path d="M8813 10043 c15 -2 37 -2 50 0 12 2 0 4 -28 4 -27 0 -38 -2 -22 -4z"/>
<path d="M8890 10042 c0 -5 46 -12 103 -16 438 -26 667 -37 757 -34 l105 3
-175 12 c-171 12 -405 26 -662 39 -81 4 -128 2 -128 -4z"/>
<path d="M1472 10008 c-10 -14 -14 -33 -37 -181 -8 -54 -13 -102 -10 -107 3
-4 16 -11 31 -14 14 -4 38 -18 52 -31 15 -14 31 -25 36 -25 11 0 -2 281 -15
333 -10 38 -36 50 -57 25z"/>
<path d="M624 9952 c2 -4 19 -9 36 -10 19 -2 29 1 25 8 -3 5 -20 10 -36 10
-17 0 -28 -4 -25 -8z"/>
<path d="M9323 9752 c-53 -122 -123 -336 -123 -379 0 -15 -15 -55 -33 -88 -24
-45 -37 -60 -54 -60 -32 0 -35 -9 -16 -49 32 -68 24 -70 -203 -76 l-199 -5 0
-45 0 -45 70 -7 c39 -4 122 -9 186 -10 100 -3 120 0 136 15 11 9 24 17 29 17
22 0 72 67 82 110 6 25 18 70 26 100 8 30 29 118 46 195 18 77 36 154 41 170
13 45 40 197 36 201 -2 2 -13 -17 -24 -44z"/>
<path d="M346 9571 c-4 -5 17 -11 49 -13 34 -2 54 1 52 7 -5 13 -93 19 -101 6z"/>
<path d="M10399 9557 c-11 -8 -19 -36 -24 -84 -5 -56 -12 -78 -31 -98 -18 -19
-24 -37 -24 -70 0 -57 -14 -92 -40 -100 -12 -4 -28 -22 -36 -41 -10 -23 -23
-36 -42 -40 -47 -10 -52 -13 -52 -29 0 -10 27 -28 69 -48 93 -42 105 -86 28
-101 -34 -7 -74 -32 -65 -41 3 -3 28 -8 57 -12 33 -4 51 -11 51 -19 0 -19 28
-32 107 -49 37 -9 76 -18 85 -21 13 -4 20 5 30 37 9 31 19 45 40 53 15 6 28
13 28 17 0 8 -75 39 -95 39 -27 0 -15 19 20 31 29 11 34 17 29 34 -4 11 -10
21 -14 23 -4 1 -15 9 -25 16 -17 12 -17 14 0 39 22 35 13 61 -17 51 -13 -4
-28 -13 -33 -21 -12 -17 -45 -7 -45 13 0 8 5 14 10 14 6 0 10 14 10 31 0 26
-3 29 -21 24 -19 -6 -20 -3 -17 51 3 63 22 82 38 40 5 -15 17 -29 25 -32 8 -4
15 -15 15 -25 0 -10 7 -19 15 -19 8 0 15 6 15 14 0 8 7 16 15 20 10 4 15 -1
15 -14 0 -34 32 -21 78 30 33 37 42 54 37 69 -3 12 -15 21 -24 21 -16 0 -18 8
-17 56 1 42 -3 59 -16 68 -10 7 -18 17 -18 22 0 10 -40 29 -83 40 -15 3 -30
10 -33 15 -7 12 -26 11 -45 -4z"/>
<path d="M2661 9214 c0 -11 3 -14 6 -6 3 7 2 16 -1 19 -3 4 -6 -2 -5 -13z"/>
<path d="M9267 9193 c-4 -6 -14 -46 -22 -89 -16 -83 -6 -144 23 -144 7 0 10 5
7 11 -4 6 2 17 14 25 12 8 21 21 21 29 0 8 9 19 20 25 11 6 20 17 20 25 0 9 6
12 15 9 8 -4 15 -1 15 5 0 6 -8 11 -18 11 -26 0 -62 28 -62 49 0 24 -25 57
-33 44z"/>
<path d="M1554 9149 c-19 -21 -19 -21 6 -18 14 2 26 12 28 22 5 23 -11 22 -34
-4z"/>
<path d="M10582 8998 c5 -15 28 -18 29 -3 0 6 -7 12 -17 13 -10 3 -15 -1 -12
-10z"/>
<path d="M1240 8400 c0 -5 11 -10 25 -10 14 0 25 5 25 10 0 6 -11 10 -25 10
-14 0 -25 -4 -25 -10z"/>
<path d="M721 8298 c-12 -4 -25 -18 -30 -30 -12 -32 20 -50 62 -36 22 8 47 41
47 63 0 8 -60 10 -79 3z"/>
<path d="M414 8064 c3 -9 6 -22 6 -30 0 -8 9 -14 20 -14 11 0 20 5 20 10 0 11
-36 50 -46 50 -3 0 -3 -7 0 -16z"/>
<path d="M478 7956 c-21 -5 -38 -13 -38 -17 0 -13 44 -23 48 -10 2 6 10 11 17
11 16 0 29 17 18 22 -5 3 -25 0 -45 -6z"/>
<path d="M320 7935 c0 -19 27 -19 60 0 25 14 24 14 -17 15 -32 0 -43 -4 -43
-15z"/>
<path d="M739 7788 c-8 -14 -14 -18 -17 -10 -5 16 -42 15 -66 -3 -26 -20 -12
-31 20 -17 14 7 35 10 47 7 30 -6 151 18 152 30 0 6 -28 11 -62 13 -56 3 -63
1 -74 -20z"/>
<path d="M83 7493 l-83 -4 0 -58 0 -58 59 -6 c88 -10 192 2 216 24 32 28 77
41 107 30 19 -7 32 -5 57 10 34 20 38 31 19 47 -15 11 -251 21 -375 15z"/>
</g>
</svg>
