<?xml version="1.0" standalone="no"?>
<!DOCTYPE svg PUBLIC "-//W3C//DTD SVG 20010904//EN"
 "http://www.w3.org/TR/2001/REC-SVG-20010904/DTD/svg10.dtd">
<svg version="1.0" xmlns="http://www.w3.org/2000/svg"
 width="1200.000000pt" height="1600.000000pt" viewBox="0 0 1200.000000 1600.000000"
 preserveAspectRatio="xMidYMid meet">

<g transform="translate(0.000000,1600.000000) scale(0.100000,-0.100000)"
fill="#000000" stroke="none">
<path d="M6247 13549 c-9 -6 -17 -14 -17 -19 0 -16 30 -11 37 5 8 21 1 25 -20
14z"/>
<path d="M6478 13555 c-5 -5 -39 -10 -97 -14 -11 -1 -12 -4 -4 -12 22 -22 4
-37 -40 -32 -33 4 -48 0 -70 -17 -17 -14 -26 -28 -22 -37 4 -11 0 -14 -14 -10
-12 3 -22 -1 -25 -9 -7 -19 -55 -18 -63 2 -4 11 -13 14 -29 10 -21 -6 -24 -2
-30 34 -9 56 -21 41 -29 -38 -6 -58 -33 -135 -63 -180 -7 -11 -21 -6 -66 23
-31 21 -56 41 -56 46 0 4 -12 14 -27 21 -16 7 -32 23 -38 36 -6 14 -18 22 -33
22 -13 0 -32 5 -43 10 -15 8 -19 7 -19 -5 0 -8 -4 -15 -10 -15 -5 0 -10 5 -10
12 0 6 -3 8 -7 5 -3 -4 -16 4 -29 18 -24 26 -54 25 -54 -1 0 -8 -10 -14 -25
-14 -14 0 -25 5 -25 10 0 6 -4 10 -10 10 -5 0 -10 -4 -10 -9 0 -10 70 -81 95
-96 25 -15 20 -28 -15 -43 -18 -7 -29 -8 -25 -2 3 5 -2 13 -11 17 -10 4 -19 2
-22 -5 -3 -11 -32 -17 -32 -7 0 9 40 45 49 45 6 0 13 5 16 11 5 7 -7 10 -36 7
-32 -2 -43 1 -41 10 1 9 -5 11 -23 6 -18 -5 -25 -2 -25 9 0 8 -13 20 -30 26
-16 5 -30 17 -30 25 0 23 -13 20 -40 -9 -26 -28 -53 -34 -44 -10 4 8 12 15 20
15 9 0 14 11 14 28 0 31 -37 59 -64 49 -8 -3 -18 -2 -21 3 -4 6 0 10 7 10 8 1
7 4 -4 10 -21 13 -74 6 -113 -14 -38 -20 -109 -21 -129 -1 -18 19 -26 19 -26
1 0 -13 -4 -13 -29 0 -33 17 -145 11 -169 -8 -13 -11 -15 -10 -9 10 4 18 2 22
-10 18 -8 -3 -26 -6 -39 -6 -17 0 -24 -6 -24 -20 0 -11 -4 -20 -10 -20 -5 0
-7 7 -4 15 8 19 -9 19 -44 1 -15 -7 -44 -16 -64 -20 -21 -4 -38 -10 -38 -14 0
-11 69 -2 76 9 7 12 44 11 44 -1 0 -5 -9 -10 -20 -10 -11 0 -20 -4 -20 -10 0
-5 -11 -10 -25 -10 -14 0 -25 -4 -25 -10 0 -5 -19 -10 -43 -10 -24 0 -47 -4
-53 -9 -5 -5 -27 -14 -49 -21 -51 -15 -164 -60 -190 -76 -11 -7 -51 -24 -90
-40 -38 -15 -99 -44 -134 -66 -34 -21 -66 -38 -70 -38 -3 0 -17 -10 -31 -21
-18 -15 -20 -19 -7 -15 71 23 92 17 32 -9 -20 -8 -48 -12 -64 -9 -28 6 -116
-25 -94 -33 7 -2 22 1 34 7 14 8 24 9 31 2 7 -7 1 -15 -19 -26 -17 -8 -38 -28
-48 -43 -10 -15 -27 -35 -38 -43 -11 -8 -41 -33 -66 -56 -25 -22 -62 -51 -81
-64 -19 -13 -38 -28 -41 -32 -9 -13 -72 -58 -82 -58 -13 0 4 43 27 67 12 13
26 23 32 23 6 0 19 9 30 21 16 17 16 22 4 30 -13 8 -12 12 4 24 11 8 17 17 14
21 -3 3 -21 -8 -40 -25 -28 -26 -31 -32 -18 -41 12 -8 9 -10 -12 -10 -35 0
-87 -61 -135 -159 -21 -42 -36 -76 -34 -76 3 0 -7 -13 -22 -29 -15 -16 -25
-32 -21 -35 3 -3 11 1 17 10 7 8 24 24 40 33 15 10 27 25 27 32 0 8 9 14 20
14 27 0 25 -26 -5 -62 -24 -29 -33 -58 -17 -58 4 0 18 18 32 40 14 22 28 41
32 41 5 1 12 2 17 3 14 2 50 51 67 92 30 71 107 149 218 219 18 11 41 29 53
40 62 59 118 95 148 95 7 0 18 7 25 15 8 9 30 15 56 15 24 0 44 5 44 10 0 6
16 10 35 10 20 0 53 9 75 20 22 11 49 20 61 20 21 0 21 -1 4 -20 -9 -10 -20
-18 -24 -17 -13 3 -160 -90 -153 -98 4 -4 -3 -2 -15 4 -13 6 -23 19 -23 27 0
11 -6 14 -16 10 -9 -3 -27 -9 -40 -12 -13 -3 -24 -10 -24 -14 0 -11 39 -20 45
-9 9 13 34 -1 29 -16 -4 -10 4 -12 37 -8 52 7 47 -6 -17 -43 -24 -14 -44 -29
-44 -33 0 -4 -17 -17 -38 -29 -21 -12 -54 -35 -73 -51 -26 -23 -42 -29 -72
-28 -22 1 -41 7 -44 13 -3 7 -17 0 -37 -20 -17 -17 -53 -42 -79 -55 -42 -21
-64 -51 -37 -51 5 0 -2 -16 -15 -36 -14 -20 -25 -43 -25 -50 0 -7 -4 -14 -9
-16 -8 -3 -46 -56 -151 -213 -58 -85 -114 -215 -100 -229 6 -6 4 -16 -6 -28
-9 -10 -18 -34 -20 -55 -2 -20 -11 -53 -21 -72 -9 -20 -16 -53 -15 -73 0 -21
-4 -38 -9 -38 -6 0 -8 -12 -5 -27 8 -35 -6 -140 -28 -213 -38 -130 -52 -198
-50 -240 2 -25 -3 -73 -11 -108 -8 -35 -15 -81 -15 -103 0 -22 -9 -65 -19 -97
-14 -42 -18 -75 -14 -122 7 -90 7 -85 -5 -185 -6 -49 -12 -166 -14 -260 -2
-178 14 -311 49 -405 10 -25 16 -52 15 -62 -2 -9 2 -19 8 -23 19 -12 38 -71
45 -146 5 -47 13 -78 23 -85 9 -7 16 -30 17 -62 1 -29 5 -55 8 -59 4 -3 7 -15
7 -26 0 -19 -5 -19 -72 -14 -40 3 -197 22 -348 42 -399 52 -488 65 -575 85
-27 6 -84 13 -125 15 -147 8 -223 16 -242 26 -10 6 -27 8 -36 5 -10 -3 -33 -1
-52 5 -32 10 -146 25 -380 49 -52 5 -131 16 -175 25 -44 8 -123 20 -175 25
-52 6 -106 13 -120 16 -14 3 -74 9 -135 14 -144 11 -651 76 -737 95 -107 24
-108 23 -108 -35 0 -27 2 -50 5 -50 11 0 427 -51 530 -65 118 -16 340 -43 820
-100 165 -20 365 -44 445 -55 136 -19 771 -97 1250 -155 118 -14 224 -27 235
-30 11 -2 30 -4 42 -4 13 -1 29 -13 40 -32 12 -20 24 -29 35 -25 14 3 18 -2
18 -25 0 -19 5 -29 15 -29 9 0 18 -7 21 -15 4 -8 10 -13 14 -10 7 5 18 -34 23
-82 1 -12 4 -24 7 -26 3 -3 6 87 6 201 1 256 10 357 33 402 39 74 79 156 89
182 8 20 16 25 31 21 16 -4 21 -1 21 16 0 11 3 21 8 21 4 0 16 16 27 36 10 20
35 44 55 54 47 24 118 29 130 10 8 -13 10 -13 10 1 0 8 6 24 14 35 14 18 16
18 32 2 15 -15 19 -15 52 4 28 15 37 17 43 6 5 -7 9 -16 9 -20 0 -20 20 -5 20
15 0 12 9 33 19 46 l19 24 12 -22 c6 -12 9 -29 6 -37 -3 -8 1 -14 9 -14 8 0
15 5 15 10 0 6 7 10 15 10 8 0 24 5 35 10 11 6 29 15 41 21 19 9 20 8 14 -13
-4 -13 -16 -35 -26 -50 -12 -16 -16 -29 -9 -33 5 -3 10 -15 10 -26 0 -12 5
-19 13 -16 6 2 11 12 9 21 -4 21 24 32 43 16 12 -10 15 -10 15 2 0 8 14 27 30
43 34 33 37 28 13 -18 -9 -18 -16 -37 -15 -44 1 -6 -2 -14 -8 -18 -12 -7 -14
-45 -2 -45 4 0 20 12 35 26 16 14 31 24 34 21 6 -7 -29 -56 -40 -57 -14 0 -66
-53 -61 -62 3 -4 10 -5 16 -2 18 11 90 23 105 17 7 -3 13 -14 13 -24 0 -14 7
-19 30 -19 24 0 30 4 30 20 0 17 3 19 18 11 10 -5 24 -6 31 -1 7 4 65 6 127 4
102 -3 114 -2 114 13 0 13 3 14 12 5 7 -7 26 -12 42 -12 53 0 166 -36 166 -52
0 -5 7 -8 15 -8 8 0 15 -8 15 -18 0 -15 6 -18 30 -14 24 3 31 0 39 -21 5 -14
16 -27 23 -30 8 -3 3 -9 -14 -17 -31 -15 -36 -28 -13 -36 23 -9 18 -24 -7 -21
-18 2 -23 -3 -23 -23 0 -25 -2 -25 -100 -32 -55 -3 -176 -9 -270 -13 -227 -8
-475 -31 -610 -56 -60 -11 -130 -24 -155 -28 -25 -5 -80 -18 -122 -30 -43 -11
-95 -21 -115 -21 -54 0 -110 -18 -133 -42 -24 -27 -34 -106 -22 -183 7 -44 6
-71 -3 -103 -8 -26 -10 -53 -6 -65 l8 -22 7 22 c9 28 35 37 55 19 9 -7 26 -17
39 -21 32 -10 66 -88 92 -215 12 -58 37 -176 56 -263 78 -351 125 -420 329
-487 55 -18 114 -39 130 -47 89 -44 171 -66 238 -64 37 1 67 -2 67 -7 0 -10
-4 -10 120 -15 52 -2 119 -12 147 -22 49 -16 52 -19 46 -43 -6 -24 -4 -25 29
-19 52 8 80 -18 74 -68 -2 -22 -5 -46 -5 -53 -1 -7 -5 -11 -10 -8 -4 3 -13 -6
-19 -19 -7 -14 -16 -25 -22 -25 -5 0 -10 -8 -10 -19 0 -10 -6 -24 -13 -30 -8
-6 -20 -30 -27 -53 -14 -46 -55 -98 -77 -98 -7 0 -13 -10 -13 -22 0 -13 -5
-30 -10 -38 -8 -12 -13 -13 -30 -2 -17 10 -20 10 -20 -3 0 -25 -38 -18 -42 8
-5 36 -23 20 -23 -20 0 -35 -2 -37 -47 -52 -40 -12 -48 -19 -48 -39 0 -17 -4
-22 -14 -19 -9 4 -16 -3 -21 -20 -8 -33 1 -42 20 -17 9 11 14 14 15 6 0 -7 -9
-22 -19 -33 -25 -27 -65 -18 -55 13 4 13 2 18 -4 14 -11 -7 -20 21 -14 47 2
11 14 17 35 18 l32 1 -30 8 c-16 4 -37 9 -45 11 -10 3 -15 -3 -15 -18 0 -11
-3 -25 -7 -29 -5 -4 -8 0 -8 9 0 9 -7 17 -15 17 -13 0 -13 -3 -3 -20 10 -15
10 -22 0 -32 -18 -18 -14 -31 8 -25 11 3 20 1 20 -4 0 -5 -4 -9 -9 -9 -5 0
-18 -16 -30 -35 -21 -36 -47 -45 -69 -23 -9 9 -12 8 -12 -4 0 -9 -12 -21 -27
-26 l-28 -9 25 -8 c16 -5 25 -4 28 4 3 9 7 9 18 0 12 -10 12 -14 -3 -25 -10
-7 -27 -14 -38 -14 -11 -1 -14 -4 -7 -7 7 -2 12 -22 12 -44 0 -32 -3 -39 -20
-39 -17 0 -20 7 -20 40 0 22 -4 40 -10 40 -5 0 -10 7 -10 15 0 8 -4 15 -9 15
-5 0 -9 -16 -9 -35 0 -19 4 -35 10 -35 9 0 4 -57 -8 -102 -4 -12 0 -18 10 -18
9 0 22 -14 31 -30 9 -18 23 -30 35 -30 11 0 20 -4 20 -10 0 -5 11 -10 24 -10
17 0 26 7 30 25 4 14 11 25 16 25 6 0 10 7 10 15 0 8 -8 15 -17 15 -14 0 -14
3 -5 12 20 20 33 -10 29 -64 -3 -40 -1 -48 19 -59 13 -7 31 -23 39 -35 13 -20
19 -22 41 -14 32 13 37 12 29 -1 -10 -16 25 -49 52 -49 20 0 23 5 23 40 0 42
11 50 36 25 9 -8 12 -15 9 -15 -4 0 14 -23 39 -51 25 -28 46 -57 46 -64 0 -8
12 -15 27 -17 16 -2 27 -10 29 -21 3 -22 55 -85 72 -86 6 -1 12 -9 12 -19 0
-23 40 -62 63 -62 9 0 17 -4 17 -9 0 -12 -58 -71 -70 -71 -4 0 -11 -17 -15
-37 -10 -57 -23 -76 -49 -71 -18 4 -25 -2 -33 -23 -8 -20 -8 -29 0 -32 6 -2
-4 -18 -23 -36 -23 -21 -31 -34 -22 -38 6 -2 12 -13 12 -24 0 -17 -3 -18 -20
-9 -11 6 -20 19 -20 30 0 11 -19 37 -42 60 -41 39 -68 51 -68 30 0 -5 7 -10
15 -10 8 0 15 -4 15 -10 0 -5 -22 -10 -49 -10 -51 0 -101 -14 -112 -31 -9 -16
-39 1 -45 27 -9 34 -44 35 -75 1 -26 -28 -28 -28 -113 -24 -69 3 -86 1 -86
-10 0 -10 -7 -12 -20 -8 -11 4 -20 2 -20 -4 0 -6 10 -11 22 -11 l22 0 -22 -20
c-17 -16 -21 -27 -16 -47 4 -14 7 -34 8 -43 2 -31 77 -131 176 -232 52 -54 97
-101 99 -103 2 -2 -34 -62 -81 -132 -123 -186 -166 -265 -229 -431 -23 -58
-42 -82 -67 -83 -83 -3 -123 -14 -232 -64 -52 -23 -115 -46 -140 -50 -24 -4
-54 -13 -65 -21 -18 -11 -219 -68 -285 -81 -120 -22 -170 -40 -271 -99 -64
-38 -43 -36 -255 -20 -23 2 -84 -1 -135 -6 -77 -7 -113 -6 -199 9 -133 23
-562 26 -680 5 -266 -48 -493 -133 -975 -367 -71 -35 -179 -84 -240 -110 -131
-56 -202 -88 -355 -162 -98 -48 -121 -64 -157 -109 l-43 -53 0 -2090 0 -2091
6000 0 6000 0 0 2013 -1 2012 -42 32 c-23 18 -125 94 -227 169 -102 74 -208
155 -235 178 -28 24 -89 70 -135 102 -47 32 -105 72 -130 91 -40 29 -86 54
-152 83 -13 6 -36 19 -53 30 -16 11 -46 27 -65 35 -19 8 -53 24 -75 36 -183
96 -270 139 -330 161 -222 82 -285 93 -500 92 -148 -1 -183 -4 -265 -26 -52
-14 -117 -36 -145 -50 -60 -30 -189 -82 -228 -92 -28 -7 -272 45 -312 67 -11
6 -49 26 -85 46 -60 33 -72 35 -152 36 -79 0 -122 11 -90 22 8 3 10 9 4 16
-15 20 -22 47 -12 47 5 0 12 -9 15 -20 6 -19 35 -27 48 -14 4 4 -5 20 -18 36
-14 16 -25 34 -25 39 0 16 -67 10 -74 -7 -8 -22 -9 -22 17 -17 24 5 25 2 18
-89 -1 -10 -41 -5 -41 5 0 4 -6 7 -12 6 -32 -5 -116 28 -147 58 -8 9 -11 23
-7 40 6 23 5 25 -19 21 -14 -3 -28 -1 -31 4 -3 4 -9 6 -14 3 -16 -10 -24 40
-22 138 3 104 -9 128 -28 55 -24 -97 -27 -98 -66 -22 -47 90 -49 91 -49 39 0
-55 -19 -55 -22 0 -1 22 -2 46 -2 53 -2 22 -18 13 -17 -10 1 -20 -5 -23 -41
-26 -38 -3 -43 0 -57 27 -15 27 -14 30 2 34 13 4 12 5 -5 6 -17 1 -34 26 -84
126 l-63 125 36 33 c20 18 56 50 80 71 99 88 275 266 263 266 -2 0 14 18 36
40 26 26 39 48 39 67 0 19 3 24 9 15 6 -11 14 -6 30 17 12 17 24 41 25 54 1
12 10 36 19 54 19 36 22 57 7 48 -5 -3 -3 16 5 42 15 48 12 83 -6 83 -5 0 -9
-4 -9 -10 0 -5 -15 -10 -34 -10 -24 0 -36 5 -39 18 -4 15 -5 15 -6 -2 -1 -17
-7 -18 -62 -12 -34 3 -70 6 -80 6 -11 0 -19 7 -19 15 0 11 -11 15 -40 15 -29
0 -40 -4 -40 -15 0 -11 -11 -15 -40 -15 -29 0 -40 -4 -40 -15 0 -11 -11 -15
-40 -15 -22 0 -40 5 -40 10 0 6 -9 10 -19 10 -10 0 -22 7 -25 16 -6 16 -8 16
-24 0 -10 -9 -31 -16 -45 -16 -26 0 -27 2 -27 50 0 47 -11 65 -24 38 -3 -7 -4
6 -2 30 2 23 0 42 -5 42 -5 0 -9 8 -9 18 -1 15 -2 15 -15 -2 -8 -11 -16 -18
-17 -15 -19 30 -28 51 -28 64 0 8 -7 15 -16 15 -12 0 -15 6 -10 23 3 12 8 40
12 62 15 109 11 103 54 110 22 4 40 11 40 16 0 5 20 9 44 9 50 0 61 10 70 63
5 28 12 37 26 37 11 0 20 7 20 15 0 8 5 15 10 15 6 0 13 -7 16 -15 9 -22 54
-20 54 3 1 16 1 16 14 0 7 -10 23 -18 35 -18 21 0 22 3 16 40 -4 25 -3 40 3
40 6 0 12 -6 15 -12 3 -10 9 -10 26 0 11 6 28 12 36 12 17 0 21 -35 5 -45 -12
-7 -13 -55 -2 -71 14 -22 53 -27 73 -8 24 21 26 95 4 114 -9 7 -15 29 -15 51
0 28 4 39 15 39 9 0 15 9 15 21 0 18 4 20 28 14 33 -8 52 -26 35 -32 -7 -3
-13 -12 -13 -21 1 -20 29 -73 30 -54 0 6 6 12 13 12 7 0 24 13 37 28 14 16 32
31 40 34 12 4 13 8 3 19 -11 11 -13 10 -13 -3 0 -15 -27 -28 -62 -28 -15 0
-18 9 -18 45 0 45 0 45 35 45 25 0 35 4 35 16 0 8 4 13 9 10 16 -10 41 5 56
33 18 37 30 101 17 101 -5 0 -12 9 -15 20 -4 17 -14 20 -56 20 -45 0 -51 2
-51 21 0 11 -20 40 -45 63 -37 36 -45 50 -45 80 0 25 -4 36 -15 36 -8 0 -15 4
-15 9 0 5 7 14 15 21 25 20 18 47 -12 53 -16 3 -38 8 -50 12 -20 6 -23 4 -23
-19 0 -15 -7 -41 -16 -57 -20 -39 -4 -99 27 -99 16 0 19 -7 19 -40 0 -29 -4
-40 -15 -40 -8 0 -15 8 -15 18 -1 42 -80 89 -80 47 0 -8 -4 -15 -9 -15 -12 0
-32 25 -26 32 11 11 -28 31 -58 30 -36 -1 -69 19 -66 40 4 32 -1 41 -15 29
-11 -10 -20 -10 -38 0 -33 17 -33 17 -14 38 15 17 15 20 1 34 -8 9 -15 19 -15
24 0 11 -59 33 -88 33 -11 0 -24 5 -27 10 -3 6 -15 10 -26 10 -26 0 -83 61
-67 71 9 6 7 10 -7 15 -46 18 -95 69 -130 137 -16 32 -38 67 -47 77 -10 11
-18 31 -18 46 l0 26 223 -6 c122 -4 268 -9 324 -11 83 -4 105 -2 117 11 9 8
20 13 25 9 5 -3 12 -1 16 5 3 5 13 10 22 10 9 0 23 9 32 19 9 11 46 29 81 41
254 85 308 162 405 575 19 83 40 166 46 185 7 19 13 44 15 55 3 26 54 115 54
95 0 -8 8 -1 18 16 9 18 30 51 45 74 26 39 30 41 46 26 10 -9 21 -16 24 -16
13 0 7 35 -12 67 -19 30 -19 40 -9 162 13 165 12 169 -100 199 -44 12 -91 22
-104 22 -14 0 -31 7 -38 15 -7 9 -15 13 -18 11 -6 -7 -42 12 -42 22 0 4 5 14
10 22 8 12 12 13 19 2 7 -11 9 -11 14 2 5 12 -1 20 -18 26 -16 6 -23 15 -19
24 3 8 12 12 20 9 13 -5 19 8 15 31 -7 34 103 24 137 -12 19 -20 30 -23 57
-19 39 6 70 -19 59 -48 -5 -13 -4 -16 4 -11 36 22 57 -83 69 -347 5 -103 8
-125 19 -116 7 6 14 23 16 37 2 16 8 26 16 24 21 -4 52 17 53 36 0 9 8 42 18
72 13 38 23 54 34 52 10 -2 16 9 20 35 11 72 29 148 43 175 8 14 14 33 14 42
0 9 5 16 10 16 6 0 10 5 10 12 0 6 6 19 14 27 19 22 57 172 67 258 4 40 10 77
14 83 6 10 6 47 -1 315 -3 131 -6 153 -44 330 -18 83 -35 168 -39 190 -4 22
-13 51 -20 64 -7 13 -11 35 -8 49 3 15 -10 76 -30 142 -19 63 -39 133 -45 155
-6 22 -15 49 -19 60 -16 37 -32 160 -30 232 1 49 -3 79 -13 95 -27 42 -39 108
-25 135 10 18 10 34 -1 79 -8 31 -20 63 -28 70 -7 8 -11 22 -7 33 3 10 -1 24
-10 31 -8 7 -27 36 -41 64 -32 65 -277 305 -399 391 -27 20 -52 39 -55 43 -3
4 -32 25 -65 46 -33 21 -96 67 -140 100 -44 34 -100 75 -124 91 -24 17 -54 37
-66 45 -123 84 -179 120 -183 120 -3 0 -31 23 -63 50 -32 28 -62 50 -67 50 -5
0 -15 7 -22 15 -7 8 -21 15 -31 15 -9 0 -24 7 -33 15 -8 8 -21 15 -29 15 -8 0
-20 7 -27 15 -7 8 -19 15 -27 15 -8 0 -27 7 -41 15 -15 8 -67 30 -115 50 -69
28 -96 34 -126 29 -22 -4 -41 -2 -45 4 -3 6 -14 8 -25 5 -10 -2 -26 3 -35 13
-13 12 -20 14 -29 5 -6 -6 -19 -11 -29 -11 -10 0 -18 -7 -18 -15 0 -11 -12
-15 -45 -15 -25 0 -45 -4 -45 -9 0 -5 -15 -14 -32 -19 -28 -8 -57 -9 -161 -2
-9 1 -24 -6 -32 -14 -11 -10 -26 -13 -45 -9 -24 4 -30 2 -30 -11 0 -13 -8 -15
-42 -11 -70 10 -118 27 -118 43 0 11 9 13 40 8 32 -5 40 -3 40 9 0 8 -8 15
-19 15 -10 0 -24 6 -30 13 -6 8 -31 24 -56 37 -25 13 -45 27 -45 32 0 4 -4 8
-10 8 -5 0 -19 9 -30 20 -11 11 -28 20 -37 20 -10 0 -29 9 -43 20 -23 18 -89
27 -102 15z m117 -75 c3 -5 -3 -10 -14 -10 -12 0 -21 5 -21 10 0 6 6 10 14 10
8 0 18 -4 21 -10z m-1321 -20 c-19 -19 -23 -20 -49 -6 l-28 15 44 4 c24 2 46
4 49 5 2 1 -5 -7 -16 -18z m1228 -5 c30 -14 63 -34 73 -45 12 -13 25 -18 37
-14 19 6 48 -11 48 -27 0 -4 -14 -7 -31 -7 -17 1 -35 -5 -40 -13 -6 -11 -11
-11 -21 -1 -6 6 -17 12 -24 12 -15 0 -6 -52 13 -67 9 -7 11 -13 4 -18 -16 -9
-31 3 -31 25 0 11 -10 22 -22 26 -29 9 -39 24 -28 44 6 11 1 22 -16 39 -20 19
-35 71 -20 71 2 0 28 -11 58 -25z m-74 -63 c13 2 42 -14 42 -24 0 -5 -8 -7
-17 -5 -90 24 -113 33 -113 43 0 21 12 22 46 3 19 -10 38 -18 42 -17z m-309 0
c13 -25 -4 -54 -19 -32 -13 19 -13 50 0 50 5 0 14 -8 19 -18z m210 -26 c10 -9
21 -16 25 -16 5 0 24 -13 43 -30 18 -16 29 -30 23 -30 -6 0 -2 -12 10 -27 18
-23 19 -28 5 -35 -8 -5 -15 -18 -15 -29 0 -30 -44 -22 -48 9 -2 13 -11 26 -20
29 -16 6 -72 59 -72 69 0 3 8 1 18 -4 9 -5 23 -7 30 -5 17 6 -14 43 -36 43
-15 0 -52 28 -52 39 0 13 72 2 89 -13z m1045 -5 c4 -5 -3 -7 -14 -4 -23 6 -26
13 -6 13 8 0 17 -4 20 -9z m-1964 -11 c0 -15 -26 -23 -41 -14 -9 5 -7 10 7 15
27 11 34 10 34 -1z m1633 -53 c-5 -25 -9 -28 -32 -22 -14 3 -33 13 -41 21 -12
12 -12 14 7 14 12 0 25 -4 28 -10 11 -18 26 -10 20 10 -3 11 -3 25 1 31 11 19
23 -12 17 -44z m-1713 34 c0 -12 -20 -25 -27 -18 -7 7 6 27 18 27 5 0 9 -4 9
-9z m96 -39 c-3 -20 -34 -28 -49 -13 -8 8 -6 11 7 11 11 0 16 5 13 14 -3 8 -3
17 0 20 10 10 31 -14 29 -32z m343 29 c11 -7 7 -13 -20 -24 -19 -8 -43 -24
-53 -36 -19 -21 -19 -21 2 -21 15 0 22 -6 22 -20 0 -16 -7 -20 -34 -20 -18 0
-39 -7 -46 -15 -7 -8 -19 -15 -26 -15 -8 0 -14 -10 -14 -25 0 -19 -5 -25 -22
-25 -18 0 -20 2 -8 10 8 5 12 12 8 15 -9 9 -59 -6 -52 -16 3 -5 2 -8 -3 -7 -4
1 -19 -4 -32 -11 -20 -11 -26 -11 -39 2 -13 14 -10 17 27 27 22 6 41 15 41 20
0 6 13 10 29 10 22 0 35 9 55 38 14 21 26 43 26 50 0 6 7 9 15 6 8 -4 15 -2
15 4 0 9 76 61 90 61 3 1 11 -3 19 -8z m886 -13 c31 -14 33 -28 3 -28 -23 1
-58 21 -58 34 0 10 27 7 55 -6z m-2055 -81 c-19 -6 -37 -14 -40 -18 -7 -10
-132 -69 -146 -69 -7 0 -34 -15 -60 -33 -95 -65 -175 -94 -88 -32 27 19 54 35
60 35 6 0 22 8 35 19 13 10 49 31 79 45 30 15 64 32 75 38 29 16 67 26 95 26
21 0 19 -2 -10 -11z m-370 -7 c-8 -5 -19 -10 -25 -10 -5 0 -3 5 5 10 8 5 20
10 25 10 6 0 3 -5 -5 -10z m2297 -14 c34 -30 23 -49 -22 -38 -23 6 -31 15 -33
35 -4 35 17 36 55 3z m-847 -41 c0 -9 -6 -12 -15 -9 -8 4 -12 10 -9 15 8 14
24 10 24 -6z m924 -10 c-4 -8 -11 -15 -16 -15 -6 0 -5 6 2 15 7 8 14 15 16 15
2 0 1 -7 -2 -15z m-113 -76 c14 -27 -7 -44 -28 -23 -8 8 -19 12 -24 9 -5 -4
-14 -3 -20 1 -7 4 -2 11 13 19 34 19 46 18 59 -6z m-901 -3 c0 -4 -59 -36 -67
-36 -2 0 1 9 7 20 9 17 60 30 60 16z m176 -73 c-10 -10 -19 5 -10 18 6 11 8
11 12 0 2 -7 1 -15 -2 -18z m544 -30 c0 -14 -10 -16 -34 -7 -9 3 -16 15 -16
25 0 16 3 17 25 7 14 -6 25 -17 25 -25z m-584 -87 c-10 -32 -56 -69 -56 -46 0
8 58 80 65 80 1 0 -3 -15 -9 -34z m464 -1 c7 -9 10 -18 7 -22 -8 -7 -37 15
-37 28 0 14 16 11 30 -6z m-385 -24 c3 -10 1 -29 -3 -42 -9 -23 -9 -23 -16 -2
-4 12 -13 24 -21 27 -20 7 -7 36 15 36 10 0 21 -8 25 -19z m65 -43 c0 -27 -34
-19 -38 9 -3 17 1 20 17 16 12 -3 21 -14 21 -25z m288 14 c6 -18 -15 -14 -22
4 -4 10 -1 14 6 12 6 -2 14 -10 16 -16z m-2109 -32 c-34 -42 -44 -48 -52 -27
-3 6 -6 2 -6 -10 -1 -26 -42 -69 -113 -116 -60 -40 -138 -112 -164 -151 -10
-16 -23 -25 -31 -22 -8 3 -12 2 -9 -2 3 -5 -32 -48 -78 -95 -63 -67 -88 -87
-109 -87 -30 0 -35 11 -13 29 7 6 21 31 30 55 9 24 27 49 41 56 14 7 25 17 25
21 0 6 29 40 132 151 26 29 41 38 55 34 14 -4 37 11 88 60 72 69 149 127 157
118 3 -2 11 2 18 11 7 8 23 15 37 15 l24 0 -32 -40z m2076 6 c17 -32 16 -66
-4 -66 -5 0 -17 19 -27 43 -10 23 -20 45 -22 50 -2 4 5 7 16 7 11 0 26 -13 37
-34z m-375 -21 c0 -16 -6 -25 -15 -25 -15 0 -21 31 -8 43 13 14 23 6 23 -18z
m-1960 -13 c0 -11 -36 -44 -72 -67 -39 -24 -35 -12 11 35 36 38 61 50 61 32z
m70 0 c0 -9 -46 -52 -56 -52 -3 0 4 14 16 30 20 29 40 39 40 22z m-385 -62
c-3 -5 -10 -10 -16 -10 -5 0 -9 5 -9 10 0 6 7 10 16 10 8 0 12 -4 9 -10z m-89
-634 c-8 -20 -18 -36 -22 -36 -9 0 5 52 18 68 18 21 20 6 4 -32z m2239 -714
c-6 -4 -15 -18 -21 -31 -13 -30 -25 -15 -13 17 5 12 16 22 26 22 10 0 14 -3 8
-8z m5 -72 c0 -5 -7 -10 -16 -10 -8 0 -12 5 -9 10 3 6 10 10 16 10 5 0 9 -4 9
-10z m-113 -127 c-3 -10 -5 -4 -5 12 0 17 2 24 5 18 2 -7 2 -21 0 -30z m26
-23 c-7 -28 -13 -25 -13 6 0 14 4 23 9 20 5 -3 7 -15 4 -26z m704 -2 c-3 -8
-6 -5 -6 6 -1 11 2 17 5 13 3 -3 4 -12 1 -19z m-153 -58 c21 0 67 -66 60 -85
-4 -10 -2 -15 7 -13 10 2 15 -12 17 -54 3 -57 3 -57 40 -67 43 -13 63 0 38 24
-33 33 -16 75 30 75 34 0 34 -1 34 -44 0 -25 5 -48 10 -51 6 -4 10 -21 8 -39
-2 -37 7 -56 28 -56 17 0 17 -10 0 -32 -8 -11 -26 -18 -44 -18 -17 0 -34 -4
-37 -10 -3 -5 -15 -10 -26 -10 -10 0 -19 -4 -19 -10 0 -5 19 -10 42 -10 l41 0
-71 -47 c-40 -25 -72 -53 -72 -61 0 -9 -6 -12 -16 -8 -8 3 -12 2 -9 -4 3 -6
13 -10 21 -10 15 0 91 53 148 103 33 29 76 41 76 21 0 -7 -5 -14 -12 -16 -8
-3 -7 -11 5 -28 13 -19 17 -21 17 -7 0 9 4 17 9 17 5 0 13 9 16 20 11 33 25
22 25 -19 0 -22 4 -51 10 -66 5 -14 6 -24 1 -21 -5 3 -11 -14 -12 -38 -4 -44
6 -51 20 -14 7 20 8 20 35 -5 15 -14 25 -30 22 -36 -4 -5 -2 -12 3 -16 5 -3
21 -30 36 -60 14 -30 28 -55 32 -55 18 0 -37 146 -61 162 -12 8 -15 28 -19
120 -1 31 -5 60 -9 64 -11 10 -10 24 1 24 5 0 11 -8 13 -17 2 -13 9 -9 25 18
11 20 34 43 50 51 28 14 31 14 49 -8 10 -13 22 -23 26 -24 18 -1 67 -58 74
-85 4 -16 11 -35 16 -42 5 -7 7 -17 3 -23 -3 -5 1 -10 9 -10 10 0 17 -10 17
-27 l2 -28 4 28 c4 22 9 28 23 24 13 -3 17 0 13 9 -8 22 16 71 35 71 9 1 33
-6 52 -14 19 -9 49 -21 65 -28 77 -32 80 -34 63 -34 -10 -1 -18 -5 -18 -9 0
-12 50 -33 61 -26 18 11 59 -5 53 -20 -3 -9 3 -17 15 -21 20 -6 20 -7 -8 -31
-16 -13 -36 -24 -45 -24 -8 0 -23 -11 -32 -25 -14 -21 -22 -25 -45 -20 -15 3
-30 1 -34 -4 -3 -6 -15 -11 -26 -11 -10 0 -19 -5 -19 -11 0 -5 -10 -9 -22 -7
-15 2 -22 -2 -20 -11 1 -7 -11 -26 -28 -42 -16 -16 -30 -35 -30 -41 0 -25 -35
-98 -47 -98 -7 0 -15 11 -19 25 -8 31 -20 32 -27 4 -3 -12 -10 -18 -15 -15 -5
3 -15 -1 -21 -8 -8 -10 -9 -16 -1 -21 17 -10 12 -35 -6 -28 -12 4 -14 14 -10
36 5 25 4 27 -8 18 -17 -14 -25 -4 -37 43 -7 30 -7 29 -8 -11 -1 -23 4 -43 11
-45 6 -2 12 -21 12 -41 1 -20 5 -37 9 -37 18 0 -5 -18 -29 -23 -22 -4 -25 -2
-20 15 3 13 -11 4 -40 -26 -24 -26 -44 -51 -44 -56 0 -6 -11 -10 -24 -10 -27
0 -42 -15 -26 -25 14 -8 13 -52 -2 -61 -8 -5 -6 -11 6 -20 22 -16 11 -38 -15
-31 -16 4 -19 -1 -19 -38 0 -41 -2 -44 -35 -55 -35 -11 -72 -60 -61 -79 10
-16 -70 -21 -170 -11 -54 5 -102 10 -106 10 -4 0 -5 6 -2 14 6 15 -22 48 -49
59 -11 4 -17 18 -17 41 0 19 -7 42 -16 51 -11 10 -15 28 -12 55 3 38 3 38 -24
33 -23 -4 -33 0 -51 23 -12 16 -21 34 -19 41 2 7 -6 13 -17 13 -15 0 -20 8
-23 45 -4 56 -1 65 23 65 14 0 19 7 19 25 0 26 -15 34 -22 13 -4 -10 -10 -10
-29 -1 -13 6 -18 12 -11 12 9 1 7 9 -7 27 -23 29 -27 54 -10 54 5 0 7 5 4 10
-4 6 -1 18 6 26 6 8 8 18 4 22 -4 4 -10 1 -12 -5 -8 -21 -23 -15 -34 14 -7 18
-6 36 1 56 13 39 -3 62 -32 46 -15 -8 -24 -7 -37 5 -10 9 -21 13 -26 9 -8 -7
-5 2 11 42 4 10 0 15 -10 15 -9 0 -16 -4 -16 -10 0 -5 -9 -10 -20 -10 -12 0
-26 -12 -35 -30 -9 -18 -23 -30 -35 -30 -11 0 -20 -7 -20 -15 0 -8 -3 -15 -8
-15 -4 0 -8 27 -9 61 -1 64 -8 83 -23 60 -6 -10 -11 -1 -18 30 -9 39 -10 40
-11 13 -2 -53 -13 -95 -27 -101 -7 -2 -22 5 -33 16 l-21 21 -35 -21 c-35 -21
-65 -18 -35 2 12 8 12 12 2 16 -7 3 -17 15 -22 27 -6 17 -15 21 -46 20 -47 -3
-77 17 -82 53 -3 23 -1 25 12 13 14 -11 16 -9 16 9 0 12 -6 21 -16 21 -10 0
-14 7 -12 23 2 18 8 21 33 19 24 -3 28 -1 18 9 -18 18 -16 27 6 34 11 3 23 15
26 26 4 10 11 19 17 19 5 0 8 -7 5 -15 -3 -7 3 -24 13 -37 18 -22 19 -22 21
-3 1 13 3 10 8 -9 12 -58 27 -38 29 39 1 41 6 85 13 96 6 11 8 32 5 46 -11 42
4 93 30 103 13 5 26 21 30 35 3 14 10 25 15 25 12 0 11 -5 -3 -51 -13 -45 -6
-58 18 -38 16 13 17 11 11 -24 -7 -47 15 -94 60 -128 35 -26 44 -59 47 -167 1
-43 4 -58 14 -55 6 3 12 19 12 35 0 23 4 29 15 24 12 -4 15 3 15 29 0 28 4 35
20 35 21 0 28 24 10 35 -5 3 -10 16 -10 28 0 12 -9 36 -20 52 -21 32 -26 65
-10 65 6 0 10 -4 10 -9 0 -5 8 -7 19 -4 22 6 61 -43 62 -79 0 -12 3 -17 6 -10
6 16 35 15 59 -3 10 -8 32 -15 48 -15 l29 0 -22 24 c-21 23 -22 28 -12 76 14
65 14 120 0 120 -5 0 -7 5 -4 11 4 5 12 8 18 6 7 -2 21 3 31 12 18 15 19 15
14 -6 -4 -15 -2 -23 7 -23 7 0 16 -11 19 -25 4 -14 11 -25 17 -25 12 0 1 43
-12 48 -5 2 -9 17 -9 33 0 16 -7 41 -16 55 -9 13 -13 28 -10 32 10 9 36 -27
36 -48 0 -9 6 -24 13 -35 11 -14 21 -16 53 -11 37 7 38 9 19 23 -18 13 -19 15
-4 26 9 7 20 33 25 57 7 37 9 40 12 18 2 -16 9 -28 16 -28z m63 28 c-3 -8 -6
-5 -6 6 -1 11 2 17 5 13 3 -3 4 -12 1 -19z m-779 -72 c2 -15 -1 -33 -7 -40 -6
-7 -8 -29 -4 -49 4 -25 2 -37 -6 -37 -7 0 -10 -4 -7 -9 9 -14 -28 -121 -41
-121 -13 0 -46 -54 -37 -62 3 -3 -7 -8 -21 -10 -32 -7 -36 0 -28 45 5 31 10
37 32 38 l26 2 -27 4 c-23 4 -28 9 -28 34 0 18 7 33 20 41 11 7 20 24 21 38 0
14 3 19 6 13 13 -34 42 -3 47 52 4 39 28 96 39 92 7 -2 13 -16 15 -31z m192
-1 c0 -8 -4 -15 -10 -15 -5 0 -10 7 -10 15 0 8 5 15 10 15 6 0 10 -7 10 -15z
m-400 -65 c0 -11 -4 -20 -9 -20 -5 0 -7 9 -4 20 3 11 7 20 9 20 2 0 4 -9 4
-20z m-113 -195 c-14 -28 -21 -3 -11 43 l7 37 7 -30 c4 -16 2 -39 -3 -50z
m-106 22 c-8 -8 -11 -7 -11 4 0 20 13 34 18 19 3 -7 -1 -17 -7 -23z m229 3 c0
-19 -11 -26 -23 -14 -8 8 3 34 14 34 5 0 9 -9 9 -20z m-270 -30 c0 -5 -7 -10
-15 -10 -8 0 -15 5 -15 10 0 6 7 10 15 10 8 0 15 -4 15 -10z m-37 -156 c3 -4
1 -16 -5 -27 -9 -18 -11 -19 -20 -4 -13 25 6 49 25 31z m43 -31 c-10 -10 -19
5 -10 18 6 11 8 11 12 0 2 -7 1 -15 -2 -18z m-29 -35 c-3 -7 -5 -2 -5 12 0 14
2 19 5 13 2 -7 2 -19 0 -25z m646 -175 c-7 -2 -13 -14 -14 -26 0 -12 -3 -16
-6 -9 -7 18 4 42 19 41 10 0 10 -2 1 -6z m-1027 -212 c-4 -6 -13 -11 -19 -10
-9 0 -9 2 0 5 7 3 9 13 6 22 -5 13 -3 14 7 5 7 -6 9 -16 6 -22z m-76 4 c0 -8
-9 -15 -20 -15 -11 0 -20 5 -20 11 0 5 5 7 10 4 6 -3 10 -1 10 4 0 6 5 11 10
11 6 0 10 -7 10 -15z m3476 -132 c15 -9 39 -14 64 -11 30 3 39 0 36 -9 -6 -15
5 -17 20 -5 5 4 27 5 49 1 22 -3 32 -7 23 -8 -10 0 -18 -8 -18 -16 0 -12 13
-15 58 -15 65 0 109 -21 82 -40 -10 -6 2 -8 38 -3 41 4 56 3 63 -8 13 -21 11
-28 -10 -22 -10 3 -22 0 -25 -6 -4 -6 -1 -12 6 -12 7 -1 -3 -4 -22 -8 -19 -4
-91 -3 -160 1 -130 8 -618 3 -628 -7 -3 -3 -15 -5 -26 -4 -13 0 -16 3 -7 6 11
4 11 7 0 14 -27 16 4 24 116 29 22 1 34 4 28 7 -22 8 -14 33 12 43 14 5 25 14
25 20 0 6 10 15 23 21 20 8 19 9 -6 4 -24 -5 -28 -3 -25 12 4 20 27 22 91 9
30 -5 37 -4 37 8 0 10 6 13 15 10 8 -4 15 -1 15 6 0 17 94 5 126 -17z m-2713
-30 c-7 -2 -19 -2 -25 0 -7 3 -2 5 12 5 14 0 19 -2 13 -5z m3186 -22 c10 -6
10 -10 1 -16 -7 -4 -19 0 -28 9 -14 13 -14 16 -2 16 8 0 21 -4 29 -9z m-862
-48 c-3 -10 -5 -4 -5 12 0 17 2 24 5 18 2 -7 2 -21 0 -30z m1223 -114 c0 -6
-4 -8 -9 -5 -5 4 -11 1 -13 -6 -3 -8 -9 -8 -24 0 -18 11 -18 11 4 12 12 0 22
5 22 11 0 5 5 7 10 4 6 -3 10 -11 10 -16z m-3900 -80 c58 -6 139 -13 180 -15
94 -6 150 -22 150 -43 0 -9 7 -26 15 -37 12 -17 12 -27 2 -53 -7 -18 -17 -30
-27 -28 -11 1 -16 -9 -18 -40 -2 -29 -8 -43 -17 -43 -16 0 -38 34 -28 44 3 3
-1 6 -9 6 -9 0 -19 -6 -22 -12 -5 -10 -7 -10 -12 0 -7 14 -44 16 -44 2 0 -18
-22 -11 -27 9 -4 17 -8 18 -64 3 -58 -14 -59 -15 -60 -51 -1 -20 0 -51 1 -70
1 -19 -2 -31 -8 -27 -5 3 -13 -2 -16 -11 -14 -35 -25 9 -21 81 3 39 2 64 -1
55 -3 -11 -12 -15 -26 -11 -20 5 -21 3 -14 -72 6 -64 4 -77 -9 -82 -19 -8 -20
-24 0 -24 8 0 15 -4 15 -10 0 -5 8 -10 18 -10 10 0 22 -3 26 -7 4 -5 12 -9 17
-9 5 -1 13 -2 18 -3 5 0 13 -10 16 -21 5 -15 15 -20 40 -20 34 0 85 -18 85
-29 0 -14 -47 -35 -79 -36 -19 -1 -37 -7 -39 -13 -2 -7 -26 -12 -61 -12 -31 0
-65 -6 -76 -13 -27 -17 -95 -22 -95 -7 0 8 -12 10 -37 6 -21 -3 -45 -6 -55 -7
-9 0 -24 -9 -34 -20 -9 -10 -30 -19 -46 -19 -16 0 -28 -5 -28 -13 0 -15 40
-33 100 -46 47 -10 124 -30 150 -39 8 -2 28 -6 44 -8 16 -2 34 -8 40 -13 6 -5
27 -12 46 -16 19 -4 45 -14 58 -23 34 -22 225 -21 269 1 18 10 43 17 56 17 14
0 30 6 36 14 14 16 18 118 8 208 -7 61 -5 69 14 87 12 11 26 18 31 15 15 -9
57 -14 147 -18 52 -2 86 -8 91 -16 4 -7 9 19 12 58 2 39 6 73 9 76 2 3 51 6
107 7 100 1 102 2 96 24 -3 13 0 26 6 30 16 10 32 -17 20 -29 -14 -14 -12 -26
4 -26 12 0 26 25 30 55 0 5 9 11 18 13 23 4 41 -89 34 -176 -3 -37 -5 -88 -5
-113 0 -54 -34 -234 -57 -299 -9 -25 -43 -101 -77 -170 -63 -129 -111 -190
-209 -261 -50 -36 -248 -99 -248 -78 0 10 65 39 90 39 28 0 75 52 72 79 -3 19
-6 21 -13 10 -4 -8 -23 -14 -41 -14 -25 0 -37 -7 -52 -30 -15 -23 -38 -37 -86
-53 -36 -12 -80 -22 -98 -22 -18 0 -32 -4 -32 -9 0 -4 -21 -14 -47 -22 -62
-17 -483 -20 -504 -3 -8 6 -45 15 -84 19 -71 7 -234 37 -292 54 -23 7 -36 6
-50 -5 -24 -18 -63 -18 -63 1 0 8 5 15 10 15 23 0 6 27 -36 59 -73 55 -111
136 -159 336 -54 229 -53 641 1 748 21 40 76 93 104 101 160 43 302 75 316 69
7 -3 23 2 35 11 16 11 27 12 41 5 11 -6 27 -7 36 -4 9 4 62 9 116 11 55 3 101
6 103 8 4 4 37 1 193 -15z m3235 6 c77 -3 167 -10 200 -16 143 -22 285 -53
285 -61 0 -4 7 -8 16 -8 8 0 13 -4 10 -9 -3 -5 7 -11 23 -14 22 -5 31 -13 36
-36 5 -25 2 -35 -21 -54 -27 -23 -27 -23 -63 -5 -23 12 -57 18 -97 18 -54 0
-64 3 -69 20 -3 11 -15 20 -25 20 -10 0 -20 5 -22 11 -4 13 -165 42 -186 34
-20 -7 -83 27 -78 42 4 11 1 11 -15 3 -11 -6 -29 -8 -40 -5 -11 4 -59 8 -107
9 -48 1 -104 7 -124 13 -21 6 -38 7 -38 2 0 -11 -41 -11 -58 0 -9 5 3 10 35
14 26 3 66 12 88 20 22 7 56 12 75 11 19 -1 98 -5 175 -9z m-333 -65 c-18 -8
-21 -15 -16 -34 3 -14 1 -27 -6 -31 -21 -13 -28 9 -14 43 10 23 20 32 37 31
l22 0 -23 -9z m208 -4 c0 -2 -7 -9 -15 -16 -12 -10 -15 -10 -15 4 0 9 7 16 15
16 8 0 15 -2 15 -4z m-2640 -86 c0 -11 -5 -22 -11 -26 -16 -10 -32 11 -24 34
7 25 35 18 35 -8z m875 20 c-3 -5 -10 -10 -16 -10 -5 0 -9 5 -9 10 0 6 7 10
16 10 8 0 12 -4 9 -10z m881 -45 c-3 -41 -16 -59 -16 -22 0 25 9 57 16 57 2 0
2 -16 0 -35z m-1259 -81 c-9 -9 -28 6 -21 18 4 6 10 6 17 -1 6 -6 8 -13 4 -17z
m978 -61 c-3 -15 -1 -31 7 -41 10 -12 10 -16 0 -19 -32 -12 7 -23 78 -23 110
0 110 0 111 -79 1 -59 2 -63 10 -33 8 26 14 32 27 27 9 -4 65 -9 125 -11 72
-2 111 -7 120 -16 10 -10 12 -41 6 -138 -4 -72 -3 -126 2 -128 5 -2 4 -13 -2
-24 -10 -18 -9 -20 5 -15 9 4 29 2 44 -4 15 -6 78 -13 141 -14 63 -2 117 -8
120 -13 8 -13 58 -24 116 -26 28 -1 63 -7 79 -14 36 -16 165 -10 176 8 5 9 9
9 14 1 11 -17 26 -13 26 7 0 14 2 15 10 2 6 -10 10 -11 10 -2 0 6 7 12 16 12
8 0 12 5 9 10 -3 6 -2 10 4 10 5 0 16 3 25 6 11 4 16 1 16 -11 0 -14 7 -16 43
-12 73 10 112 19 119 30 4 6 46 12 95 14 48 1 91 2 96 3 4 0 7 7 7 15 0 8 8
15 18 15 10 0 35 9 56 19 21 11 44 17 53 14 8 -3 28 4 44 16 19 14 29 17 30 9
0 -8 3 -8 6 2 3 8 20 31 39 50 32 34 33 38 48 180 l15 145 -4 -175 c-6 -276
-56 -537 -129 -678 -47 -92 -202 -163 -448 -207 -143 -26 -448 -40 -558 -27
-52 7 -107 12 -122 12 -18 0 -41 15 -75 48 -51 50 -65 60 -128 92 -22 11 -36
20 -31 20 5 0 -9 12 -30 27 -21 14 -55 37 -74 51 -27 18 -43 22 -70 18 -44 -7
-105 26 -96 51 5 12 1 14 -14 10 -18 -4 -20 0 -21 36 0 23 -4 51 -9 62 -5 12
-6 -3 -3 -37 4 -42 2 -58 -6 -58 -8 0 -10 -8 -6 -22 7 -23 7 -23 -8 -3 -9 11
-11 22 -6 23 13 5 11 99 -2 107 -7 5 -8 -5 -4 -32 5 -28 4 -34 -4 -23 -6 8
-11 25 -11 37 0 28 -39 87 -64 99 -28 13 -35 52 -27 139 4 40 3 84 -2 97 -5
13 -4 32 2 45 11 23 5 53 -9 53 -5 0 -11 -6 -14 -12 -3 -9 -8 -8 -16 5 -6 9
-17 17 -25 17 -8 0 -14 8 -13 18 0 9 -5 42 -10 73 -9 48 -8 67 9 120 11 35 27
71 36 82 15 16 18 16 26 2 5 -9 6 -28 2 -42z m-1839 16 c8 -14 -21 -44 -34
-35 -14 8 -3 46 14 46 7 0 16 -5 20 -11z m804 -26 c0 -13 -3 -13 -15 -3 -8 7
-12 16 -9 21 8 13 24 1 24 -18z m-740 -7 c0 -18 -16 -29 -30 -21 -13 8 -1 35
16 35 8 0 14 -6 14 -14z m1376 3 c32 -8 44 -16 44 -30 0 -11 5 -19 10 -19 16
0 11 -40 -6 -47 -12 -4 -14 -14 -8 -47 3 -22 11 -50 17 -61 13 -25 16 -85 4
-85 -5 0 -2 -11 6 -24 17 -25 13 -36 -10 -36 -14 0 -43 -23 -43 -33 0 -3 11
-8 25 -11 28 -7 35 -43 10 -53 -16 -5 22 -47 128 -139 50 -44 137 -193 137
-235 0 -11 7 -27 15 -35 17 -17 21 -39 5 -29 -6 3 -7 -1 -4 -9 3 -9 11 -16 16
-16 7 0 9 -16 5 -40 -4 -33 -1 -45 23 -72 16 -18 32 -29 36 -25 4 4 13 2 20
-4 10 -8 19 -7 34 4 33 23 92 3 221 -76 73 -45 113 -111 104 -169 -10 -59 -71
-119 -127 -124 -24 -2 -35 -1 -25 2 9 3 17 9 17 14 0 4 -21 2 -47 -6 -71 -22
-112 -18 -135 11 -11 14 -28 25 -38 25 -10 0 -22 5 -26 11 -3 6 -15 8 -26 6
-14 -4 -22 1 -28 18 -7 18 -17 24 -37 24 -15 0 -41 2 -58 5 -23 4 -36 -1 -57
-21 -16 -15 -28 -23 -28 -19 0 4 -17 -1 -37 -12 -50 -26 -176 -72 -196 -72
-15 0 -6 19 11 23 10 2 6 4 -8 4 -35 0 -90 14 -90 23 0 13 -52 24 -160 35 -50
4 -63 1 -120 -30 -36 -19 -58 -35 -50 -36 8 0 -12 -6 -45 -14 -160 -35 -272
-43 -307 -23 -13 7 -27 13 -33 13 -25 2 -76 38 -89 63 -29 57 -30 109 -2 165
23 47 37 60 163 143 76 50 159 101 184 113 39 18 109 92 109 115 0 13 108 158
122 164 5 2 8 10 8 18 0 8 6 14 13 15 17 0 52 48 61 81 3 16 11 25 19 23 8 -4
13 7 15 32 1 20 7 41 12 48 6 7 5 16 -2 23 -9 9 -9 15 0 24 10 10 15 10 22 -2
8 -13 12 -13 27 3 16 16 16 17 -3 17 -13 0 -25 10 -32 26 -7 14 -17 22 -22 19
-6 -4 -9 -1 -8 7 4 20 -55 22 -91 3 -24 -12 -31 -13 -32 -3 -3 31 4 57 32 116
16 34 29 71 29 83 0 39 59 108 115 134 36 17 150 19 211 4z m1214 2 c0 -12
-26 -32 -33 -25 -9 10 4 34 19 34 8 0 14 -4 14 -9z m35 -30 c7 -12 -12 -24
-25 -16 -11 7 -4 25 10 25 5 0 11 -4 15 -9z m-715 -21 c0 -5 -5 -10 -11 -10
-5 0 -7 5 -4 10 3 6 8 10 11 10 2 0 4 -4 4 -10z m-1647 -19 c3 -14 -2 -21 -20
-26 -33 -8 -45 2 -33 26 14 25 46 25 53 0z m127 -15 c0 -9 -10 -13 -25 -12
-29 1 -33 12 -7 19 29 8 32 7 32 -7z m1855 -6 c3 -5 -1 -10 -10 -10 -9 0 -13
5 -10 10 3 6 8 10 10 10 2 0 7 -4 10 -10z m-2046 -106 c1 -18 -59 -23 -76 -6
-21 21 0 41 27 25 16 -11 20 -9 26 10 7 21 7 21 15 2 4 -11 8 -25 8 -31z
m2388 -36 c-3 -8 -6 -5 -6 6 -1 11 2 17 5 13 3 -3 4 -12 1 -19z m253 -8 c0 -4
-38 -7 -85 -6 -47 0 -85 4 -85 8 0 7 148 16 163 10 4 -2 7 -7 7 -12z m-2646
-30 c-14 -13 -64 -23 -64 -13 0 16 9 20 42 21 17 0 27 -3 22 -8z m1760 -596
c3 -8 2 -12 -4 -9 -6 3 -10 10 -10 16 0 14 7 11 14 -7z m-1574 -299 c-7 -9
-15 -13 -18 -10 -3 2 1 11 8 20 7 9 15 13 18 10 3 -2 -1 -11 -8 -20z m-107
-220 c25 -14 48 -32 51 -40 3 -8 13 -15 21 -15 9 0 31 -11 49 -25 18 -14 40
-25 49 -25 10 0 17 -4 17 -9 0 -5 9 -11 20 -14 13 -3 20 -14 20 -29 0 -12 4
-28 8 -34 9 -15 53 -21 70 -11 12 8 32 -28 32 -59 0 -8 20 -23 45 -34 25 -11
48 -26 51 -35 9 -23 24 -18 24 9 0 14 5 28 11 32 8 5 10 -4 7 -30 -3 -28 0
-37 14 -42 10 -3 23 -14 28 -25 12 -21 40 -26 40 -6 0 7 -5 18 -11 24 -8 8 -8
16 0 30 10 17 10 17 11 0 0 -10 11 -22 25 -27 32 -12 32 -28 -2 -41 l-27 -10
31 -19 c17 -10 34 -23 37 -29 4 -5 13 -8 20 -5 8 3 17 1 21 -5 3 -6 16 -10 28
-10 17 1 18 2 5 6 -21 5 -23 14 -7 30 8 8 5 13 -10 18 -11 3 -25 3 -31 0 -13
-8 -13 45 0 65 6 9 5 17 -2 22 -9 5 -9 14 0 34 12 25 14 26 26 9 17 -24 46
-13 46 17 0 23 0 23 13 -2 9 -18 21 -25 40 -25 15 1 27 -3 27 -7 0 -4 7 -5 16
-1 10 4 20 -1 26 -11 8 -13 13 -15 24 -5 11 9 14 8 14 -2 0 -8 12 -19 26 -26
20 -9 26 -9 31 3 6 17 88 19 99 2 4 -6 2 -14 -4 -16 -7 -2 -12 -8 -12 -14 0
-5 9 -6 21 -3 19 6 20 3 15 -35 -5 -46 -16 -67 -16 -31 0 12 -4 19 -10 16 -5
-3 -10 -15 -10 -26 0 -12 -7 -19 -19 -19 -11 0 -22 -4 -25 -8 -2 -4 -18 -9
-34 -10 -25 -2 -30 2 -35 28 -6 27 -27 43 -27 20 0 -5 -8 -10 -18 -10 -11 0
-27 -9 -37 -20 -16 -18 -20 -19 -28 -5 -10 19 -27 10 -27 -14 0 -28 36 -56 54
-42 11 9 15 8 20 -4 3 -8 13 -15 21 -15 10 0 13 5 9 12 -5 8 0 9 17 4 41 -14
212 -16 242 -4 21 8 34 8 52 0 22 -10 25 -9 25 11 1 19 2 20 13 6 9 -12 26
-15 72 -12 33 2 71 6 85 10 14 4 47 5 74 4 41 -3 48 0 43 12 -3 9 -1 17 6 20
14 4 47 -23 47 -40 0 -18 29 -16 36 2 4 9 18 14 38 14 23 -1 25 -3 8 -6 -26
-5 -20 -23 9 -23 11 0 24 -11 31 -25 10 -22 33 -32 63 -25 6 1 15 3 22 4 7 1
16 5 19 9 12 12 22 8 29 -13 3 -11 13 -20 21 -20 8 0 14 -9 14 -19 0 -11 8
-22 18 -25 9 -3 -7 -4 -37 -2 -29 2 -56 8 -60 13 -7 11 -39 19 -149 34 -41 6
-105 19 -144 29 -68 18 -96 17 -109 -3 -4 -5 -44 -13 -90 -18 -46 -6 -102 -17
-124 -26 -42 -16 -155 -26 -155 -13 0 12 -54 9 -63 -4 -6 -8 -10 -8 -13 1 -3
7 -16 10 -32 7 -15 -3 -72 -9 -127 -14 -110 -9 -169 -21 -260 -49 -238 -75
-437 -131 -463 -131 -9 0 -25 7 -35 14 -16 12 -16 19 -5 60 7 25 16 46 20 46
4 0 16 21 28 47 12 26 29 57 40 68 10 11 22 32 25 48 4 15 13 27 21 27 8 0 14
5 14 10 0 6 -13 10 -30 10 -23 0 -30 4 -30 20 0 11 -7 20 -15 20 -8 0 -15 -7
-15 -15 0 -21 -26 -19 -42 3 -19 25 -94 43 -109 26 -6 -8 -15 -12 -19 -9 -5 3
-11 2 -14 -3 -2 -4 -35 -8 -72 -7 l-68 0 -9 45 c-12 55 5 150 35 198 11 18 17
39 14 48 -4 10 3 16 24 21 21 4 30 11 30 24 0 11 5 19 10 19 6 0 10 11 10 24
0 13 7 29 15 36 8 7 15 19 15 27 0 20 46 63 68 63 11 0 40 -11 65 -25z m2077
-54 c0 -4 19 -11 42 -14 24 -3 48 -14 55 -24 12 -16 10 -19 -19 -30 -18 -6
-25 -12 -15 -12 11 -1 17 -9 17 -27 0 -20 -4 -25 -16 -20 -9 3 -27 9 -40 12
-13 3 -24 10 -24 15 0 5 -12 9 -27 9 -21 0 -24 -3 -15 -12 17 -17 15 -28 -4
-28 -8 0 -12 -4 -9 -10 3 -5 17 -10 31 -10 15 0 24 -6 24 -16 0 -12 -5 -14
-17 -9 -10 4 -28 10 -40 12 -13 3 -23 12 -23 19 0 9 -12 14 -35 14 -34 0 -35
1 -35 40 0 27 4 40 13 40 8 0 20 11 27 24 7 14 24 27 39 29 49 8 71 7 71 -2z
m-669 -233 c-4 -22 -14 -34 -26 -37 -11 -2 -23 -8 -27 -15 -4 -6 -8 10 -8 36
0 43 2 47 28 50 38 5 40 3 33 -34z m805 22 c10 0 14 -12 14 -40 l0 -40 -65 0
-65 0 0 40 c0 40 0 40 39 40 22 0 43 5 47 12 6 9 9 9 12 0 2 -7 10 -12 18 -12z
m-575 1 c-12 -8 -10 -12 12 -22 15 -7 27 -17 27 -22 0 -15 -33 -36 -56 -37
-22 0 -34 -17 -34 -50 0 -36 -19 -30 -30 10 -11 40 -24 51 -33 28 -3 -7 -6 4
-6 24 -1 28 2 36 13 32 8 -3 19 3 25 15 10 17 30 25 81 29 13 2 13 0 1 -7z
m-311 -18 c0 -10 -5 -25 -10 -33 -8 -13 -10 -13 -10 2 0 9 -3 23 -6 32 -4 11
-1 16 10 16 9 0 16 -8 16 -17z m446 8 c11 9 18 9 29 -1 17 -14 20 -46 5 -55
-6 -4 -8 -11 -4 -16 3 -6 3 -21 0 -35 -5 -20 -12 -25 -34 -22 -21 2 -28 9 -30
31 -2 17 -9 27 -20 27 -13 1 -11 6 10 25 15 13 26 30 25 37 -2 7 -2 9 1 5 2
-4 10 -3 18 4z m483 -53 c1 -10 -3 -18 -9 -18 -5 0 -10 19 -9 43 1 36 2 38 9
17 4 -14 8 -33 9 -42z m-1641 19 c4 -22 -24 -33 -43 -17 -20 16 -19 28 3 33
26 7 37 2 40 -16z m647 -14 c-3 -13 -1 -23 5 -23 5 0 11 10 11 23 1 18 2 18 6
4 3 -10 -3 -27 -12 -37 -16 -18 -13 -46 5 -35 12 8 18 -41 7 -62 -21 -37 -47
-38 -47 -2 0 24 -20 26 -20 2 -1 -42 -64 -69 -89 -39 -7 8 -19 12 -26 10 -20
-8 -34 26 -31 72 5 58 22 93 48 98 13 3 32 7 43 9 11 3 39 4 63 4 40 0 43 -2
37 -24z m605 -28 c-14 -17 -30 -20 -30 -6 0 5 8 12 18 14 9 3 19 5 21 6 2 0
-2 -6 -9 -14z m76 -27 c4 -6 0 -16 -9 -23 -10 -7 -17 -17 -17 -23 0 -6 -7 -9
-15 -6 -20 8 -19 23 3 45 20 21 28 23 38 7z m87 -32 c3 -8 0 -17 -7 -19 -10
-4 -12 1 -9 14 6 23 9 24 16 5z m-259 -31 c-4 -8 -8 -15 -10 -15 -2 0 -4 7 -4
15 0 8 4 15 10 15 5 0 7 -7 4 -15z m46 -7 c0 -19 -2 -20 -10 -8 -13 19 -13 30
0 30 6 0 10 -10 10 -22z m160 -225 c0 -5 -5 -15 -10 -23 -9 -13 -11 -13 -20 0
-15 22 -12 30 10 30 11 0 20 -3 20 -7z m-325 -173 c15 -17 20 -18 29 -5 11 14
71 11 216 -10 55 -8 63 -15 54 -49 -6 -25 -24 -37 -24 -15 0 5 -4 7 -10 4 -5
-3 -10 3 -10 14 0 14 -6 21 -19 21 -16 0 -19 -9 -23 -60 -5 -70 -34 -110 -80
-110 -17 0 -35 -9 -46 -22 -40 -50 -54 -59 -80 -56 -15 2 -32 10 -38 17 -10
13 -15 10 -36 -13 -20 -24 -35 -29 -93 -36 -44 -4 -75 -3 -83 3 -8 7 -21 6
-38 -2 -14 -6 -42 -11 -62 -11 -48 0 -59 -9 -58 -45 1 -36 22 -43 68 -21 19 9
60 15 98 15 82 0 172 10 186 22 6 5 30 11 55 13 24 3 54 8 67 12 16 5 27 1 37
-12 8 -11 15 -21 15 -24 0 -6 -47 -27 -103 -46 -21 -6 -53 -24 -72 -38 -18
-14 -39 -26 -45 -26 -17 0 -120 -81 -120 -94 0 -22 -81 -64 -143 -75 -111 -19
-479 -33 -567 -21 -44 6 -104 11 -133 10 -28 -1 -61 0 -72 2 -15 2 -21 -3 -23
-24 -3 -23 2 -30 25 -40 15 -6 31 -11 34 -10 4 1 31 -8 60 -19 30 -12 99 -33
154 -47 55 -14 111 -30 124 -36 13 -6 31 -10 40 -9 9 2 27 -13 41 -32 14 -19
33 -37 43 -41 27 -9 77 16 88 43 5 13 16 22 26 22 17 -1 17 -2 1 -6 -10 -2
-18 -11 -18 -19 0 -19 54 -18 74 2 15 14 17 14 32 0 17 -17 54 -22 54 -7 0 5
16 4 36 -2 28 -9 37 -8 44 3 6 9 22 11 59 7 28 -3 53 -2 56 4 4 5 -31 9 -87
10 -140 0 -181 4 -186 17 -2 7 -11 12 -20 12 -10 0 -12 3 -6 9 5 5 63 14 129
21 142 13 209 38 219 82 4 21 13 28 41 34 19 3 35 12 35 18 0 13 81 56 155 82
28 9 55 23 61 31 6 7 20 13 30 13 10 0 30 11 44 25 59 59 92 85 108 85 10 0
42 23 71 51 l53 51 71 -7 c88 -8 104 -16 112 -57 14 -68 10 -66 95 -73 75 -7
80 -9 80 -30 0 -13 6 -26 13 -29 10 -5 10 -7 0 -12 -7 -3 -13 -12 -13 -21 0
-19 49 -83 64 -83 14 -1 50 -49 42 -57 -3 -3 -28 -8 -56 -11 -32 -3 -50 -9
-50 -17 0 -8 -6 -15 -12 -18 -7 -2 29 -7 80 -11 89 -7 92 -8 92 -32 0 -15 -6
-24 -15 -24 -8 0 -15 6 -15 14 0 15 -96 33 -122 23 -7 -3 4 -6 25 -6 36 -1 37
-2 37 -41 0 -22 -5 -40 -10 -40 -6 0 -17 -18 -26 -40 -13 -32 -21 -40 -41 -40
-14 0 -37 -9 -51 -21 l-27 -20 -16 20 c-10 12 -24 21 -33 21 -12 0 -16 10 -16
39 0 39 1 40 38 44 l37 4 -42 1 -43 2 0 -45 c0 -36 -3 -45 -17 -45 -17 -1 -63
-60 -63 -82 0 -6 -18 -26 -40 -45 -29 -25 -40 -42 -40 -63 0 -16 -5 -30 -12
-32 -8 -3 -11 -21 -9 -50 1 -25 -2 -49 -8 -53 -17 -10 -13 -40 9 -60 29 -26
25 -42 -20 -86 -22 -22 -40 -42 -40 -46 0 -5 -15 -15 -33 -23 -20 -9 -36 -26
-42 -45 -12 -36 -32 -54 -62 -55 -15 0 -22 -6 -21 -17 3 -43 -1 -50 -29 -45
-21 4 -25 2 -20 -12 5 -11 1 -16 -13 -16 -13 0 -22 -9 -26 -25 -7 -30 -24 -33
-31 -5 -6 23 -12 24 -46 11 -15 -6 -26 -20 -30 -38 -7 -35 -84 -87 -142 -97
-25 -4 -35 -3 -27 2 11 7 10 10 -3 16 -22 8 -10 25 34 43 20 9 30 18 24 20
-17 6 -18 133 -2 133 20 0 39 33 27 47 -14 18 -38 16 -38 -2 0 -15 -16 -20
-57 -16 -12 1 -24 -3 -28 -9 -3 -5 -17 -7 -29 -4 -19 4 -29 -1 -47 -27 -15
-22 -19 -34 -11 -37 7 -2 12 -10 12 -17 0 -7 7 -16 16 -19 14 -5 14 -9 3 -22
-7 -9 -14 -23 -15 -31 -4 -25 -11 -26 -46 -8 -37 20 -88 27 -88 12 0 -5 -7 -7
-15 -3 -8 3 -15 2 -15 -3 0 -10 -69 -20 -88 -13 -11 4 -11 6 0 14 8 6 -9 8
-50 4 -54 -5 -65 -3 -82 14 -14 14 -28 18 -45 14 -15 -4 -32 -1 -40 6 -18 15
-20 -1 -3 -18 9 -9 3 -12 -27 -14 -22 -1 -55 -1 -72 1 -31 2 -33 0 -50 -57
l-17 -59 -39 21 c-25 13 -41 17 -45 10 -11 -16 -132 -2 -142 17 -5 8 -26 16
-46 17 -25 2 -60 18 -105 47 -37 25 -71 45 -76 45 -4 0 -24 13 -43 28 -49 40
-74 52 -110 52 -17 0 -47 8 -68 17 -20 9 -42 17 -47 18 -14 1 -82 53 -120 91
-30 31 -130 103 -130 94 0 -6 -71 56 -110 96 -28 29 -69 51 -87 46 -5 -1 -8 2
-8 6 0 5 -11 22 -24 37 -14 16 -23 32 -20 36 2 4 -1 11 -9 16 -7 4 -24 31 -38
59 -28 54 -29 106 -3 132 19 19 18 26 -8 37 -25 11 -36 51 -19 68 6 6 11 19
11 29 0 10 6 18 14 18 22 0 47 47 40 75 -3 14 -11 25 -16 25 -15 0 -41 30 -33
38 4 4 10 1 12 -5 7 -18 20 -16 43 7 11 11 32 20 46 20 17 0 28 6 31 20 5 20
23 28 23 10 0 -6 8 -5 20 2 14 9 20 24 20 50 0 31 4 38 20 38 11 0 20 7 20 15
0 11 11 15 40 15 29 0 40 -4 40 -15 0 -8 3 -15 8 -15 12 0 47 72 44 91 -4 21
17 36 28 20 4 -8 11 -2 20 18 7 17 16 31 20 31 4 0 15 -18 25 -40 13 -28 23
-39 34 -36 18 6 54 -20 64 -46 3 -10 12 -18 19 -18 20 0 68 49 68 69 0 20 43
71 60 71 5 0 10 3 10 8 0 16 68 37 120 36 62 0 135 -10 150 -19 5 -3 47 -8 92
-11 46 -2 101 -7 122 -9 26 -3 43 0 48 8 6 9 10 9 18 -3 6 -9 10 -10 10 -3 0
9 42 11 163 7 162 -4 232 0 257 16 11 7 9 13 -11 29 -25 21 -74 28 -84 12 -9
-16 -96 -25 -117 -12 -24 15 -44 14 -97 -5 -28 -9 -69 -14 -110 -12 -64 3 -65
4 -91 45 l-26 41 -33 -30 c-22 -21 -46 -32 -74 -36 -23 -2 -47 -8 -53 -13 -17
-14 -51 17 -58 52 -11 56 -23 62 -67 32 -26 -17 -55 -27 -82 -27 -40 -1 -41 0
-57 44 -16 45 -16 45 -58 42 -33 -3 -46 1 -67 22 -26 26 -33 60 -14 72 16 9
217 43 261 44 21 0 55 6 75 14 54 20 122 26 171 15 31 -7 49 -6 65 3 29 15
293 13 313 -3 9 -8 22 -8 46 0 18 6 92 15 163 21 131 11 185 5 185 -20 0 -7 8
-6 21 2 12 7 31 19 43 25 11 7 55 13 97 13 63 0 79 -3 94 -20z m-2365 -92 c0
-13 -32 -6 -37 9 -3 7 3 9 16 6 12 -3 21 -10 21 -15z m3190 -358 c0 -5 -5 -10
-11 -10 -5 0 -7 5 -4 10 3 6 8 10 11 10 2 0 4 -4 4 -10z m640 -260 c0 -5 -4
-10 -9 -10 -6 0 -13 5 -16 10 -3 6 1 10 9 10 9 0 16 -4 16 -10z m-530 -135 c0
-8 -7 -15 -15 -15 -8 0 -15 7 -15 15 0 8 7 15 15 15 8 0 15 -7 15 -15z m677
-21 c-3 -3 -12 -4 -19 -1 -8 3 -5 6 6 6 11 1 17 -2 13 -5z m-1057 -365 c0 -5
-11 -9 -25 -9 -14 0 -25 6 -25 14 0 9 8 12 25 8 14 -2 25 -8 25 -13z m-2874
-180 c22 -16 84 -137 84 -167 0 -28 76 -116 92 -106 4 3 8 -6 8 -19 0 -19 4
-24 18 -21 13 4 20 -5 30 -36 7 -23 28 -58 47 -77 19 -20 35 -40 35 -44 0 -5
8 -18 18 -29 9 -11 20 -30 23 -43 3 -12 10 -21 15 -20 6 1 16 -19 23 -43 9
-30 18 -43 27 -40 7 3 11 0 8 -7 -2 -7 6 -17 18 -22 14 -6 24 -20 26 -36 2
-14 21 -43 43 -65 21 -21 39 -44 39 -51 0 -18 -71 32 -84 59 -6 13 -21 27 -33
33 -11 6 -28 16 -36 23 -11 9 -17 10 -22 2 -7 -11 21 -39 38 -40 4 0 7 -7 7
-15 0 -9 11 -21 25 -27 14 -6 25 -17 25 -23 0 -7 15 -28 34 -47 19 -19 41 -49
50 -67 9 -17 27 -36 39 -42 70 -31 107 -67 107 -100 0 -22 -28 -38 -39 -22 -3
6 -23 13 -43 17 -21 4 -38 11 -38 16 0 6 -7 10 -16 10 -14 0 -16 -8 -10 -49 6
-43 4 -49 -14 -54 -26 -7 -26 -27 0 -34 22 -6 24 -11 10 -33 -6 -10 -10 -11
-10 -2 0 6 -8 12 -19 12 -16 0 -18 -8 -17 -55 0 -30 3 -55 7 -55 16 0 94 -74
107 -101 8 -16 21 -29 28 -29 8 0 14 -9 14 -20 0 -11 -4 -20 -10 -20 -5 0 -10
-11 -10 -25 0 -16 -6 -25 -15 -25 -8 0 -15 6 -15 14 0 16 -42 46 -65 46 -9 0
-18 7 -21 15 -4 8 -15 15 -25 15 -10 0 -19 5 -19 10 0 12 -27 13 -34 1 -3 -5
1 -23 10 -40 11 -22 23 -31 40 -31 13 0 24 -4 24 -10 0 -5 6 -10 14 -10 9 0
17 -15 21 -40 6 -38 13 -45 43 -41 18 3 41 -29 42 -56 0 -30 -14 -29 -34 2 -9
14 -22 25 -28 25 -7 0 -22 12 -33 26 -16 20 -27 25 -43 20 -12 -4 -19 -13 -16
-20 3 -7 -3 -16 -12 -20 -18 -7 -39 7 -86 58 -29 31 -35 46 -18 46 6 0 10 -4
10 -9 0 -14 37 -20 49 -8 17 17 13 29 -9 22 -10 -3 -33 1 -51 11 -28 14 -30
18 -15 26 13 8 15 13 5 24 -8 10 -8 14 0 14 6 0 11 5 11 11 0 8 -5 8 -15 -1
-8 -7 -15 -19 -15 -26 0 -17 -16 -18 -26 -3 -3 6 0 15 7 20 11 7 11 9 -2 9 -9
0 -30 7 -48 16 l-32 16 28 25 28 25 -28 -6 c-21 -5 -29 -2 -33 11 -8 25 -36
83 -54 112 -8 13 -15 31 -17 40 -1 9 -17 30 -36 48 -31 28 -35 36 -32 77 1 25
-1 46 -6 46 -16 0 -49 64 -49 96 0 19 -6 34 -15 38 -8 3 -15 14 -15 25 0 11
-7 27 -16 35 -15 15 -19 30 -29 96 -2 14 -11 43 -20 64 -11 26 -14 51 -10 74
4 20 2 32 -3 28 -12 -7 -22 90 -23 223 0 102 -9 248 -25 396 l-7 70 49 -51
c27 -28 58 -57 70 -65z m3369 -169 c-4 -17 -9 -30 -11 -27 -2 2 -1 18 2 36 4
17 9 30 11 27 3 -2 2 -19 -2 -36z m710 -595 c29 -9 57 -15 61 -14 35 6 17 -18
-29 -39 -49 -21 -74 -16 -86 19 -19 56 -21 55 54 34z m-5158 -52 c2 -6 -3 -18
-12 -26 -8 -9 -15 -18 -15 -21 0 -4 -11 -24 -25 -47 -14 -22 -23 -44 -20 -49
4 -6 -4 -14 -17 -19 -13 -6 -19 -10 -14 -10 5 -1 3 -8 -4 -16 -12 -14 -30 -12
-30 4 0 5 11 20 25 35 17 18 24 37 23 57 -3 39 -21 37 -54 -6 -26 -34 -44 -45
-44 -26 0 16 98 107 133 125 34 17 49 16 54 -1z m-193 -179 c9 -3 16 -15 16
-25 0 -20 -33 -59 -50 -59 -14 0 -12 64 2 78 14 14 12 14 32 6z m7105 -55
c188 -25 294 -49 366 -84 39 -19 74 -35 77 -35 16 0 277 -151 333 -192 6 -4
33 -25 60 -46 28 -21 91 -67 140 -102 113 -81 267 -234 324 -323 24 -37 41
-70 39 -73 -13 -12 -63 12 -111 53 -29 25 -71 54 -94 65 -24 11 -65 41 -92 67
-77 71 -98 88 -159 128 -32 19 -76 49 -99 64 -47 33 -162 89 -181 89 -7 0 -26
7 -42 15 -28 14 -207 22 -575 24 l-131 1 -59 56 c-33 30 -88 69 -122 85 -35
17 -63 34 -63 37 0 8 -47 34 -102 56 -21 8 -38 19 -38 23 0 20 194 79 315 96
59 8 130 7 214 -4z m-5059 -74 c10 -12 9 -16 -4 -21 -14 -5 -46 16 -46 30 0
12 38 5 50 -9z m-185 -41 c-15 -30 -20 -17 -9 24 4 14 10 20 16 14 5 -5 2 -21
-7 -38z m10 -154 c3 -5 1 -10 -4 -10 -6 0 -11 5 -11 10 0 6 2 10 4 10 3 0 8
-4 11 -10z m59 -53 c7 -6 6 -7 -4 -4 -8 2 -16 14 -17 28 -1 19 -1 20 4 4 3
-11 10 -24 17 -28z m26 -147 c0 -5 -4 -10 -10 -10 -5 0 -10 5 -10 10 0 6 5 10
10 10 6 0 10 -4 10 -10z m-160 -141 c0 -5 -9 -9 -20 -9 -19 0 -26 11 -14 23 8
8 34 -3 34 -14z m235 -40 c16 -16 -29 -9 -50 7 -19 15 -19 15 10 8 17 -3 34
-11 40 -15z m-160 -28 c3 -5 1 -12 -5 -16 -5 -3 -10 1 -10 9 0 18 6 21 15 7z
m137 -138 c8 -10 4 -13 -17 -13 -20 0 -26 4 -21 15 4 10 -1 15 -14 15 -11 0
-20 7 -20 16 0 13 4 13 31 -3 17 -10 35 -24 41 -30z m328 16 c0 -6 -9 -8 -20
-4 -27 9 -60 -3 -60 -21 0 -8 -7 -14 -16 -14 -11 0 -14 5 -10 16 3 9 6 20 6
25 0 5 23 9 50 9 29 0 50 -5 50 -11z m-170 -58 c0 -17 -4 -32 -8 -35 -4 -2 -8
11 -8 30 0 19 4 34 8 34 4 0 8 -13 8 -29z m-99 4 c1 -17 -18 -17 -25 0 -4 11
-1 15 10 13 8 -2 15 -7 15 -13z m139 11 c0 -2 -3 -11 -6 -20 -9 -23 -24 -20
-24 4 0 11 7 20 15 20 8 0 15 -2 15 -4z m150 -10 c0 -3 -4 -8 -10 -11 -5 -3
-10 -1 -10 4 0 6 5 11 10 11 6 0 10 -2 10 -4z m-250 -41 c0 -8 -7 -15 -15 -15
-16 0 -20 12 -8 23 11 12 23 8 23 -8z m50 -36 c0 -5 -9 -9 -20 -9 -22 0 -27
16 -7 23 15 5 27 -1 27 -14z m60 6 c7 -9 19 -14 26 -11 8 3 21 -2 30 -11 15
-15 15 -18 -1 -29 -15 -12 -15 -13 4 -23 16 -9 21 -8 26 8 4 13 12 18 21 14 8
-3 13 -11 11 -17 -4 -10 37 -14 68 -6 29 7 46 -1 40 -19 -5 -15 2 -19 41 -25
26 -3 53 -11 61 -17 15 -13 28 -6 18 10 -3 6 -17 11 -31 11 -14 0 -27 7 -31
18 -4 9 -17 30 -30 45 -13 16 -21 33 -17 38 6 11 44 12 44 1 0 -4 19 -8 43 -8
84 -2 88 -3 85 -21 -2 -13 5 -18 27 -20 103 -8 152 -41 146 -100 -1 -9 -25
-12 -88 -9 -49 2 -81 1 -73 -2 8 -3 17 -9 20 -13 4 -5 44 -11 90 -13 118 -6
150 -14 150 -37 0 -11 7 -22 15 -25 8 -4 15 -14 15 -24 0 -10 7 -23 15 -30 8
-7 15 -16 15 -21 0 -4 18 -27 40 -51 22 -24 40 -53 40 -65 0 -12 3 -23 8 -25
4 -1 24 -23 44 -47 26 -30 35 -48 28 -56 -6 -8 0 -17 20 -29 18 -10 30 -26 31
-39 2 -50 11 -82 29 -97 17 -15 18 -19 5 -36 -8 -10 -15 -34 -15 -52 0 -20 -6
-35 -15 -38 -8 -4 -15 -15 -15 -26 0 -10 -4 -17 -9 -13 -5 3 -17 -2 -25 -11
-12 -12 -16 -12 -17 -2 0 7 -4 2 -10 -10 -5 -13 -7 -27 -4 -32 6 -10 -24 -22
-36 -14 -5 3 -12 -2 -15 -11 -4 -10 -13 -13 -25 -10 -11 4 -19 3 -18 -2 5 -30
-4 -51 -26 -61 -36 -17 -45 -15 -45 8 0 11 -7 20 -15 20 -22 0 -18 -27 6 -43
13 -9 16 -17 10 -22 -19 -11 -12 -28 10 -22 20 5 20 5 3 -14 -20 -22 -36 -25
-28 -5 3 8 0 17 -5 21 -6 3 -8 11 -5 17 4 6 -1 17 -12 25 -16 12 -17 16 -6 34
21 33 3 37 -23 5 -12 -16 -27 -26 -33 -22 -5 3 -15 -14 -21 -39 -12 -49 -13
-50 -42 -35 -15 9 -19 7 -19 -7 0 -15 -2 -16 -10 -3 -9 13 -10 12 -10 -5 0 -3
-6 -18 -15 -35 -19 -37 -19 -50 0 -50 8 0 15 -4 15 -10 0 -5 -7 -10 -15 -10
-8 0 -15 -4 -15 -10 0 -5 7 -10 15 -10 9 0 15 -9 15 -24 0 -29 -19 -44 -31
-25 -5 9 -9 10 -9 2 0 -6 -3 -18 -6 -26 -3 -10 1 -17 13 -20 14 -3 12 -5 -9
-11 -28 -8 -94 3 -70 11 17 6 15 23 -3 23 -8 0 -15 5 -15 11 0 6 8 8 18 5 9
-3 24 -1 32 4 11 7 8 10 -16 10 -17 0 -34 3 -38 7 -4 4 -15 8 -24 8 -9 0 -17
7 -17 15 0 8 -8 14 -16 12 -9 -1 -22 5 -29 13 -7 8 -9 15 -4 15 5 0 3 4 -4 9
-7 4 -14 14 -16 22 -6 34 -18 59 -30 59 -6 0 -18 17 -25 38 -25 72 -79 177
-100 196 -12 11 -21 29 -21 41 0 13 -7 25 -15 29 -8 3 -15 14 -15 25 0 11 -9
25 -19 30 -10 6 -29 32 -42 58 -12 25 -31 55 -41 65 -21 21 -23 38 -5 39 10 0
10 2 0 6 -7 2 -13 9 -13 15 0 6 -18 28 -40 49 -35 34 -39 41 -30 64 8 21 7 25
-9 25 -10 0 -24 7 -31 15 -7 8 -19 15 -26 15 -10 0 -14 13 -14 39 0 34 3 40
27 46 17 4 29 2 31 -4 2 -6 15 -11 28 -11 13 0 24 -4 24 -10 0 -5 11 -10 25
-10 30 0 33 20 5 27 -11 3 -20 12 -20 19 0 8 -6 14 -13 14 -7 0 -22 6 -33 14
-18 14 -17 15 16 14 24 -1 40 -9 54 -26 19 -23 20 -24 27 -6 7 18 8 18 8 1 1
-14 6 -17 21 -12 14 4 20 2 18 -6 -4 -17 31 -24 45 -10 8 8 6 11 -6 11 -13 0
-17 9 -17 39 0 22 -5 42 -12 44 -8 3 -6 6 5 6 9 1 17 -6 17 -14 0 -9 12 -27
28 -40 60 -54 62 -55 62 -25 0 11 -7 20 -15 20 -7 0 -18 6 -22 13 -4 8 -17 19
-28 25 -19 11 -19 11 3 12 40 0 26 29 -18 36 -41 7 -56 24 -20 24 11 0 20 5
20 10 0 6 -4 10 -9 10 -18 0 -6 35 14 40 11 4 20 14 20 25 0 16 -6 19 -27 17
-21 -3 -27 1 -30 20 -2 18 -12 24 -45 31 -24 4 -43 11 -43 15 0 11 42 62 51
62 3 0 12 -7 19 -15z m220 -16 c0 -5 -4 -9 -10 -9 -5 0 -10 7 -10 16 0 8 5 12
10 9 6 -3 10 -10 10 -16z m-340 -5 c0 -8 -5 -12 -10 -9 -6 4 -8 11 -5 16 9 14
15 11 15 -7z m28 -56 c-6 -18 -28 -21 -28 -4 0 9 7 16 16 16 9 0 14 -5 12 -12z
m38 -53 c16 -12 17 -14 2 -15 -23 0 -48 11 -48 21 0 14 24 11 46 -6z m14 -55
c0 -11 -7 -20 -16 -20 -8 0 -12 5 -9 10 4 6 -7 10 -24 10 -17 0 -31 5 -31 10
0 6 18 10 40 10 33 0 40 -3 40 -20z m35 -30 c3 -5 2 -10 -4 -10 -5 0 -13 5
-16 10 -3 6 -2 10 4 10 5 0 13 -4 16 -10z m-5 -40 c0 -5 -4 -10 -10 -10 -5 0
-10 5 -10 10 0 6 5 10 10 10 6 0 10 -4 10 -10z m-215 -71 c4 -6 5 -12 3 -14
-7 -7 -48 7 -48 16 0 13 37 11 45 -2z m5 -50 c0 -5 -7 -9 -15 -9 -9 0 -12 6
-9 15 6 15 24 11 24 -6z m888 -708 c10 -6 6 -11 -17 -19 -17 -6 -31 -16 -31
-21 0 -6 -4 -11 -10 -11 -15 0 -12 47 3 53 19 8 41 7 55 -2z m-8 -121 c0 -5
-7 -10 -15 -10 -8 0 -15 -7 -15 -16 0 -8 -5 -12 -11 -9 -7 5 -4 14 7 26 19 21
34 25 34 9z m-60 -19 c0 -6 -4 -12 -10 -16 -5 -3 -7 -12 -4 -19 7 -18 -22 -46
-47 -46 -28 0 -22 44 6 48 20 3 20 3 1 -12 -11 -9 -17 -18 -14 -21 8 -9 39 26
35 38 -2 6 -14 14 -28 18 -23 6 -23 6 6 11 51 8 55 8 55 -1z"/>
<path d="M6077 10949 c3 -10 9 -16 14 -13 13 8 11 21 -5 27 -10 4 -12 0 -9
-14z"/>
<path d="M5991 10944 c0 -11 3 -14 6 -6 3 7 2 16 -1 19 -3 4 -6 -2 -5 -13z"/>
<path d="M5922 10930 c0 -14 2 -19 5 -12 2 6 2 18 0 25 -3 6 -5 1 -5 -13z"/>
<path d="M6110 10915 c0 -15 4 -24 10 -20 6 3 10 12 10 20 0 8 -4 17 -10 20
-6 4 -10 -5 -10 -20z"/>
<path d="M6080 10890 c0 -5 5 -10 11 -10 5 0 7 5 4 10 -3 6 -8 10 -11 10 -2 0
-4 -4 -4 -10z"/>
<path d="M6000 10851 c0 -5 6 -11 13 -14 9 -3 9 -7 0 -18 -10 -12 -8 -17 8
-27 11 -7 28 -27 39 -45 11 -18 20 -26 20 -18 0 11 3 11 15 1 8 -7 15 -18 15
-25 0 -7 7 -18 15 -25 12 -10 15 -9 15 6 0 11 3 29 6 42 5 16 2 22 -10 22 -19
0 -86 68 -86 86 0 7 -7 15 -16 18 -22 9 -34 7 -34 -3z"/>
<path d="M6264 10849 c-6 -11 31 -48 49 -49 11 0 8 23 -7 43 -15 20 -32 22
-42 6z"/>
<path d="M5459 10819 c0 -2 -2 -13 -4 -24 -2 -11 -7 -32 -11 -47 -4 -17 -2
-28 4 -28 6 0 19 -3 29 -6 13 -4 14 -3 5 4 -9 6 -13 24 -11 50 2 23 0 44 -4
48 -4 4 -7 5 -8 3z"/>
<path d="M6160 10711 c0 -14 5 -18 20 -14 24 6 26 19 4 27 -23 9 -24 8 -24
-13z"/>
<path d="M5743 10633 c11 -10 57 -13 57 -2 0 5 -14 9 -32 9 -17 0 -28 -3 -25
-7z"/>
<path d="M5242 10549 c2 -6 8 -10 13 -10 5 0 11 4 13 10 2 6 -4 11 -13 11 -9
0 -15 -5 -13 -11z"/>
<path d="M6800 10220 c0 -11 2 -20 4 -20 2 0 6 9 9 20 3 11 1 20 -4 20 -5 0
-9 -9 -9 -20z"/>
<path d="M5081 9685 c3 -2 14 -6 25 -8 10 -1 25 -6 32 -10 6 -5 12 -4 12 1 0
6 -7 13 -16 16 -19 7 -59 8 -53 1z"/>
<path d="M5081 9614 c0 -11 3 -14 6 -6 3 7 2 16 -1 19 -3 4 -6 -2 -5 -13z"/>
<path d="M4880 9609 c-20 -8 -22 -12 -10 -19 8 -5 29 -10 46 -10 16 0 35 -5
41 -11 6 -6 16 -8 22 -5 20 13 11 34 -16 40 -16 4 -35 9 -43 11 -8 2 -26 -1
-40 -6z"/>
<path d="M5027 9597 c-16 -40 -9 -52 32 -53 33 -2 38 1 34 17 -3 12 -14 19
-28 19 -14 0 -25 7 -27 18 -3 16 -4 16 -11 -1z"/>
<path d="M4560 9555 c-4 -81 -11 -149 -15 -153 -2 -3 -7 4 -11 14 -3 10 -15
37 -26 59 -12 25 -15 41 -9 43 14 5 14 32 1 32 -16 0 -24 -31 -13 -49 5 -9 6
-31 2 -51 -5 -19 -5 -52 -2 -73 l6 -38 71 3 c78 3 75 0 60 76 -6 33 -18 42
-27 20 -3 -7 -6 1 -6 19 -1 17 -6 35 -11 38 -6 4 -8 15 -5 24 3 10 1 29 -4 42
-10 24 -10 23 -11 -6z"/>
<path d="M4426 9563 c-4 -5 -13 -8 -19 -8 -8 0 -13 -34 -15 -107 l-3 -108 36
0 c34 0 35 1 35 38 0 69 -13 192 -20 192 -4 0 -10 -3 -14 -7z"/>
<path d="M4210 9475 c0 -8 -8 -15 -18 -15 -26 0 -96 -64 -89 -82 6 -17 50 -29
117 -31 l45 -2 3 49 c5 72 -4 96 -33 96 -16 0 -25 -6 -25 -15z"/>
<path d="M4320 9425 c0 -37 4 -65 10 -65 6 0 10 28 10 65 0 37 -4 65 -10 65
-6 0 -10 -28 -10 -65z"/>
<path d="M5432 9177 c-13 -6 -21 -16 -18 -23 3 -8 0 -16 -6 -20 -5 -4 -6 -9
-1 -13 5 -3 14 -17 20 -31 11 -24 12 -24 12 13 1 37 23 53 34 25 4 -9 6 -8 6
2 0 8 -5 25 -12 36 -10 18 -16 20 -35 11z"/>
<path d="M7083 9190 c-15 -6 -23 -18 -23 -32 0 -34 13 -49 30 -38 8 6 20 10
25 10 6 0 4 -4 -3 -8 -9 -6 -5 -16 16 -40 l29 -32 21 25 c12 14 22 29 22 34 0
5 5 11 12 13 7 3 9 14 4 31 -10 42 -76 60 -133 37z"/>
<path d="M6960 9000 c0 -11 5 -20 10 -20 6 0 10 9 10 20 0 11 -4 20 -10 20 -5
0 -10 -9 -10 -20z"/>
<path d="M6960 8922 c0 -26 4 -41 10 -37 13 8 13 45 0 65 -7 11 -10 3 -10 -28z"/>
<path d="M8596 8945 c4 -8 10 -12 15 -9 14 8 10 24 -6 24 -9 0 -12 -6 -9 -15z"/>
<path d="M7220 8921 c0 -25 6 -27 13 -6 4 8 2 17 -3 20 -6 4 -10 -3 -10 -14z"/>
<path d="M7280 8890 c0 -5 5 -10 11 -10 5 0 7 5 4 10 -3 6 -8 10 -11 10 -2 0
-4 -4 -4 -10z"/>
<path d="M6952 8820 c0 -14 2 -19 5 -12 2 6 2 18 0 25 -3 6 -5 1 -5 -13z"/>
<path d="M6951 8769 c-2 -40 10 -89 21 -89 10 0 9 9 -10 80 -9 31 -10 32 -11
9z"/>
<path d="M6208 9043 c7 -3 16 -2 19 1 4 3 -2 6 -13 5 -11 0 -14 -3 -6 -6z"/>
<path d="M6159 8973 c-1 -5 -3 -24 -4 -43 -2 -30 -1 -32 7 -14 6 12 21 28 35
35 20 11 26 11 33 -1 7 -11 10 -11 10 -2 0 7 -6 14 -12 16 -37 12 -68 15 -69
9z"/>
<path d="M5592 7770 c0 -19 2 -27 5 -17 2 9 2 25 0 35 -3 9 -5 1 -5 -18z"/>
<path d="M5020 7615 c-10 -12 -10 -15 4 -15 9 0 16 7 16 15 0 8 -2 15 -4 15
-2 0 -9 -7 -16 -15z"/>
<path d="M5280 7589 c0 -5 5 -7 10 -4 6 3 10 8 10 11 0 2 -4 4 -10 4 -5 0 -10
-5 -10 -11z"/>
<path d="M7280 7886 c0 -14 5 -26 10 -26 6 0 10 9 10 19 0 11 -4 23 -10 26 -6
4 -10 -5 -10 -19z"/>
<path d="M7035 7690 c-3 -5 1 -10 10 -10 9 0 13 5 10 10 -3 6 -8 10 -10 10 -2
0 -7 -4 -10 -10z"/>
<path d="M6515 7690 c-3 -5 -1 -10 4 -10 6 0 11 5 11 10 0 6 -2 10 -4 10 -3 0
-8 -4 -11 -10z"/>
<path d="M6937 7063 c-9 -9 -9 -43 1 -43 18 1 34 19 29 34 -7 17 -19 21 -30 9z"/>
<path d="M6321 6793 c-1 -6 -4 -20 -7 -30 -5 -17 -5 -17 6 0 6 10 9 23 6 30
-3 9 -5 9 -5 0z"/>
<path d="M5280 6664 c0 -8 5 -12 10 -9 6 4 8 11 5 16 -9 14 -15 11 -15 -7z"/>
<path d="M7760 6526 c0 -12 -10 -16 -40 -16 -39 0 -40 -1 -40 -35 0 -31 3 -35
27 -35 21 0 24 3 15 12 -19 19 -14 28 13 28 14 0 25 4 25 9 0 5 9 11 21 14 24
6 21 30 -4 35 -10 2 -17 -3 -17 -12z"/>
<path d="M4990 6516 c0 -9 7 -16 16 -16 17 0 14 22 -4 28 -7 2 -12 -3 -12 -12z"/>
<path d="M7576 6491 c-3 -5 1 -11 9 -15 9 -3 15 0 15 9 0 16 -16 20 -24 6z"/>
<path d="M7805 6490 c-3 -5 3 -10 14 -10 12 0 21 5 21 10 0 6 -6 10 -14 10 -8
0 -18 -4 -21 -10z"/>
<path d="M6429 6224 c-12 -14 -11 -16 5 -13 11 2 21 10 24 17 5 17 -13 15 -29
-4z"/>
<path d="M7330 6225 c-7 -8 -21 -15 -31 -15 -14 0 -19 -7 -19 -25 0 -28 12
-32 30 -10 7 8 21 15 31 15 16 0 39 26 39 44 0 12 -38 5 -50 -9z"/>
<path d="M7420 6233 c0 -5 5 -15 10 -23 8 -12 10 -11 10 8 0 12 -4 22 -10 22
-5 0 -10 -3 -10 -7z"/>
<path d="M7360 6050 c0 -5 5 -10 11 -10 5 0 7 5 4 10 -3 6 -8 10 -11 10 -2 0
-4 -4 -4 -10z"/>
<path d="M6960 5645 c0 -9 6 -12 15 -9 8 4 15 10 15 15 0 5 -7 9 -15 9 -8 0
-15 -7 -15 -15z"/>
<path d="M6960 5450 c0 -5 5 -10 11 -10 5 0 7 5 4 10 -3 6 -8 10 -11 10 -2 0
-4 -4 -4 -10z"/>
<path d="M5920 5391 c0 -6 -7 -11 -15 -11 -8 0 -15 -4 -15 -10 0 -15 26 -12
39 4 8 10 9 16 1 21 -5 3 -10 1 -10 -4z"/>
<path d="M4960 5096 c0 -2 7 -6 15 -10 8 -3 15 -1 15 4 0 6 -7 10 -15 10 -8 0
-15 -2 -15 -4z"/>
<path d="M5260 4734 c0 -3 6 -12 14 -19 17 -17 30 -7 15 12 -12 13 -29 18 -29
7z"/>
<path d="M4775 4660 c3 -5 10 -10 16 -10 5 0 9 5 9 10 0 6 -7 10 -16 10 -8 0
-12 -4 -9 -10z"/>
<path d="M4858 4553 c7 -3 16 -2 19 1 4 3 -2 6 -13 5 -11 0 -14 -3 -6 -6z"/>
<path d="M4910 4490 c0 -11 5 -20 10 -20 6 0 10 9 10 20 0 11 -4 20 -10 20 -5
0 -10 -9 -10 -20z"/>
<path d="M4866 4451 c-4 -7 -5 -15 -2 -18 9 -9 19 4 14 18 -4 11 -6 11 -12 0z"/>
<path d="M4933 4444 c-6 -16 12 -34 35 -34 16 0 15 18 -2 36 -19 18 -25 18
-33 -2z"/>
<path d="M5007 4407 c-3 -9 -16 -17 -27 -17 -30 0 -24 -13 16 -33 42 -21 52
-16 36 16 -6 12 -12 29 -14 36 -4 12 -6 12 -11 -2z"/>
<path d="M5058 4203 c-10 -3 -18 -11 -18 -19 0 -11 6 -13 23 -8 12 3 24 8 26
10 9 8 -15 20 -31 17z"/>
<path d="M5935 3740 c-3 -5 -1 -10 4 -10 6 0 11 5 11 10 0 6 -2 10 -4 10 -3 0
-8 -4 -11 -10z"/>
<path d="M5972 3685 c-7 -8 -22 -15 -32 -15 -11 0 -20 -4 -20 -10 0 -18 45
-11 63 10 9 11 17 22 17 25 0 10 -15 4 -28 -10z"/>
<path d="M5665 3580 c-3 -5 -1 -10 4 -10 6 0 11 5 11 10 0 6 -2 10 -4 10 -3 0
-8 -4 -11 -10z"/>
<path d="M5520 3405 c0 -9 5 -15 11 -13 6 2 11 8 11 13 0 5 -5 11 -11 13 -6 2
-11 -4 -11 -13z"/>
<path d="M5707 3404 c-8 -8 1 -24 14 -24 5 0 9 7 9 15 0 15 -12 20 -23 9z"/>
<path d="M5479 3335 c26 -45 26 -55 1 -55 -18 0 -19 -2 -8 -20 7 -11 21 -20
31 -20 14 0 17 5 12 20 -4 12 -2 20 5 20 7 0 10 16 8 43 -3 40 -5 42 -37 45
l-34 3 22 -36z"/>
<path d="M5563 3315 c0 -27 2 -38 4 -22 2 15 2 37 0 50 -2 12 -4 0 -4 -28z"/>
<path d="M5600 3330 c0 -7 14 -8 38 -4 51 9 53 14 4 14 -23 0 -42 -5 -42 -10z"/>
<path d="M5665 3230 c-7 -12 2 -12 30 0 19 8 19 9 -2 9 -12 1 -25 -3 -28 -9z"/>
<path d="M5640 3079 c0 -5 5 -7 10 -4 6 3 10 8 10 11 0 2 -4 4 -10 4 -5 0 -10
-5 -10 -11z"/>
<path d="M5618 3033 c7 -3 16 -2 19 1 4 3 -2 6 -13 5 -11 0 -14 -3 -6 -6z"/>
<path d="M6312 2788 c-16 -16 -15 -28 2 -28 9 0 14 9 13 20 -1 11 -2 20 -2 20
-1 0 -6 -5 -13 -12z"/>
<path d="M5960 2532 c0 -14 11 -21 26 -15 8 3 11 9 8 14 -7 11 -34 12 -34 1z"/>
<path d="M7060 13446 c0 -2 7 -9 15 -16 9 -7 15 -8 15 -2 0 5 -7 12 -15 16 -8
3 -15 4 -15 2z"/>
<path d="M7295 13440 c-3 -5 1 -10 10 -10 9 0 13 5 10 10 -3 6 -8 10 -10 10
-2 0 -7 -4 -10 -10z"/>
<path d="M3735 13054 c-56 -30 -76 -45 -70 -54 6 -10 105 48 105 61 0 11 1 11
-35 -7z"/>
<path d="M3651 12975 c-22 -8 -35 -20 -38 -33 -2 -18 0 -20 20 -13 36 14 87
45 87 54 0 10 -29 7 -69 -8z"/>
<path d="M3887 12903 c-10 -9 -9 -23 2 -23 5 0 11 7 15 15 5 15 -5 20 -17 8z"/>
<path d="M463 11124 c-10 -7 -28 -14 -41 -14 -13 0 -30 -6 -37 -12 -29 -26
-40 -34 -58 -41 -10 -4 -16 -11 -13 -16 4 -5 0 -12 -6 -14 -8 -4 -4 -8 10 -13
13 -4 28 -17 32 -30 13 -33 56 -42 82 -17 17 17 18 23 7 41 -17 27 2 51 35 45
22 -5 25 -13 17 -55 0 -5 -9 -8 -18 -9 -14 0 -13 -2 5 -9 12 -5 22 -16 22 -25
0 -20 25 -19 49 2 17 14 18 18 5 31 -30 30 8 68 39 39 10 -10 87 -18 87 -9 0
9 -63 62 -75 62 -8 0 -20 9 -28 20 -19 27 -91 42 -114 24z m-45 -87 c3 -26 1
-28 -25 -25 -22 2 -29 9 -31 31 -3 26 -1 28 25 25 22 -2 29 -9 31 -31z"/>
<path d="M1017 11026 c-4 -9 -16 -16 -27 -16 -26 0 -56 -17 -93 -54 l-29 -29
26 -14 c14 -7 26 -18 26 -23 0 -6 9 -19 20 -30 11 -11 20 -15 20 -10 0 6 6 10
13 10 7 0 18 9 24 19 15 24 -4 45 -27 31 -21 -13 -52 8 -48 33 2 16 11 23 31
25 15 2 27 -1 27 -7 0 -6 8 -10 18 -9 49 4 75 -20 52 -47 -15 -18 8 -55 32
-55 15 0 18 9 18 46 0 45 0 46 28 39 15 -3 28 -10 30 -14 1 -4 16 -6 32 -3 28
4 29 5 14 28 -9 13 -26 26 -37 30 -12 3 -31 17 -42 30 -26 30 -99 44 -108 20z"/>
<path d="M680 10989 c0 -9 -12 -21 -26 -27 -14 -7 -23 -9 -21 -5 3 5 -1 13 -7
19 -9 8 -17 8 -29 -1 -15 -11 -16 -13 -2 -19 8 -3 15 -12 15 -20 0 -28 54 -37
75 -11 5 7 19 15 29 17 18 3 17 5 -7 33 -18 21 -26 25 -27 14z"/>
<path d="M1556 10914 c-4 -11 -14 -14 -35 -9 -22 5 -30 2 -35 -11 -9 -24 7
-37 46 -37 39 0 58 -12 58 -38 0 -13 -7 -19 -24 -19 -14 0 -28 5 -31 10 -5 8
-11 8 -20 0 -20 -17 -44 -1 -47 32 l-3 29 -22 -21 c-28 -26 -29 -37 -3 -45 11
-3 20 -12 20 -20 0 -7 14 -16 31 -20 23 -5 34 -3 43 10 15 20 56 12 56 -11 0
-18 36 -19 43 -1 3 7 3 25 0 40 -6 30 18 47 40 29 6 -6 24 -8 39 -5 26 5 26 6
11 29 -8 13 -22 24 -31 24 -8 0 -25 11 -38 25 -27 29 -88 35 -98 9z"/>
<path d="M1220 10879 c-11 -19 -19 -20 -67 -2 -16 6 4 -35 28 -59 14 -14 19
-13 50 11 21 15 33 33 31 43 -5 25 -30 30 -42 7z"/>
<path d="M2070 10831 c0 -6 -14 -11 -31 -11 -28 0 -59 -19 -59 -35 0 -4 -10
-15 -22 -24 -22 -18 -18 -41 8 -41 8 0 14 -7 14 -15 0 -9 12 -21 26 -27 22
-10 28 -10 39 5 17 23 46 21 52 -3 6 -21 28 -27 38 -10 10 16 55 12 55 -5 0
-9 12 -21 26 -27 22 -10 27 -9 35 5 6 9 17 17 24 17 19 0 19 11 1 36 -15 19
-15 19 -29 0 -10 -14 -19 -17 -33 -11 -10 5 -26 10 -34 10 -8 1 -21 3 -27 4
-7 0 -13 12 -13 26 0 18 5 25 18 25 10 0 22 -3 25 -7 8 -8 57 -11 57 -3 -1 11
-28 40 -38 40 -6 0 -19 12 -29 26 -13 18 -31 27 -61 31 -28 4 -42 2 -42 -6z
m-35 -62 c4 -6 14 -8 22 -5 18 7 43 -10 43 -29 0 -22 -33 -28 -48 -8 -10 13
-16 14 -19 6 -3 -7 -10 -13 -18 -13 -19 0 -38 27 -31 45 6 17 42 20 51 4z"/>
<path d="M1673 10789 c-7 -7 -3 -19 16 -40 28 -31 58 -38 67 -14 4 8 12 15 20
15 19 0 18 24 -2 41 -13 11 -17 10 -25 -4 -12 -21 -45 -22 -56 -2 -6 11 -12
12 -20 4z"/>
<path d="M5 10741 c-3 -5 -1 -12 5 -16 5 -3 10 1 10 9 0 18 -6 21 -15 7z"/>
<path d="M2557 10737 c-3 -9 -14 -14 -24 -11 -11 3 -34 -11 -62 -38 -42 -40
-43 -42 -22 -52 11 -5 21 -14 21 -21 0 -6 12 -17 27 -24 23 -11 29 -10 39 3
16 22 45 20 51 -4 3 -11 10 -20 17 -20 17 0 35 35 26 50 -4 7 -6 19 -3 27 7
18 32 17 39 -2 5 -12 10 -13 20 -4 8 6 21 9 30 5 11 -4 10 1 -6 24 -12 17 -27
30 -34 30 -8 0 -20 9 -27 19 -18 26 -84 39 -92 18z m-43 -53 c21 -8 21 -40 0
-48 -21 -8 -34 1 -34 23 0 28 9 34 34 25z m74 -42 c-2 -9 -11 -18 -21 -20 -19
-4 -32 20 -23 43 8 22 48 0 44 -23z"/>
<path d="M598 10653 c7 -3 16 -2 19 1 4 3 -2 6 -13 5 -11 0 -14 -3 -6 -6z"/>
<path d="M2667 10613 c-8 -13 14 -61 32 -68 8 -3 21 1 31 10 9 8 22 15 28 15
16 0 15 12 -2 36 -12 15 -17 17 -27 7 -16 -16 -46 -17 -51 -1 -3 8 -6 9 -11 1z"/>
<path d="M1025 10600 c-16 -7 -17 -9 -3 -9 9 -1 20 4 23 9 7 11 7 11 -20 0z"/>
<path d="M1120 10590 c0 -5 5 -10 11 -10 5 0 7 5 4 10 -3 6 -8 10 -11 10 -2 0
-4 -4 -4 -10z"/>
<path d="M2075 10469 c-4 -6 -5 -12 -2 -15 2 -3 7 2 10 11 7 17 1 20 -8 4z"/>
<path d="M2120 10470 c0 -5 -7 -10 -15 -10 -21 0 -19 -18 3 -23 9 -2 2 -2 -15
0 -19 2 -33 -1 -33 -7 0 -5 9 -10 19 -10 11 0 22 -4 25 -8 4 -7 23 -7 124 -3
41 2 23 16 -24 19 -54 3 -72 11 -53 23 12 8 11 11 -1 19 -19 13 -30 13 -30 0z"/>
<path d="M2165 10450 c-3 -5 1 -10 10 -10 9 0 13 5 10 10 -3 6 -8 10 -10 10
-2 0 -7 -4 -10 -10z"/>
<path d="M2115 10380 c3 -5 12 -7 20 -3 21 7 19 13 -6 13 -11 0 -18 -4 -14
-10z"/>
<path d="M2115 10350 c3 -5 11 -10 16 -10 6 0 7 5 4 10 -3 6 -11 10 -16 10 -6
0 -7 -4 -4 -10z"/>
<path d="M2926 10346 c3 -8 0 -17 -7 -22 -8 -4 -10 -3 -5 4 12 20 -8 13 -26
-8 -19 -21 -17 -24 25 -34 33 -8 38 -49 7 -66 -11 -6 -20 -18 -20 -28 1 -16 2
-16 14 1 7 9 25 17 40 17 28 0 28 0 23 63 -2 40 -8 61 -15 60 -7 -2 -12 4 -12
12 0 8 -7 15 -15 15 -8 0 -12 -6 -9 -14z"/>
<path d="M3011 10296 c-14 -17 -8 -21 41 -30 34 -6 37 -10 41 -44 l4 -37 1 43
c1 23 -2 42 -7 42 -5 0 -13 10 -17 23 -7 21 -7 21 -15 2 -6 -17 -8 -17 -8 -2
-1 21 -24 22 -40 3z"/>
<path d="M2821 10263 c-1 -26 3 -33 18 -33 14 0 17 6 13 25 -2 14 -8 23 -12
20 -5 -3 -11 1 -13 7 -3 7 -6 -2 -6 -19z"/>
<path d="M3067 10233 c-11 -10 -8 -43 3 -43 6 0 10 11 10 25 0 26 -2 29 -13
18z"/>
<path d="M3040 10192 c0 -6 -7 -9 -15 -6 -9 4 -15 0 -15 -10 0 -21 26 -21 34
0 4 9 4 19 1 22 -3 3 -5 0 -5 -6z"/>
<path d="M4813 10113 c9 -2 25 -2 35 0 9 3 1 5 -18 5 -19 0 -27 -2 -17 -5z"/>
<path d="M1130 10090 c0 -5 5 -10 11 -10 5 0 7 5 4 10 -3 6 -8 10 -11 10 -2 0
-4 -4 -4 -10z"/>
<path d="M1686 10048 c-11 -24 0 -48 21 -48 12 0 14 3 7 8 -7 4 -14 18 -16 32
-4 21 -6 22 -12 8z"/>
<path d="M1727 10045 c-4 -8 -2 -17 3 -20 6 -4 10 3 10 14 0 25 -6 27 -13 6z"/>
<path d="M2251 9989 c-1 -12 -9 -15 -28 -13 -17 2 -20 1 -8 -2 11 -4 26 -11
33 -17 17 -13 20 -7 11 23 -4 14 -7 18 -8 9z"/>
<path d="M1700 9984 c0 -3 9 -17 20 -31 20 -25 20 -25 20 -4 0 12 -4 19 -10
16 -5 -3 -10 1 -10 9 0 9 -4 16 -10 16 -5 0 -10 -3 -10 -6z"/>
<path d="M2206 9915 c4 -8 8 -15 10 -15 2 0 4 7 4 15 0 8 -4 15 -10 15 -5 0
-7 -7 -4 -15z"/>
<path d="M2220 9850 c0 -5 5 -10 10 -10 6 0 10 5 10 10 0 6 -4 10 -10 10 -5 0
-10 -4 -10 -10z"/>
<path d="M9076 9253 c-4 -9 -6 -58 -5 -108 0 -49 -2 -181 -6 -293 -5 -119 -4
-202 1 -201 23 4 45 -2 39 -11 -3 -5 -2 -10 3 -10 14 0 25 -50 14 -63 -11 -16
-15 -167 -4 -167 9 0 42 106 42 134 0 8 6 27 14 43 8 15 21 43 29 61 8 18 18
32 23 30 5 -2 12 42 16 97 3 55 11 134 17 175 17 127 16 138 -26 177 -26 24
-45 33 -60 30 -20 -4 -23 0 -23 29 0 18 -4 35 -10 39 -5 3 -7 11 -4 19 3 7 -7
18 -21 24 -33 15 -32 15 -39 -5z"/>
<path d="M3321 9203 c-14 -17 -19 -33 -15 -47 4 -12 7 -27 7 -34 0 -25 78 14
101 51 13 20 -6 41 -46 51 -21 5 -31 1 -47 -21z"/>
<path d="M3521 9098 c-1 -10 -7 -17 -13 -15 -9 1 -14 -14 -16 -45 -2 -38 0
-48 12 -48 10 0 16 -9 16 -22 0 -41 13 -8 15 39 2 43 -12 130 -14 91z"/>
<path d="M3303 8864 c-9 -23 2 -59 18 -62 13 -2 18 6 21 37 3 34 1 39 -15 38
-11 -1 -21 -7 -24 -13z"/>
<path d="M3310 8766 c0 -22 11 -46 21 -46 5 0 9 14 9 30 0 20 -5 30 -15 30 -8
0 -15 -6 -15 -14z"/>
<path d="M3341 8684 c0 -11 3 -14 6 -6 3 7 2 16 -1 19 -3 4 -6 -2 -5 -13z"/>
<path d="M3547 8615 c-9 -55 -9 -95 2 -95 15 0 18 22 12 80 l-6 55 -8 -40z"/>
<path d="M9061 8574 c0 -11 3 -14 6 -6 3 7 2 16 -1 19 -3 4 -6 -2 -5 -13z"/>
<path d="M8361 7901 c-10 -18 -9 -21 9 -21 22 0 25 7 11 29 -7 11 -11 9 -20
-8z"/>
<path d="M4334 7695 c-4 -8 -9 -13 -13 -11 -4 3 -5 -11 -3 -30 2 -19 8 -34 14
-34 15 0 61 54 49 58 -6 2 -11 10 -11 18 0 19 -29 18 -36 -1z"/>
<path d="M8430 7663 c0 -10 4 -24 9 -32 7 -10 12 -8 25 10 22 32 20 39 -9 39
-17 0 -25 -5 -25 -17z"/>
<path d="M4217 7560 c-25 -29 -21 -40 13 -40 30 0 37 11 24 44 -8 21 -16 20
-37 -4z"/>
<path d="M4226 7491 c-4 -7 -5 -15 -2 -18 9 -9 19 4 14 18 -4 11 -6 11 -12 0z"/>
<path d="M4115 7400 c-3 -5 -2 -17 3 -26 7 -13 11 -12 26 10 16 25 16 26 -3
26 -11 0 -23 -4 -26 -10z"/>
<path d="M8670 7245 c0 -8 5 -15 10 -15 6 0 10 7 10 15 0 8 -4 15 -10 15 -5 0
-10 -7 -10 -15z"/>
<path d="M8400 7141 c0 -12 5 -21 10 -21 6 0 10 6 10 14 0 8 -4 18 -10 21 -5
3 -10 -3 -10 -14z"/>
<path d="M8640 7018 c0 -19 2 -20 10 -8 13 19 13 30 0 30 -5 0 -10 -10 -10
-22z"/>
<path d="M8320 6934 c0 -22 2 -25 15 -14 8 7 15 19 15 26 0 8 -7 14 -15 14
-10 0 -15 -10 -15 -26z"/>
<path d="M3540 6869 c-58 -4 -226 -17 -375 -28 -148 -11 -322 -25 -385 -31
-219 -19 -616 -49 -1200 -90 -228 -17 -602 -44 -830 -60 -228 -16 -490 -35
-582 -42 l-168 -12 0 -48 c0 -56 -13 -52 145 -38 61 5 259 21 440 35 1023 80
1437 112 2078 165 363 29 415 34 867 71 134 11 248 23 252 27 4 4 2 18 -5 32
-11 22 -19 25 -72 26 -33 1 -107 -2 -165 -7z"/>
<path d="M459 5775 c-3 -2 -84 -9 -180 -15 -274 -16 -279 -17 -279 -46 0 -22
3 -24 32 -20 18 3 114 10 213 16 184 12 200 14 248 32 36 14 35 38 -1 38 -16
0 -31 -2 -33 -5z"/>
<path d="M8460 5601 c0 -5 -7 -16 -15 -25 -19 -19 -9 -50 14 -40 41 17 58 14
95 -15 21 -17 47 -31 57 -31 27 0 24 38 -3 50 -21 8 -20 9 10 9 26 1 33 5 30
19 -2 13 -17 19 -58 24 -30 3 -72 9 -92 12 -21 4 -38 2 -38 -3z"/>
<path d="M8507 5483 c-3 -5 -8 -53 -12 -108 -5 -75 -3 -96 5 -82 6 10 23 17
40 17 18 0 39 10 54 25 l24 24 114 -38 c129 -43 155 -53 116 -46 -21 4 -28 1
-28 -10 0 -11 7 -13 28 -9 24 5 34 0 60 -30 18 -20 32 -48 32 -61 0 -14 5 -25
10 -25 6 0 10 25 10 55 0 47 3 55 19 55 15 0 20 10 25 51 4 28 6 53 4 54 -2 1
-48 15 -103 29 -55 15 -159 42 -232 61 -72 19 -138 38 -146 41 -8 3 -17 2 -20
-3z"/>
<path d="M9201 5408 c-27 -7 -32 -12 -20 -20 11 -7 11 -11 2 -15 -20 -7 -15
-23 6 -23 10 0 35 -7 55 -15 20 -8 36 -12 36 -8 0 4 5 2 11 -4 14 -14 68 -6
90 14 9 8 15 22 12 33 -4 15 -14 18 -51 17 -40 -2 -47 1 -44 16 2 13 -4 17
-30 16 -18 0 -48 -5 -67 -11z"/>
<path d="M8490 5252 c0 -17 16 -23 68 -27 l47 -4 -31 14 c-47 21 -84 29 -84
17z"/>
<path d="M8826 5214 c-21 -20 -20 -49 1 -85 34 -57 93 -45 93 19 0 18 -4 23
-16 18 -9 -3 -21 -6 -27 -6 -7 0 -4 -5 6 -11 23 -13 22 -39 -2 -39 -24 0 -54
28 -45 42 4 6 1 14 -6 18 -7 4 -10 15 -6 25 4 13 13 15 36 10 25 -5 29 -4 24
9 -8 20 -38 21 -58 0z"/>
<path d="M9343 5192 c-8 -5 -8 -12 3 -26 13 -19 14 -19 14 7 0 30 0 30 -17 19z"/>
<path d="M8918 5080 c-22 -22 -24 -29 -13 -34 21 -8 45 3 39 19 -3 7 -1 16 5
20 12 7 15 25 4 25 -5 -1 -20 -14 -35 -30z"/>
<path d="M8640 5080 c0 -9 61 -30 88 -30 22 0 13 20 -14 30 -32 13 -74 13 -74
0z"/>
<path d="M9150 5050 c-8 -5 -10 -10 -5 -10 6 0 17 5 25 10 8 5 11 10 5 10 -5
0 -17 -5 -25 -10z"/>
<path d="M9325 5039 c-11 -17 1 -21 15 -4 8 9 8 15 2 15 -6 0 -14 -5 -17 -11z"/>
</g>
</svg>
